<mxfile host="65bd71144e">
    <diagram name="Page-1" id="Nq6aRjSIZCBQNH_lNJxK">
        <mxGraphModel dx="694" dy="1445" grid="1" gridSize="10" guides="1" tooltips="1" connect="1" arrows="1" fold="1" page="1" pageScale="1" pageWidth="827" pageHeight="1169" math="0" shadow="0">
            <root>
                <mxCell id="0"/>
                <mxCell id="1" parent="0"/>
                <mxCell id="BWnSw_Da8Bput0sx85Jr-1" value="Existing Interface" style="rounded=1;whiteSpace=wrap;html=1;fontStyle=1" parent="1" vertex="1">
                    <mxGeometry x="320" y="-20" width="120" height="60" as="geometry"/>
                </mxCell>
                <mxCell id="BWnSw_Da8Bput0sx85Jr-4" style="rounded=0;orthogonalLoop=1;jettySize=auto;html=1;exitX=1;exitY=0.5;exitDx=0;exitDy=0;entryX=0;entryY=0.5;entryDx=0;entryDy=0;endArrow=classic;endFill=0;shape=link;fontStyle=1" parent="1" source="BWnSw_Da8Bput0sx85Jr-3" target="BWnSw_Da8Bput0sx85Jr-1" edge="1">
                    <mxGeometry relative="1" as="geometry"/>
                </mxCell>
                <mxCell id="BWnSw_Da8Bput0sx85Jr-3" value="Expected Interface" style="rounded=1;whiteSpace=wrap;html=1;fontStyle=1" parent="1" vertex="1">
                    <mxGeometry x="70" y="-20" width="120" height="60" as="geometry"/>
                </mxCell>
                <mxCell id="BWnSw_Da8Bput0sx85Jr-5" value="Bridge" style="text;html=1;align=center;verticalAlign=middle;whiteSpace=wrap;rounded=0;fontStyle=1" parent="1" vertex="1">
                    <mxGeometry x="220" y="-30" width="60" height="30" as="geometry"/>
                </mxCell>
                <mxCell id="BWnSw_Da8Bput0sx85Jr-50" value="Client wants weight in kg" style="rounded=1;whiteSpace=wrap;html=1;" parent="1" vertex="1">
                    <mxGeometry x="30" y="210" width="120" height="60" as="geometry"/>
                </mxCell>
                <mxCell id="BWnSw_Da8Bput0sx85Jr-52" value="" style="shape=image;verticalLabelPosition=bottom;labelBackgroundColor=default;verticalAlign=top;aspect=fixed;imageAspect=0;image=data:image/png,iVBORw0KGgoAAAANSUhEUgAAAX8AAACMCAYAAACUNalkAAAAAXNSR0IArs4c6QAAAARnQU1BAACxjwv8YQUAAAAJcEhZcwAAEnQAABJ0Ad5mH3gAADZeSURBVHhe7Z0HXBzH2f9/ewU4OI7ejioQIAkkgZBAvVnVctxL7DjFjp3i2I6dNz1v/qmub1ziFtcU18Q9LrJkyZasDhIIIUAUgahHL3d0ruz/2WUPjib2ECpw87Xno5vZuZl5npl55pnZPZa74YYb+MLCQjAYDAbDdVBI/zIYDAbDhWDGn8FgMFwQZvwZDAbDBWHGn8FgMFwQZvwZDAbDBWHGn8FgMFwQZvwZDAbDBWHGn8FgMFwQZvwZDAbDBWHGn8FgMFwQZvwZDAbDAYXKDUqOl2Izlxln/Hmeh+oidNzFqpdxYeB5JZQKTooxnOVS1x/Pa6BfdQfu+O3T+NVDD2NznHRhBqNMSkr6fVNTkxS9MMTPU+PxVAVKTlvRxI09IGLnqPHkMjWuSVSJ4eo4DtWlVtSNk1+A5zlcvlKNXyfTQGuw4lTfhRlsU11vZJgSWwKBijYe5rPIO9UIcqTPV+H+FBVumavEtaT3dW427GiUMlzCRF39CO69UodTBwrRhcW44ZE/4MqwehzIM4APuwZ3/+5meJ7Yg8ou5/XJ88FYfs9D+PY1GVAW70GFaXJ9EnnlQ/jxLeGo2pOLdhn9GpRyFZbN5lBf2QTLiPw8H4jV9z2Bb123AT41u1DSzFOaCvO/81d87xtXI7p7D/KqzVLuqcVZOaZKf+eV2Ovx3VszYDnxLj7bvgcl1S3osVyC7ZxCLlnPv67GgqeyzGJ4rcYmpU6EDWYrB4sV6JdSLgxTW2+4XonLoxTwkuIXCjXVe0eMAjVlFjxzdED/L1XI1f3Fpa29FdD6QCdEdP7Q9XXB7OMHL9qRwdcXWrRByDI5bLD0W2Axm2G+gJu74AVbsDw9Hh5SfDR9JJMVCfPnghPkVM5HQrwJ7S3S5UuGi6M/Z9BGRNLYKUXWB3tQXFKC1t6ZbfgFLp7xp0FwtnHQ08kju8EmhuIuKXECOPJCdh/pxx07zfj4AnoXF6veqSbYm4O71YYDtCOz6z6/c3rI09lmgk2jg1ZNkcBAeNdWoYEWAR+KupPxd+tuQ8ckHWGOa8bRF+/HQ7/9Mw7UXEr68EBb9Slw8xaB1mwoExcitrMM1ZPY3ZxPLl39DWG1kucGJVSqgbgrIOvv+QvHNL+J4PFCLo/VyQrEuXFoM1rxQZ4FRxwG2rxkNX4eyuOBXWaUSttBPkSFl5Zw2Lm3H+9JhkQsT2/D83nAWiov1p3Ka7Ph/TwzMrtHD47IBDX+FMfj6e1mZI+xzeQDlHhmmRI6e519FvxlpwX5I/IK5/K+ASp8fa4C88jQeVh5GJpteO8U5Z3ESi+3Xrv+XiF51yQpEOXGo5XkffeEDcd6BpZA3lOBP69XIWos+ajdx7L78EydVI8gR5AK35ijQDLJoSI5ygxWvHnKimragdjh/VV4ajmHrBwrvGcrkerFoafbhv2F1HeNNtioLuGox40MpjDm9fEq/DaGx/O7rDgxUAR4Wgx6KY8dH5L5Zqo3SUffo3rrWmx4p8CCAgf9ydWzXDnkwMfchPt+lIjsh/+AQzF3496YWpxOCkP5n55D06Y/4gdJx/DMYx+hTZJZm7AVm7esQpzeF4r+ZhjydmHnx1+hsd+hfbNvxU+/vxpe9v7tOog3/t8/UD6ij3hejeCMm3H5+hSE6pToqtqPHfmBuOmqAOx96M842DqQXzgu+U7aKfz3PQsWXbEUoV5mmCqP4st330ERefACfMA2fP+XVyF0zHFgw6k3vod3cwUZhGOfBxFf8BZaV21D32s/Q3HK/+Hyvg9xat63oD9wP147OOQ1ec3ego0kb2yYL9QWI5pPH8Ke/36KctOQCyboxTtuAzZcvgazQv3gRvmayg5i70fbUW4cyidHDgG5+pNdnsx+mwxc6l34zS3++PLBP+FQ27mVNV2QdeYfEKTEaprsgZ48citsyGoHwsOU2BDCIYfiJqkzg4KVWKEF9pfb0GrvYK0CV4ZzKKuw4pTUQWJ5NNl9qbzjlWQAW3nxqGNDMIdsh/LsCAZnvT+QVWob+8yfPLqaNjKQtTZxYCVTuYfKbGgckVfprcIvlisR3cfjs1KLKIc+QoltoRxyq2wwYoyyz4bMeu3689dQXpLvaBsQTfJeFgRkkvxdQn4b0EQTMc9AuvOgBZYm+hsnrDhI8WN1NuRRPa3SGaTCW4lfLVchggz5x6STbCMwO1qFzb7AAWpLn71+jQJbIxUI03Iw1Fixm8qx+iqwKYZDN5VbZqZ8aiV+tkWF28jwr/HnwCkUWBKvxBVSWKUeOvPntUr8mvQX3kP1Fg/UGxWuxOYgWmBIf6IchFw9y5ZDDlY9ktYkoe/k52jWb0Jc7yE0BqZAVbAf1qSrkGzLwe7jVeCpTEXYNnz7rqsQ3JaJA7v34BTVFbn0SiyNaMaJ3Oqh+yy9zWisLMSp3KMwKOMR59+Ek3tyxQXEEWXUNfjObeugrT+Afbv3o7wnCovT4+Hj1YeKA/tQ3TOQ3ydxA1L0AfDxbUfRwT0oqLIgNGUNFs82o+BIKXqEcq2daK8vQ2leDoy6FETYsrHzve04QfFTJ3NQdqYWJvGekieil16GcNMnyOpcgcXePeDnxaHliwNwW7wcnuU7B8/8+ZCt+PYPr0FQ6yEc3PUVyduHkLStWBrfj8LM0wP1EorQLbj1rusQZjqGw18I7etGUMrlWJ7MoTSzCF1Sv8mSQ0Cm/uzl6XzaUCyWZ6by1o4qT3a/TQI+KAWrFvqi5vBeVI7hgM5E5B/7kLd6JMeCT6ttOFBuweNFZK28FeRNStedxYPH0eMWfEbl7T9jxeNkTKBTYNEkyuMsPE5KxxQlZzkiiopQYBZvxRtHzNhRQ4aaFqTHT1phoXozaNFyFrn1ikj62y7IW27FU2TslD4KLHAbuMyR15tPxvkIhfJeSjDzOEFesBAXwmkHjzkuigwreeSvZ1nwec1AeU9Qf2hCFVjmLmVyoLGqH/+gBfkw5f17JpVFBj6d8opYLfj3YTMeOdSPV8gw8xbakdBnIS6EZ+l7dryo7DKa6M9mWrCbFo+D1G9/LbHBzY9DikO9cvXsrBxnpbMdHTZvaKkOPz8fmFrLYDL6QuevhrfOC92mVnGnIxCevgKh5uP47JU3kXksE3lfvYF/7yiEW9IaJIs3DQbgug0oK8hFMYXK1vHPjIKSFsDfko/dr/wbWdmZOLH7Few40TP25NJ0If+tf+LQUaHeV/H2njNQRi7AbEkvXH8dynOzUEDBIHjlvXUoPZ4pxgvIiNYYhxsmN9q2nc47Ca+UrZirzEPRGU+4j9CdxtuCmqx/471X3qY5l4WT+/6Dt3cVQxWdgnhvKRMRkrYc4VbSy0tv4MixLOQfeBdvfZhF62oGaBM1nAnkEJCrPxFNBwre+pdU3mtUXvmo8uT2m1wUKg+4eWhIP+Q4JMdA2VWJ2knfF5p+yDf+/Tyq+6TPRGcnDxN5Ar4aKcFZqLwah/I6OoTyAN/x726dM8Eamjg9QIVFSiDM9Rbctb0f7wmVn09G6K+5c+DmsM5ZI0cEuAty8LQLUkCj4sRgof4QPOrgMRaxWkfZ+mwooF2E/YEkjrbSlS08CimcId2QDyQe0QhxIZQ4eEHdLVa8WmBDKe3EPaR6rSREP9WrlRYxAbl6dlaOs2JrgclE7fAJhI8PldHWA6NRCZ1vEMUBU3uzlJF8FiGhpQ4tCk9x8gvB0tiATi4AlN1pvHVkeUz1aHLo38aGurHvafXUopF2OHaMjU20gfSCl7PySqjUbrAUHUZ2SyuaDh1BNdzhNuLcuvf0Luz4cA+qrSqoJXmtXSaxXo1DvX7+AUCbAQ0OclhO/h1/+eVvsadOSrAzxXKgpw6NDmPD2Ng8qryp7re5tzyBX/75Kfzsd3/AtXN7sP/Vt1Dm5HHjdEa+8acJOWwwU0SIT15VY5XH4Rx2bhNCDu9gu+0IN2ttNgrns2KREfKeQ3VkK8H5qPDAVjc8bw8rVPCnQkc/Sj1cYI7j8cEhMx4tG9YaWSg0Cty6VI3nt7njBXu9i5VwsPsicvXsnBwT0UyePqD1ng1f31aYWsiAGDvJ84+j3QCPDodHYBRUMRdxBX5IE1+Y/GL44Xr4QAWlEzNiEFGm0focW8O8cMLnAC/mc7it4hRKlZp2oAXY/bdH8OYXZbCpSIYRZXH+adj0/Qfwi4eew6/s8t6aPka/DXTc8H6j9tLuTDhvH87UyiGnvKnutzM7n8Srzz+G1//xTxypD8CyKzciyIV+q+OEygTT7ABFBHPGO+jKJvbUiHxSfHjHCoxVnpB6/rAJjaBKJjO/LyV4koPvsOA5h+MZITx62IIdDt7YVCJM/vULVbhMy+OzXAsetddbaBVufQxDrp6nUg6OM8FossBLFwsfbTvayYtsN7XB2z8W3ppO2gkMbUNsVDHfsA/v0MQXJr89vPbC33CkRsrkBN3d3YCnTri9NYiwG7gg40xYQR0RDKT0UYDndVh8w+1ID6rH4f88g9ft8n5WAIeNmYhN6Dj6/qU6P6a83xqKUXG6COUFB7HrwClw4SlI9JMuugDy+9mNQ6TDEYVWy4nPVLcL59MSDT00eIR8Di6FXqeAmpKbRp6JU74Ih/K8vYXyeLSLRw/D6bfRkjAFRrtReLJGwyHaYVusClHi+SvUuJG8w0sFu/F0nMSOtPRRW0mGttah45mCDvICFcMX46kmijq8rc6Gjww2FEj1VpDlV0rX7cjV81TL0dFuhJt/JPx6W9BO8f62NqjCo6HjWtHRNpBHoMNIK4u7DV1lp8TJL4Qz9V1QqgcWJGdpLC9HjyYVq7elIoiMvs+stVifph/D4XEO0RjTKBhvHMhDjxC9Gqb8Hdh//CTKJXnru/hR86mtrRXwo/wO81KZ/F38/P8ewGUR53FgyWSq+80RYddzqS565wv58vZzWLpIhcsjFVg5S4WfzKGvmmzIcTDqrWQUCm0KXJOuwuYIBVbPVuHuOA7tBiuyR3aOmcMKKm8r5Vs1S4mfJI4uz04TzeQOBXmec1VYHKJAmhD8ObhJFsLHR0qjkCDcMKaOjAtVDqQFcvCU8lXV2FBBns03lqqxJYLD8miqd74S6g4bMsnoOIvcep3FQBMTXgpcHqPE0jAFBVooVUNllVVZUeWmxHfTVFgvXI9U4s4MNX6yUAH/yVUpizNGHv4RStwWq0QG1XtZvAr3xHCjPH+5ep5qOdqMNFBCwhDU3grxvl2bEV0hofC3GdEurAYStVkHUa9dga996xqkpSxBUvoWXHnHT3HzdenQDT1ZCK/IBUhMIm+QQrS/8DysHyKSUwfSEvTwkPrXnP8ePs1qQtCau/DD//cY7v5OBlpLys7RaAPNjY3gg1OwbMVSJKWkU0hGkIeziqlBbXUffBbdhG3rVmLewqVYvPG7uGFp6CjPv+HYIRiUKdhy5zewdHE6kldch5uvToeqLgv5tVImJ5CrP7nI7bfJoPbUUH/1oncM53OmIt/4kxey4wywMF6Jb5Gh1nZY8WK2BTWOZ7i9NjyXaUUeFbttvgq3kGEwVlvwl5PWoce/7NBSvbsSSEtUUXlKeI1Rnh1rkxXPF/PwpYXnR0tUuDddjXuSFfCVrs+lRUZIE8LNetr2qhW4Vorfk6JEuJTP2mHBE1lWFFI3b01W49skh2ebFU9mWVA5icNKufU6S3W5Be81A4vmqfDDxWr8gIxjhsONcBvp6jGSo1qjwA2pKtw+V4HIHiueO2RDke1cTc7YCGe/X56w4BOyqsIYuHOhEuv9eHx6mh9lROTqearl6CJP3+qhAYwt5KvQ98mT7VSpoepsA1U1iK1uO978+6do8F2Gy75+O67Ytg4hbfvx7vP/RqXDDb+YdT/ETbf9SAybFviBc5+HtVL8xhvXwn6PkePaUPj2n/DYH3+Hl576I5564GHsJ4fnXHuicd8b2FuixJwrbsd1t96Ja79xI5Lsg14mHNeJnHdewMEzCsSvvxlX3Xg90qKacfCrUxhpL231O/DvV95HOZeEZdd8G9s2pcG96lP85x8fo2ES80Ou/uQit98mg1otHFf0wexws3umI/9HXuE8HvncjFNjGGcGgzEcZfo9+PUNnvj8Dw8jc5r8StqV4ZJux8+/k4SKD5/G9uP16O7pgXUSC950Qr7nT3pgQ5jBGBulf/zgEUfCwrXYsjwBfEs5qiZxnMi48NjyP8L27E7EXPVr3PeHB13ir3o69ecdHt1pRiHz/BmMUXiv+QXu/9ps8bPN0g2T4SQOffA6jlU7PBHBuKQRnmhz04UiMMgLfYbSGf/H3WQZfwaDwWDMLOQf+zAYDAZjxsCMP4PBYLggzPgzGAyGC8KMP4PBYLggzPgzGAyGC8KMP4PBYLggzPgzGAyGC8KMP4PBYLggzPgzGAyGC8KMP4PBYLggzPgzGAyGCzJjjb8yYhmuvn4bFgae/YURcvMxXBvhj34pZsD7XWeKHIxzR5mUlPT7pqYmKToz4HkVohemIYIvR3ZeI/rG+UukcvNNFd6R85AQJLxjpOsCvDD+/DGRHAELtmJbug+aig3ongF/BZbnvZCw/nKsS40CZyhDU9/kZHJWL1M9XqZKDrkI8l6xOhVkY8QwJyEW0Xp/KDub0dplBi7BscFHLsX1m+bAVlmGFvOl176pZGZ6/ppozApWoq2iAqazDTC5+aYI3/A5mDMrEA6vOJ6WzBQ55MPDZrVS4Ee9/ep8MvV6vvBy8P11yDtwAAcoHMkpQr0tEMmrV2Ge78g3PzMuNDPS+GujZyEALaisPPubNOTmY7g2HNeNsn0f4/3/7kaRcfp6gxdFDlsPWg0G1NXVwVB1Gsf3H0N1vw9mJ4ZIGRgXixn39/x53hvzN29GQnc2Pt5fDvM4Hv3Z8vEBKbhiXRiqs07BIyEJem8VzLRVrcjLQWF9N3gpL8/z0ITMxcLkWQjx0UBh6UJrTTFy887AJL1TlPdKxMat8+E3Rjt43oaazHdxpHrgWlDqNqzR12LPJ8fRYq8jLB3XrPBFyc6dKOyQ0mS2T9h2r4tuxNHjVsTOj4avuxVdrdXIP3YShu6Rb9Q/O87IIbdeOfqTizJmJa6Z34N9Hx1DA8Kx7NrlCDjzFT7NbQIfnIYrl6tx7IPDqKP2y62XD0rFlWvi4GHvi74z2Pffo2gcoQOeV0A3KxVpc/Tw1SjQ21qG3BotVqR6IX/7bhR3y9eLM3qWi1w5pnK8CNjL+4r6pMleN6/C7LVXI1VxAp98WYJeShfuQ2hCEpCSHINAnSeU5m4YG8uQl1uKVoejF7nzQ/74U8JnVorYbz4eQFdzKY7X+GLNYi3yP9uF4q7h+plpzDzPPzAWUToL6iqqxzX8IhPmUyEycRaslfnIzimk7WoA5i5fijgv6bKAbg5WrkxCkNWAwuyjOF7UAFXEYqxJj4YbGRiRXgPyMjNx5MgRFDfbwHdWI4c+C/FMSi9pHsjmPDLaJxKI2bFK1BbmIKegFjbfeCxdFg8ve/vk4rQcgYiPVUn11o1drxz9ycTS0YEedy9o1RTx0kFr7gWn84aKynHTesG90wjTQFb59bafRubBg+KRRW51t5Q4GoX/PCxPi4FXTyVOZuegqN4TCXEB0tWRTKCX8zFeZMoxwBSNl3HxgpdG2BD0wv6udIVPIvVHMgKsdSjKOYbckgYoQlOwalkcNJOud2I5lEHJWL44Bp7d1G85uSht0mFOnA7OL3PTkxll/AUPIiQmEp59BpypNUupo5GXzw2dZw4ju7QS1ZWlOHawEC2KAESGe0rXycOYNQu+1lrkHMjF6apqVJbm4kB+A9ThcYiiAS7AWTvQWF2NagptPTTwzEbUV1WJ8erqGrT2TNa7mLh9Iu79qMo6hpJKoX3HcbCoBQo/PULdpesycVoOdzMqs45K9WbjUFHrqHrl6E82xg50whNewuJHRl/dWI82jTd0QpSMv6VTuD6A3Ho5M8lcVyceWTR3jn9K7q0Pg7etHicPnkAZlVdRnEUeZP/Y77yeQC/nY7zIlUNkisbLEAoo1WqoVCqoNT6ISlmMWG0faqvqB3eovlHknVN/HD9wYrA/9hc0Qhkcgwhnx4EdGXL4hevJSaB6Hfotr44WBen6TGdmef7KUMRGeKCn+gwazrZ8y8rXD6OxR/pM9LSgvsUEi2Lo9punJ43MLhM6uYHBLQRbhwm9ZIS0WinTeWPi9on0meCYrbujC1ao4THpySyTEfV2dXSOqndK9Wc2wdRLXqVOAY23Fr3ttTBxZPyVCnh7e6LTaAQnGZup7jeNxoMUa0KHgx9hop3ImD6rDL1cVKZ4vHAeMVh1zTW4hsLVV2xCRpwbmk4eRk5tv5SD9gJe5LCQ/kwWKYHoNxnF/vCc7DySIYdGMzAOjA71GmkcjNlvM5AZZfzVkbMQpu5EVWXjoFcxFvLy0argsDBwXBtO7f0c+4uNUgqlCf/5JWGzNLjFsC6BhqziAjzFNnH77IwczEL8/A9wfsJ6p1Z/RnR2cqIh0enc0WlqpLgXtD7e8PLk0UFG1s5U95tQHjhe5nHBxHq52Exl+3jaXefu3Yu9FL78/DN88uF2HCxuHnbUKi7K/Ai9UFzQq2IS/WFnIjkGip6sZNOfGWP8ed4N0dGhULZX4UyrlDgGcvPJQRiufPtpHJYGtz189dVhlLRJmZyAF6wHjcWR412Iz8QhOpX64zgzeW198NL6w1trgYncSBMtBt7ePhTvgKl9yDRPdb/195EX66YB+f+DaDw8RvWjS8L3or2xEcJviVqMnei1jdaKcANeWHWHXaG40E82h4E/1fNj4Duu20szx/P3ikZMEIeWygrazp+lQ+Xmk0F3N+0r3Xj0Ng8MbiE0kgHilDSsxhiN4iA/y2Dr7O4GPHxAjusg3r46KG3d6OqSEi4BJpJDLs7qbyI6TJ1w8wqFvxtt5Ulfpo4eaIND4IVO0K5/kKmu19jcij63cCQt0MObjL5nYCzmR+smZZAcmSo9X+p0CIPbUwedw2G7m05Hi2k3uoc2bFM+P3p6aBx46eCjkhIIH2+dyywHM8b462Ki4cc3oaLy7KNAbj45tJw5g3b3WKQtTUZsZAQiYxKwZMU6rFoUCc0YM184B4ZOjzlxUYiMjKQQAp1qKKNwD6LRGoSkFamIj4pETOISLEv0RXd1GQwX8tdFEzCRHHJxVn8T0d3RCbN3MIJtJgi/3OinuDokBNpOExwcf9n1eviFIiwsTAyBWrJMCk/46/UDacEDTxIJWAwncfxMJ7wTV2DL176GrcuiYWpoEa+dC1OlZ7lyXCxMlZVoV4YjdeUCxEVFIDo+BSuTQmBtrECNw7n9VM+PthoDutThSFkh1BuJ6MR0pESoznnRni7MCOPP836IifSFpb4C1fbnx8ZAbj7ZmIpw4EAhjJ7RmL8kHWnzZ8O3pxyHv8pD8xjbW2PJceQ3KKBfkI6lS5ciI2PhsKcZuN4KHN6fi3qEInHRYiyM80VvRRYO5BhgOcddylQykRyycVJ/E2IyodNDAzUZe9FhpHivRgNFpxHDlnqZ9QYlLsfKlSvFkBLpCU4dgvlSfMWSOPhI+TiuB9XHvsAnn+zE7t078en2L1FktJ2zBzlVepYrx8XCZiqh/ihAi0qPeYuWICUhBKjPxf7DZehxGPdTPT+szfk4lF2BHs8YzE9LxdyQHhSfPsez4GnEjPiRFxeUgsvXRKPp4MfIqhv/tpvcfAzGuaKIWYFrF7sh96Mvcbr/XJcBBmPqmfaev/DMfugs2q731uBM/fh7P7n5GIzJoPAMHDxaCYuIRWpcENDRjKap2GEyGOeBGffnHRiMi4FH/Dp8LSVQ/Mxb+9FtFH6tmoPyNoeHyBmMSwhm/BkMBsMFmTmPejIYDAZDNsz4MxgMhgvCjD+DwWC4IMz4MxgMhgvCjD+DwWC4IMz4MxgMhgvCjD+DwWC4IMz4MxgMhgvCjD+DwWC4IMz4MxgMhgvCjD+DwWC4IMz4MxgMhgsyo4w/z/sgedP1WB519nfxRC2/HtdfvxxR5/kNRkI9m5Iv9qsyLgwXSqcMBmNqmDHGXzA+N964CXN9Jn5xRtWhd/Huu4dQdQm9HetiwUctx/WbkuHjhNEe6ztMpwzG9GJGGH/BGKXrDch8OxO1zPNkMBiMCZlRf8+f56Ow4oZ0IOsdHKoa3wMVdglzTLvweb7RIZ4Fgz59cOdQm/k2DhrnY/PGOfAhb5bna6nYg4Oerb2MTGRg09yBox3eeAq7dp6EcUQeez0CPsmbhvLzRhTt2ol8o2N+59ohMF6ZwjHY/M0boSvaBdOcjWKZjteF+jLCh8rhazPx7qEq8D7Jg/WJ6Q5yjfediWQVsOcVP0/QNgaDcX5RJiUl/b6pqUmKTnd8EJUUThazENVnMSA+kfMQ2FeOssaBd+wJ8dhZ3mje9xH25hSiVhGB1JQ0zAtsxr6P9iC7oBbKyBQsDO1CYfWAcRO+Exc7G4HN+/Dx3hwUCHlmZyBjRJ5h9ZAx3Eg7lF1UZg4tuAWdIVizOgqdBVWiYZ1UO85WJjwQMjsOs2KDBsvs9E3Fwlglak83oLHmFOX3xTzvWvH7x2tMYpm+8bOhOL5DzD9SLmO1UMfo74wp65xOWqh24LDQLqGceauxOqRTavvZ29bnsLgxGIyphz3tY8dQNOhxtp8sEo+PDEUD3i7HGXGyyABodcPOuQVP1u7pinkyi2DSz0Gyz+ijJ2FXkjQHKMoc2hmgsgBFJj0iogeiIk60Q26ZpqLMwTIrC6iNOvq+GBsbY/6hwfzjyX42Btu1a2iHMqSfiGE3hZ1tG4PBmBqY8ZcwmQaM+BAmjEoawajvtJvQKX0cRXQEwjkfzN10I2644QYxjHWD2ql2yCyz09QufbKjhc5X+jgOguc+WGYG7aacgdqlJ02MqlbUz/C6J9M2BoNx7jDjfwERzusz334b77zzzrBwtvsTEzHVZQpe+/LrrxePkj6Xyn07s1a6ymAwZgrM+J8DOt2IA4rxPF4BI3nwU+3Vno8yfXVUogFZDjeufXVa8V/ZjNcusexx9MNgMC4ozPifA1x4xuAPysQnjdL1MBUVjPmsO2fMR5FBhzkbVwyeeYs/Slvu3DP2jkxZmaPO2YcMt/DkT8Yc3UDEkbOczY/XrvkZwo2AsfXDYDAuLMz4nwPGU5kwzbGftWdAb8ga9qjjSIQfQmUZ9Mi4ceCMXjif15uqh27WToJzLlO6QSx8//rlUaLhzizC0H2EDCAzyyBllhjxnbEQ2rWrSDu8XYbhj4IyGIyLx4x6zv9CMtZz7QwGgzFdYJ4/g8FguCDM+DMYDIYLwoz/JBHOtNmRD4PBmK4w489gMBguCDP+DAaD4YIw489gMBguCDP+DAaD4YIw489gMBguCDP+DAaD4YIw489gMBguCDP+DAaD4YIw489gMBguCDP+DAaD4YIw489gMBgXGV4dgKg4PdQO7+HgPaMQE+0H5STf9zERzPhfYHheeBH7+elMhusijCu1ko2r6QbPeyB06bfwvf99EN/emgw3KV3EOwVb7n4IP77nG5gXpJISpw729/zHwCdxAzLCm3Dsi1y0jvNSFO+EDVge6yXFqBMtNTi+6xiazvISFZ73QszSNUjU9aD8yJc43XHh32jFh6nwzzQOH3zZj4+6z0/98fPU+E0Ej0d3mlE4jj5i56jxu/gh34O3WPH0djOyz+HFNhebhPQYXOHdhld2t496mc7im5fhn3MbcO1vy1CMIDz5t/lYlZuPxS82gY+che2/DcJnv8vEM3XOy8/zGnz3l0vwk+hevPhoJp6qmJwOU29ahtcyWnHn/UU4LKMfziavAJ+ehLw7gqEcea2rFj/4cREOONnXYvs2aKQYYOntg8HQhg8/KMXLp/phc7K8C8GADjzxt//NwvONw9vH82qEb/wJvrkxELV7/o0de3PQ3Ovg+fMKeIanY/V1N2FJQBV2/O0pHGuwSlfPHeb5T5Lu2lzk5GSKodDQJaVOhA0220CYui6cntTVWPBUllkMr9XYpNTpzexFMbh9hR/GeqVyTUsveRVuCBEivh4I6TOj188DgcKW3s8dgehFXbOYdRLw6O+3od9sQ98FVOXZ5BUpqsT9z53Efc+WI6uPR0tuKX3Ow30v12DS7mZ3M54WyqDw8zcrccjqh7vvS8Xd0dPPlCljrsbVmyJQv+MJvPnZsWGGX4DjbOgxHMGO5/+Kw6ZEbLxxE/yn8AiIGf+zcDY1W7ua0dRYL4bWbnkzjuN6UH10B3Z/8RXOXASv/4JCyjub/no6eWQ32MRQLHftnMY0tvfDonFDkJoiwR4IrupAsa879BT19neDV1cf6vvFrE7Dcb14/YkDWPTjY3ih6tIZV5ypE1/mNmPXcROaaIr0Nhuxm+K787vG3VFPiLUPecebxHI+P1yDPz1ZhM+6vXDLxgApw/SA55WYu2Y1AloP4PO9tWfdtXDmCuzdfhh9UeuQHjd1JntGGH/hmGbT+oUIDZqHxau3YMOGLVi1JBkhnsMV6j93EzatnT/s5eZ8cCo2bF6POK8RporyuAUnYcmqrVTeZqxcTOVpJjdgef/5WLf5SmzecpUYNl2WMuYKzgt1+sUhOeMyrN2wDRvWb8DSBfEI8JhkvVReZKQS/7tejRe3qvFQOg04FaVL1+0I+fwClfjRSjWe2uqGFzao8ZuFSsxWD885L1mNf25QId6h7XyICi9eocZ12tH686FrvxTrdsMjS1XI8BwtsxyE9vlQ++6i9j1HZb24SY1fJCsQOckzbmE7Hb8yAa8+sBJZz67CZ/8Ti7Xrk3DixTTcGeggG9UbNDcaf/n1Mhx6di2OPp6Bv98aikQ3hzzBUXjvxXXIf2k9Hk2j6RQZi09fvkyM57+4Fk+kD+S1tvShBWT8/QB1oDsUTSYYVO4Ip6/ofTyAtj7UiDnl1SvAz4nHfqluMTyZiJUOfWNHrrx2QpYk4PWHV+PY0yvw8f2zsTFwaPzJldcZhOOc/McTcfXi+HHrHZe+duQbAG2gZmAXRQj3P4LnRuGxX2Xgq6dXI/PRDLx6WwRSRozRZbcuR/4j8Uh10BmfMhdHX8zAvfqhNLntE/ScuIp09+BKHH1mJT66NxoZ7vw4TlACZsW5o6P4OOqovRNhKc5FeZ8vZiVGSimj0YWp8Jgwf9eqkCxjbswI4z9AEGJi1Gg+nYeC07Xo08ViQWoivMaYDPIIQEy0Co1lJ1BQWguzWF785MoznSFvJUs8Iiqq65YSR6PQxmNRWhIC0YgzBTnIP22AxX8OUhclQDuJm8TqABXuJSMeRDuTt09YsaMVuDyGG3XkpPRW4T5aGBKsNnxy0oLXy21QhSjx0zQVAiatPwU2zAJOlFrxWpEVXToFvr9YhYhJlKfwVuIn1L5Eat+H1L7XTtvgrlfhF6lK6CZRnmpWDJ78ph6RbfV4+vVivFzkhm+u9ZGuDqEIj8bf7pmFxf1NeP71QjxICvRIm4tX7ggZ0kt7M554uQA/fylfbBea6/EIfRbiP6f0f5UOZKM9PRrgLhr/cH8PNLW2o6nbA2G+oOAGvq0HtVJWWfUKVNfi1+KxSh7+kt0rJY5GrrwinC9uWa3A3o+L8OePm9ATE4lHvheJGGfldRaq9+ZVHPaMV+94KDTQ+wP9xl7Q8BZRhkfhmXtikdrfglfePIWHdrdCTU7U83eGI2wS40VERvvcEmLx1K166Fvq8Nc3SvCvMg1uW60d+4hX6Q9vDWAkfcrC1gSTkXaJvjSAxsGdnESdkv51p3wy1s2ZY/zVfag7kYsKgwF1FSeRU9IEXhuKYE/purO4mVF/4gQqhfIq85FdSuV56ydVHmfpRIv9iKhn/MGn1UdBBwNOHctDZV0d6qsKkV1QQ/VGIlQrZXKC2FAFgiw2vH7Ugt0GG746bcU7DaQq6bqdqAgFom2UL8uCz2ts2F9uxWPFtAsJVCB96P6ac3jwOHrcgs+qqbwzVjxeTIaCFoBFQ/fIZRMXpUQ0GX7H9j1RZIOG5FtGA91Z4lMDEW1pwRPPlOK1w41479MiPJJtAc2bYSxcpccccxMefKoUr1K+Dz4vxd0ftsBrYTi2SbaT6+/GgaxGbKdwUnixW0839mU2iPHtWU3IbZNmoakPTTY1An1pxxLgjvoWExra3BFKOg7xVaPV2A+LtPWXU68A19WN/cIxCoXs5vGPHuXKK+JpwfZ/FOHlg4348PMS3PeZCW4xAVjlPXBZtrzO4tmPz/5ejFeken+8vX1YvYOQjjw8VdBqlPDx02LbTXNwXaAZXxxtGzw6mbssFPNIfw8/LeivicorxV0f0QI6NwxbaKGYFDLatyAtCOG9Qr2n8bqk5ycLyBhL14fhpoaKmmu1WqSEibBQXlrI1eMP+Mbyftz/hRk/pXDYMnE/zBzjbzahs0/6TJg7O2AmtbtP1nhZTOhwOIMdLI926OcLjYYa29OBDofxYGvMwZe7vkCZSUpwAj/hmIoWmyqH8mo6bKO2ocFSvmqHfB2UT6gyaLKLZz+PGof+6OjgxfJ8J6G/APeB9tVxCmhoxgjB0snDCNreT2JRDNG5kQfbhbIeKYEoruvESPMZ6kMTrbkbZ5QDxkYI/fXdaOY0iAyVMsnFRp6/kUMglakn562u2YJ6MpQhARqEULyhZagxU1ovIVdeke5OnLa70EQt1dtL7oKfTko4X3R3o7Rd+kwYGnrHrlerx9NPrcERCgcfTcejq9U49uFJPHjMLGUAImhxRRuV5zD+Wmu6aGfggfAgKcFZZLQv2If03NqFEod6Swzj6Pk8wNHi10nzpFmG4ReYQcc+GG7UbEKMo/8mychzOHt5ky5wYoTOA20jHeUQ0niqm59ExeI3qDDH8mxjaEQhjALKNGyQit87F3mp3dInkXMoj2w+OB8VHtjqhuftYYUK/lSeYjLlSd8Z1r6R7SUUQuFRs/CBZGzE8NMohNG0UTk9c3pRT0Y1wMcHYf49qGsiA2I0I9TfG0HkzTe2DVmMqa1XvrwilDjymELot/MO1TvSSI5Zb3cT/u+xbNxJ4bYHDmPtjw/hru1GtDkMLKUwoGnODCuPIkJ5yknoT0RG+wbmr/j/IMJ8c4wPIsxp6aNchNqE+0FTxWRVcUkyrCtEq0AKdtDVwGd+uNDj6XLkGbu9vIHYeUHsWBpAw+Q4B8S2UmGO5SnGkMAmjGrKNEwv4veG688mLogjh/xAfOTEGJVPLE9qk5PwwsSl7dBzh/rxiEN49LAFOybxDv22btriaN0Q5CBwsE496hjEJiz4hhr8VDI2g+HxPPyrUsokE44zo95kI+Ovg17bR4afvOq2XgQF+iLYs588/yENTmW9AnLlnRZY+1Fyqh2Hi4w4WtGDZvPw0ShgFQY0zddh45kiwni2OgxU8TN9fZgeaN4Lc0ToAmcZmL/i/4MIZY1uIWHuQT/Vr/GQew6qFU8x+nun7tG4YfqZ1qh10Doch6m13rQp60Ofw32wrt5uuuADL4ef0XnpdFDYuoVd3XBUOng75Bssz2HrbIe3ka9E7umYnewEPb3UWA3V6/BjPi4oFZdt3oB4b+dHY5twf0HDIcqhvAjv0e1slPJFOMwCrTcHYUfb2DkQF2joodHqxiHSQS96nQJqSm4aOSYpX4RDf3iL5fFoH0N//cJMo0aNNxhb+ug6ydDWakNhCy+Ggg7Bwxu+OMmlpMSIdk0wfnB9IBL81IiMD8P9y0ffmKs3kjfuQdvo4gFjI4RDBgtUaurzMe7iiUaH5BhvHNS19sMzSItI6mfh5m5XSx/cor0RzNGuoGUgj4Cz9U6EXHmdZSJ5LxbVzaQ/Pw1mO4xT33BP2in2oqZBSiAqm2kw6jxpbkkJRFwEGVlbD6obpQQnaDT2A/5eSHAY9wl67djj2laNJtr9BUTEwU3OINbFIox2iE0N9mfCRiOcDiRFKrAqgkOQjAdEZo7xN7shbGEKYvR6hEXPx6KEIHAddWh0MOp9hiq08gGIT1uA6DA99LNSkDLLB331FWikcTwMiwf0KQvFfGHRyUiLH12enR5jO8yKAEQlRCM4OBRBQvDzgkLqVLUueCCNgr9wvs55wjckbCAtQDv4tzs6ayth4sIwd7HQvjCERs5FWlIEuM5q1DkYYbmU19vQrFLgG0tU2KBXYPVsJW7W0yCRrtupqrGhkrbKt2YI+TisilXhJ4kK9DfbkOVwftlqIONrU+CadBU2RwjlqXB3HId2gxXZI/VHHtmKRSpspXyrZinF8kCeb84YjktTO9BBntr6uSosDlEgTQj+3OCkKKuyospNie+mqbA+TIGlkUrcmaHGTxYq4D/xGB9F9/Ey/OlAD2I3LsD7j67CJ3eForJQuIMwnBP7DSj21uMPP4zF19ODcPnKKDx47yI8e2sIQsewnOX1PeBDgnDbuhBcnh5MwR/xmqEG1rbS4h6mxSz6t0pIoMWgLdQL0XwfLQxiFhG59QbFBGBDSqAY0gJJv0oPLEgNGkib5wlvSX9y5XWWieTldVqsp7ZsTNWJuw6PQJ+BtiV7TemPlUZSdLgOhepg/Oqe2bh1WRCu3hiP564KQO8pA3Y4nNvXH63DkT5//OjuBHyb8l27dQ4e2+SNxqw6fOFw/0suedlNqPUIwi+leq/dNgc/ozkw1iLLcXXIz6uFInEN0oPPboaFR0j1q1cjgj+NU8fPstX1VeCOhSrcFs3BMnI+joEyKSnp903CEjSN8QiMJY+2CUWlFujjExEZTEu5qQqFJ0+hzaETOasRjS3kfQVGIjwigra+KnQZCpBXVEs+/dBUGCivEaWnbdAnJiAyiHxWUyVOnSwaVp4dvrsVJvghNCoGkeGR0OsjEKrrQ211i/gER9CcdUhNiERYWAQCvdW0SfBCAH0W4qEBZPwqGtBH+fj+FjS2W+EZEEHti0SIvyesrWdQcLIExkkMRmu3DSV9HBLImC4PVyCSPOX3q4FlIRyKzlhRLG2ZbX02nGjnEE6DcGWUEqnkYbTTavhSngW1tiG9cBYeJ8hDDaaZLORLoa1Bfa0VLxRaaVEdyhcQpMRqnQ3vlVBdZNDXULlWkxVv5FpQOMY23dbFkzHkkB6twHoqdyltQdJ9eOyvtKFL0Au17zi1L4YM/9poJdICaEvfYcMbOTbkTeKHURxnxencOryxrwF7smvx/PuV2OsVhLtTVcj8woAc6c9e8KZ27KkA5qWG4frVYbgswRMKQx0efrkc+8ZYjFuqOmGLCsJVq/W4Mj0EGxd5w5RZg0zpB33dAf60aOlgPW3Ac7nkdfZpsOFrQYg2tuH1nS0wkKwCcutd+/UMPHZVKLZQXcv1tDVSeWIJfRbiWxJ5fLWrBfVUplx5w5IjcW1EDz7e2YwaqS0IDcL3lrgjb++QHHYmkhcL4/Hf78eKi0K4ioMnDXaxbfM5ZO5oRpVUh9x6x8w3BrYOE/af4RE3PxhXLQ+jMaNGc34FfvNaLU47jD+utxP7yWZEzgvFlStCsYbGXcXR0/jVfxpR7zDu5bbP2mJEtskNixaEYFt6IOYo2vHsYSsun6/GsS9rcaxreJu7qpvgk7YZS+b7obEgf2CHOwLhx2CBS27HTZfHo/Orl/BJftu49/+CI1S4MpBDfokZX5rGzuPIjPjbPva/xXP0i9xhN34YDLm4rUxGzrfUePR/cvDqCCM3E3E1eS9VFCGrcd3tNyNR24qKfW/g7R0F6JdsGO+dgs3f/DpSZ2lhPPoq3nwnE6ZxfhAm3G9Ym+GO2/xteHaXGUetE/fpzDn2IdgQZshFHagbPDLZsCQMv1nrD77JiJxJPFI7HXA1eacLtoZ9ePuxP+L9vWVQBAQN/6ueHoHwsZzCgb//ES//Z3zDP4AC8b6AkXbi2TJPCWaU53+2v8LJYDgSsikVX9ww8GtJ3mxGfU0z/vFmCd6sONfboJcmriavq8F7K/HoGgVy9/fjLaM8G8j+pDODwWC4IDPq2IfBYDAY8mDGn8FgMFwQZvwZDAbDBWHGn8FgMFwQZvwZDAbDBWHGn8FgMFwQZvwZDAbDBWHGn8FgMFwQZvwZDAbDBZFl/BUqNygn8QJxBoPBYFyayDL+c2/5K3718NO49+7bkBI28vXfDAaDwZhuyDL+Z3Y+ibfe+Bi1XhnYdusVCD6PL2JgMBgMxvlHlvHvbihGWd4u7MqqhCIoAqHT8uWfDAaDwbDj1A1flZKsPm+DhTn+DAaDMa1xyvi7e2iAvm70yXg/JIPBYDAuXZwy/mqVCjD3wyzFGQwGgzE9ccr4N1ZXoV87G4lzwuCl0cDNgz0CymAwGNMRp97kxfNaJF77M1yzPAzuHEfxDmS/cD+2n2avTmQwGIzphHM3fGd/DZuWalC58x9468XH8NoLf8ORGukig8FgMKYNThn/sKT58OvOx+Fdh1BaUoSK06Vo7WVeP4PBYEw3nDL+IgoO7DF/BoPBmN44Zfx7e3oBDw3cpTiDwWAwpidOGf8+cx99ww1uKimBwWAwGNMSWcZfodJA4x+PRfPCgY5WtFmkCwwGg8GYlsgy/nNveRw/+/XPsTKkCUff/whVHLvJy2AwGNMZWc/5e4YkIEBtRGt9I7rYH/ZhMBiMaY8sz7+7oQTVNQ3M8DMYDMYMwakbvgwGg8GYCQD/H9pbtY35qCMcAAAAAElFTkSuQmCC;" parent="1" vertex="1">
                    <mxGeometry x="920" y="400" width="328.29" height="120" as="geometry"/>
                </mxCell>
                <mxCell id="BWnSw_Da8Bput0sx85Jr-53" value="" style="shape=image;verticalLabelPosition=bottom;labelBackgroundColor=default;verticalAlign=top;aspect=fixed;imageAspect=0;image=data:image/png,iVBORw0KGgoAAAANSUhEUgAAAnsAAACJCAYAAABU8f6sAAAAAXNSR0IArs4c6QAAAARnQU1BAACxjwv8YQUAAAAJcEhZcwAAEnQAABJ0Ad5mH3gAAEYASURBVHhe7d0HYBzVtTfw/8zuqq9678WSbEsucpEtdwwG24BpSaghCSQk5JEXwstLeXn50gu8BBISOgm9hhaKCwbce5clS1azZPUurfqWme/M7sheFVuzaxlLy/klg3dmr+7MvXPnzpm6QlZWlgzGGGOMMeaRRPVfxhhjjDHmgTjYY4wxxhjzYBzsMcYYY4x5MA72GGOMMcYmCFHvBZ0wvo9TeNQDGrIsw0Dhq1UW1ClsMpBlHfQ6CTaJnxVyB9ff52Oi1zP3f0zB/cGFuVT1J8u+iFt2O9aumIWoQAuOPPUDrC8bv21ZFxkZ+Uv18+cifboBD+eIKCmzoVkYvSCpUw34S54BN2Tq7cP1aQKqS22oP0d6hUwd3NolBvxPtg66RhuKBi59h+dOOSaixOsfxH+uC0TRzhPowTx8+cFfYV1MA3bm10GOuQH3/eJW+B3bgqoe18sly5FY9L0/4Gs3LIDu5BZUmtyrm4R1f8D3b4vD6S1H0aGhfiNmX4e8KQIaqpphHZZelsOx7P5HcOdNVyCoZjNKWmSapseMr/8V99x+PZJ6tyC/2qKmHl+ulmO86k+riKt+hR/eezuWX7luxJDUvw3HqgbUlOMr5prf4YF7brXPZ9mqq5G3aBEyE33RWVWKdjdmOdHr2VWfZ//nKf2as4QYHVaHA5XtMiwXuRzcn3J/OqrUL+HuOxbAeuwtbFi/BSXVreizjt/8J+Rl3PoaKx7db7EPL9VI6tSxSLDYBFhtgFmdcqm5V46Jp72jDQgIQqAyEhiKwIEeWIJC4C/TkU9wMALQDiWJeyRYzVZYLRZYPscDqciZq7EoNx0+6vhIA1QmGzJmTIOglFM3AxnpJnS0ql9PGJ9//ckDJ7D1ucfwxrBhS0GPmuLikHvy8SnN583nn8X6rQWQpqzDzV9fi3Bl/Vx0l6adavf59X+e0q85i4vVYW2iCH91/GLi/pQWjPvTEQLiE6hNlGL/u1twsqQEbf3jG2hemmCPKvF89djXLeNQo2QfTmrcfwgUtX+y14xvbrLggwly1O1OOSai7nYTJN9ABBhoJDwcxtrTaKROKohGvalz8uptR5ebB2aC0IIDT/8Af/j5b7GzZmKsNwcftFcXQZg+B8m0legyZyG1uxzVbhxtX0yXpP6s7agpOIKThUeHDNXUmV9UtnZU2+d7EMe3vYpX1xdAjJ+NzDD1e1e50JlP3Hbq8Hn2f57Sr10q3J9yfzoam03pP3XQ6x3j423MbJXLrj+Ll/HUURnLskWkeQlo77Th3Xwr9jqtqOnZBvwoWsbvNltQqp4ulaP0eGa+gE1bzXi726niKLIPou9+QvmlelN+7RLeybdgX6/rlSuH6fD3PB0CB+c5YMWfNllRMOyUrXI/S3CYHrdMEzHdKMDHJqOuRcLbRZTWjQh6vPNTBFFZbp0qIitQgBflV98q4V+FVhQ65afMNynRgNunCEj2o3SSjHbqfDcXWrChzfV0WkidbehGJozUG+lCQyG0nkJHdAyCaaO1BAYDnWV0LOqgXE4KyFiDq1YvRVpsMERzC+ryN2PTB9vQZHZavil34IffXgb/wfXWswuv/L/nUDFivRkQueBWrF05G9GBOvSc3oGNBeG4+bowbP3Db7FrWFkCZ92Or1+zENH+FpiqDuCzt/6FYjUIkcOuxrd/ch2iz8xjHb7353X2T7IsoeiVe/DW0bP5eTeWoyzjakxNEyFkZaO/8D10T1/oOCJ34j9lNVZReVNjgmGwdqKlbDe2/PsjVJjORhNKvRjTrsAVa5cjJToEXpSuuXwXtr6/HhWdI6OO85VDobX+lMsYX59bhH+/bcWc8+Wncb1pZS9vxmpcuXoJkqOpXvrb0VC6FZ++vxk1Ttu5nHobHrh3Bgpf/wh+S69DZqQXBlrLcOzDl7G1uA3ysPI4s/T0wIow6HTqBJWW9WFH24j/9K/gzuuWINZohen0QWx5600Utbpez5rbvaxD9ILbcdVlMxETaoRB6oOpvggHPnwJeyp61VTaaen/ZFnEd9bo4X3KBmOiiOheCY+fBG6Zo0NYnw1P7bHiuHq5SGt/r5W9n4zQ43bq17Kpn9RTv1ZeZ8OrRTZU29RldmH5tOSnGCzHP/KB5VkiEr1ktNF+5q1jEg72OdqB7Cfityv1SDxTV3r83zrHLlGZz8FDA/h7/dn5cn/K/enF7E8H+vrp+DMU3r400u+YNp40ntkTcFUqUFBqw4slErqNOtwzT48E2gDcI+KKFOAY5fdSsQ09gSK+TfnFu5Nfp4SnDzguK7xWd+5LCjqjHvcv0CGLqnNDgQUvlEroo47y/lxlY3d9vuOdnxygwwO5OmRKEv59zIoXKT9LqA7fn6tHlHO90Hy/PVNAiMmGVw5b8NhRCfupI7x5vgHzdG6k06K1DV20SQZQ5xQUEoyujlL09IYgiLbSIPqP3NGOTjWpGLMWt919HZKs+dj+9vPY8FkxDDPvwJ235jkuUwyq+wzvPf+4/fLfx/mDXdtIusR1+MqXFiO0cx+2vP0qdpQFIW8RNcZRZSI3z4CSza9g/cfHYI5fiRvvuBKhg/PtOoxPXnkWb7/8DPZU2iC3HcBG+qyMv0PT955yJBvk412JopMGpE1djikZNpQcb4L3sOsUctQa3HrXDUiyHMWOt17A+k+PwZpGy3yn03yJGH0VvvLNLyFVPoE9772Ajz45DHPSOtx817WIGtFexiiHQmP9OWRi/kK9mt/RUfPTvN40EqPX4Ja7r0eiJR+73n0BG7YXQTftK7jtjpUIHJGfD6atWAzL0ffw4TsfotSShiVfuwe54erXgwQRBl8/ePkEIDBhPlZfMQc4vQeFTer3ROv6cJiC+Ut8Ufrpq1Qvh9EfexluvHMtIpzXh8Z61lx/0Wtxw02LEFi/BRtfeQL/euM9nLBk4Iqv34FMg+v1rLX/UyQFyth+UkJ7kA53Uf/7abGETurLr6MAa6jx6+9F+lt7v2aT8N5xK14qk+Adq8ePcyhAHZafluVzJT+lHJcnyzhcQuko3wHK99554tn+dEDGG4eseOKgBZvaZMi9NrxMn5XxJ2n6RufVzf0p96dnXJz+VLJaINEBx8U6s6ct2KOjor2HrfioWsLOCisepo0QRhE57t7g4CPjwBErNlB+O+ho7mHaEEEB3xw38hOsMo6rlxRKznNJITFeRIpMG+peCzbWyNhNjfPh4zZYab4LAtRELhjv/Py9gfLTVjy2z4pPqNPeRfXyV+povUIEzKbvBol0NBtDBwa7KUjeXk9Hn/U2vLbfip/vsaHUqQ1pTadJdwe6JCMCqGwhIUEwtZXD1BmMwFADjIH+6DW1QVKPgOJyFyPacgQb/vEq9h3ch/xtr+D1jSfglbUc2U6HcEJvHcrVy39Vbee+ZhGRNROh1gJ88o/Xsf/QPhz75B/YeKxv9Ibr24OC157H7gPKfF/Em1tOQZcwE1PU9SGY61FxdD8KaahTjhL761F6ZJ99vPDoAdR0Dj3i8vIyoCz/OPxnr8E0XT6KT/nB22ldKHyNVtTsfx1v/+NNatP7cXz7G3hz80nok2Yj3agmIlFzFyHORvXyzCvYe3A/Cna+hdfe2w9b7AJkxaiJBo1RDoXW+rPz7ULhay+o+b1E+VWMyE/renPQQW8PunzPDl56iE6dWNS8PMRQfhtpve2j8ir5vbapCIb0PGQp16uG8EP7/ifw0dZdKDy4GR8+9yGq9WmYNiNU/d5BMC7F7b99FD/57SO4//v3YI7fMXzw8ga0Oh19a10fdv69KHr9Beyx1wst38YiIDYHU51mq7WetdafGB2PMLER+Rs+xLF8yvfoVmz+x2/x5NMfgLoRl2nt/xRtLRRMVVlxqBtoabZiW5UNh+hvQn2Htvvx7O/TEnVIosDsZep7Pq6h/r7ChkcoP99oEXnDtiUty+dKfoPlWK/sZyjdo3QArQsSMdPL8bVgk1FQL2EvDRXKmRSLjGN1Nvu4MpQ5XVHh/pT70zPGsT8V9T72/tPXGIus7GToeqpQ6/b9muenLdgzy6h2euKtu1uGiY6agpXTje6g/Gqc8uvqUvIDgs99d+cFi1Q6jD6g0qpOIJYGK7673oy3lZm7aLzz622lo+hCCXQwDR+9AF8abGblZmsBAWrnpJBoo6qWBSyfoceaBAFTjTK8rRKqaXqndHbj0ppOE6kVJhMtR1A4HXnS37f3obOTjqSDI2gcMHW0qAlpn6BMaK1Hq3g2GLA2NaJbCAMld5kxkLYMUwOandpLU2P96Ldb9dWiafCQmHQ2NcMCf/g7bYSu0Bu8YC3eg0N0JN68ey+q4Q2KaYboL9uMje9tQbVND4NaXluPyT5fX6f5hoSGAe11aHQqh/X4P/Gnn/wcW+rVCYPGuRzoq0eTU5vsbGoZkZ8r603wX4hb7EHX2eHHv7kH09TvFSEhFDF11KPZ6WmB3voGdCMU1IyG6UZzvVOBTWU4VVkPizg0OpN7jmLjk3/Gi08+gjf+9RHKhTm49mvXI8bpzIrW9WE3rF56G5TlC4J/sDrBBVrrT6qrQpMUjZwbb0Ve7mwkxYTAYKH2VVOPHvVS5cVilZQzfyKUmFy5dOqYRutz+JmQcezvw7yVflJGvSDa+zRlsFJ+nZRf5LD1oWX5XMlveDlaKIhUmmPg8KBQA+5PuT89Yxz702m3PWLvP//7F7/CjdP6sOPF11DudDvCeNIW7NGGNKQxKBsj/eP+Io2Wn0AbtTp+EYhKSdXlHqTc1CzRhjp4FOWKcc/PV8QdCw148mpvPLXGC08qwzwdnOI8h24Jjx2woVwnYt1MA366wgdPXOWFe5MEOpB1Whqt6TRpoSNPIMA4BcHBbTC1UgPv7KYj0TQ6OpXR5fRIlUidsBB/De51DgbuXUm7UD1oUVxnr8uRyzt6CWQou4uzZHs66qPdotMbIFgL8ckTD+LVT8sh6akMw/ISQufiym//Dj/+w+P46WB578gdsd5EtcE4L7eyE5Nskv3+jqHGtxxa8nNlvcmWInxmD7rODi898x6cr9rYyytLQ+dL4/SNY9sZgurAKaEgVGLb47/AK5+dVqeobJ1oKC1CZdkJnNz3Ht58+TP0xK1CXtbZPYbW9TFoSDuyL4RAdeEYdYXm+mvahLdeXI9awwwsvem7+Np/PYQf/fIXuGFxMvQub5cXy/j191QtEIL0+N1gn6YMi/UU8rtXz67lN6wc7hRgEPenhPtTh/HrT09t+ou9/3z5ueextyEMeetWDb2NZBxpbC5KKOaERpTNyLmNS/aSDkunjg+tGMVo+SlTLx77QSPNxJ3tYzTjmZ/SOFfO0uPyABkbjlrx0G4zHlSGEzY6YhhKadBNTTb8fZcF31k/gP/absHbbUButh6rnY4stKbTQhBM6DRZ4R+YiqCADnTQUU2HqR3G0FQYfbvpyPTs6U2Jdphy43b8a3gw8NQT2FujJnJBb28v4BeIAKeKVo5Ox2s9npeyZ3GmbMDqR4UsB2Lel+9CbkQD9rzxd7w8WN4NhXA64WsnKQ2G/v5zWW43uLTe5C4024OuYqehDr1OBzmjltdenxQAjuwQ3GKrPIUGyQshESH2cVfWxyDn9elYvqE7EK201p8g2NBe+G+89fef4cGffh9//evfsbXCF1nX3Ym8SDXRJTd2f6+VEj/LXVY8PtinqcNDe6zY6HS2Ravxzk8r7k/HgX37ckLjX/T+tLfxpL3/rCjchc07iyDEzUamozsbd9rqyktAgtOp74AAwf4ETYdyn4OqsY8qX0nnFILHBoow0OTm4feSULp4p/yMRiU/GR196gQnZuUt1tQiLnSlNilPYPkKSHI6bayP0uHJawz4Ch1NucrV/MYqRyJVaHu9hPfrJBS2yjhBQyVFesMeNIQvbaVzIwQYqecVKEhs6ZTwUYlkf0F1pJ+aiGhNp1VXRye8QhMQ0t+KDho3t7dDH5eEQKENXU73s3Z1Uo/rLaGn/GwwcKqhBzqDo6N2VVNFBfp8c7Ds6hxEUKcUlLICK+fGjnIA4Rp7Z0ErZMhOzWWxiIo1wFSwETuOHEeFWt6GHnnEem5vpz1DCKV3ave67Lvxo//7HS6Pd739jbfxXm/tba1AcDQilNdLqPyioxEAaj/N6oQLJMbGI0KUqG0ONkDt68PONwaRTvfPOJavE91j3Z89Cq315xU1DZlTE+GnbJdSHzqrj2HXpwfRIYQjeMTl7UtEQ38/aKx+rXWAvqc+sr1NsvdpylDYRW1fdC94HO/8BqndwTn7A+5Pz4/706HcWW/K2cpzbUfjQVveZgEL5+ixNkHEkhQ9HphKf2aScNgpiGujIOWEJOKGXD2uihexbIoe96UJ6Kiz4dDwwlkELKb81lC6pSk6PJA5Mr9BzbQldIkCVk7TY14UbXDKEHr21HlQkDqNhgzlBmKqsLRonWNauGDvVBWnayRU0pHA7QsNWB0vYFESzXeGDoYuCfuos3CVq/mNVY5TnTJC43X4RqoOC2JEXJ6ux/eShRFn9qx+Iu5aoMf9NK88ymNejA63ThcRaZNQQe1rkNZ0WrV3UgGiYhDR0QbazJQJ6ImKRqjUiQ6lt1LV7t+FhoDFuPbOGzB39nxk5a7Gum/+ELfelIvAs0+mwz9hJjKz6CiGhqRQ2gL0IYjPznFMy4iFj1ovloK38dH+ZkQs/y7u/X9/xn1fX4C2kvIL7FSAlqYmyJGzkbd4IbJm59KQjQgfVzuJGtRWDyBozs24+rIlmD5rIeatuhtfXhg94ki08eBu1OlmY/W3bsfCebnIXnwTbr0+F/r6/SioVRO5QGv9aaV1vWnVeGgP6g1zsPrumzF/bi5mLr8NN6+eBkvpHhQ63e/iEl0IEuxlnEv1dyNu/voqhJsO4HDhYG1rXx92A6GYedvXkEfrY+by23ErLR/qj6HY3sAdtNaz1vqTwinN3Q/gKzdegazs2Zg66zKsunohgi2VqHPjTI3W/s8lGvr7QWP1a+WnbTjtpcPdc/VYSf3awgQdvrXAgAdmiQh1Y9HGO79BdRRQwF/E2mQdFir5xgiI15/NkPvT8+P+dCh3+lODny+th370j3LSazyM+XNpYRE6LAuQ8PpJYOFUHVZQQ5eUx8+PWnGCgrZBylNhx+hgPjKCOohEHWbToWBDrQ1PnbChzX6J18GeX6CEt0uAPOoglkeKsI2S3yCJNsLTVAW5SSJWUr4LKSDKDZKxo4qiZjqqysk24D5argVxOsww0pGFTsA0+qyMK69uOFohoY3SSQMSjrYLiA4XkUcdxLwwAQN0dPgczbdklPmOxdX8zlcO5bVjp+gI1RAoIpcC4LxoOlqEjHcqgbnU6ZyqtKFIfTePrduGMpuI7DgRy5V8KG04HV1/dtyG9cr7haisrqTTyhKUhcVzkyBVbsP2gkaaEIlpq3IQ2lWM/Vvz0anmJ3eV4WQ1EDNjCebmLURmaizE+j3Y+NpbKFc6VFXG9b/El1cvRHZOLtKiqJHrI5BMn5XxrDSgdPtxmChPQehHc+F27Nt7EMX5O7Bjw0co9Z2HFTN8cWrndlT3OeYblHkFZse2IH/LsbM/ixM5B0tmB6N2zxZUdg8tb09tLeTY2Zi9cClm5czDtBlJ6DsymM4PSQsvR0LvIew67nS3r5iEmVfMglC8yf7zPoJgRn15NfQx0zF9DpUlOwMhUjG27u3C1BmhqHOar9xdjpIqM0LT52PG/IWYlhIKc+UWfPTGh1QGexI7reXQWn9a89O63vynXIZ5ySYUfnpoyFOwwynlLaMdc3jmfMym8mbGG9F98iO8/69P0eL8IELIDOTNj0HLwY9RRtvTuRgzLsfcjFSkKuWbPQcZSeGQGw9g86uvo7jTcTTpyvqw10vMCXy22YrsNWswZ1oMpNo92PD6O6hyo51qrT9bUxFqzdFUjiXIWbAY2ZSJEugdeucV7KnpdXm71NL/tdIx/bx0ET4tNuzsEDCVDkzDqc52UVChfE7pl7BJfX2N1v5+0Fj9s0z95BGaZzIFUCtoXnOpnxTpgPiVwxLyzzy8I2hePm35De5ngF3ljrNvdgEi1sUJKHfqTwd1Up8oUeC8hPJcQmWYR/1uT43r/a5W3J8S7k+H8EldjryMfhRt3IdGp5hpvAhZWVmjz1llfzllnIwHP7agaLBwjF1Cutzv4X++7IePf/VH7BvW6TDG3Mf9/RcP96cTg5B1F3709SxUvvc3rD/SgN6+PtjGMejTdhmX5sdNgF0qutD0M6fYM2atwOpFGZBbK3DajcvvjLExcH/v0bg/nZikgvex/lA3kq/7H9z/q9/jqjT1i3Gi7cxevIyHNllwgo/02CVgXP5j/ODaKfbPkrUXprrj2P3uyzhYPcod44wxt3F/7/m4P524lDdzeAVGIzzCHwN1pWhz86dXRzNmsMcYY4wxxiYvbZdxGWOMMcbYpMTBHmOMMcaYB+NgjzHGGGPMg3GwxxhjjDHmwTjYY4wxxhjzYBzsMcYYY4x5MA72GGOMMcY8GAd7jDHGGGMejIM9xhhjjDEPxsEeY4wxxpgH42CPMcYYY8yDcbA3icmyDJ3IP23MGGOMsXMTsrKyJnW0oAQ8oZkyrr5CRmYM4Evha0edgL0fA5+WCJAF4Uw6YypwwxoZU2JkePUDtScF/PtDAdX9jjSTiVKey/9DwrXxwMePi9hQM3YZ5FkSHr5NxsaHRGxunXxlZowxxpjrJv2ZPeMMGd+/iwI4C7BtvYBX3hNw1CRj1d0yrqPg7owwGV+/S0IGffyM0ry7S4AX/e23b6Y8KHCafGRYLAKsNFgkdRJjjDHG2DCTOtiTBQlXXiNDf0LAn54W8ckeEUcOiPjgRRGvFwKLL5fhqwZykXNkpFFpP/ingG2HROzfKuLZzwD/6RJm+tqTTCqCIGLHMyL++xdU7jo+S8cYY4yx0ekiIyN/qX6efKJlXH8ZcOxfIo6b1Mu1ggwdfWz1kXHlHAElWwW0CQIS5wDz/AV8QuOd6qXdfkqzPIfSFlA6+ntZJ+Hrv5JwYzAFhEWUYPASMOV5y88lfDkE2HpSnUZBZGA6cMttEm6+jua1VEZGKFBTAXTbHGkUcoqEX/9UQnArzf9mCbdfK2PJbMC3DShvoQSD89CaboqE3/5YwnVXAqtXybhqsYzKLVQG9ftByvLFLpBw1x0yblwjY24y0EB5zZ8OlO0SUNHnWjkYY4wxNjlN7su4Qcr/BTQ3OIKW+CUSfv5rCX/6tYwvx1CwopfhrSYV7Q8yyBhyxVOiAI/+ORMnWQUcKwECp8twvgIsUiA2PQA4fvxs8CPGyPj2XRLSLAI2vSPgbQoivWbK+I9bZASoZxPPEjCbglLzURFvvifghIWCqq9KWBaufn2GhnR1wCsvinj2BQH/Pn7uy8/6VBl33wSEtQv48G0BW6tkrFwgw6Z+P8i1cjDGGGNsspncwZ7eUQDzAP3HQIHRahmdW0X87DcCCn0B47CzXWMRKH1BvgBzIDAzRZ1IkrMpAOymQPCUOoEkzZMRRwHS28+pl4W3iXhmkwCfLBlz6e+HktGyH3hzm4BDB0W88byAUwZgFuU71NjphF4RxYW0nDSUn+chi8QZMsL6Hcu344iIfZ/q8GGJAMpuCNfKwRhjjLHJZnIHe85CgAiDgJJ8oM9MgVmREjq5znJCQLFZRvYMx7hyxnDmNMBE08udTgsGB9F/2oAmqkEfH9k+2JooHU0OG3HGDmiodwrMKNHJSgGWUWpfa7qxBCmBWgdQb3aMKxoa5BF14mo5GGOMMTa5eE6wp1MugsqQ1IBMkh2XaF1mAfJLBYROl5GoXMaMlZEVKuDEcQr8nM4UClRzQhzwk1/L+OPg8B17zAkdLctwslOgqDxcsekJEU9sGXlmTmu6sdgXlRbfuQ4kew0N5Wo5GGOMMTa5eE6wZw9sBIhqgKI3UBDj+GgnScoYfe8YdRCVv6C/c4qAlEu5+fkyzKEyZiUAMTOBiF7gaKmaQKUEZXIj8PzTAh5zGh5/RsTWGjXRJWQvExXOuQ5Eew0NNdHLwRhjjLEL4znBXidgoghn+hwZoUYZi7KHnsNq7aDxQBnRTq9ZCYoSoIy2KU+7OjEXCiixANOmy5iRKaOnCCh1OuOm6KD5KU9/mMrpuzLBPpQ0ADq9POTs3KXSqVyHDaZg1csxroiOFkYEexO9HIwxxhi7MJM72LM4ni71Uh657ROwbZ+A2Mtk/Px/JUxtFdBqT+TQdERABcV713xDed2KhNzlEu5eSYHcCQHH+tREg8wCjpdScJQN5MQBJ44LkIY97FF1UEBtgIxbvgosniUjZ76E2+6ScM+NFGMNf+R1HBnjZWRnOYa0MCqQDkii5bRPy5DOvFfwNC1zm4+MG6m8S6m8Cy634foZw55GJpeqHIwxxhj7fEzu9+xRqDp/kYz+YgEnOwU0FQF7jgPHdonYWkiBTDkFMu0UEyqBWi9QVAVEZtLfzKfAiIK4Dgr0lF/caLEODeSUS7mtemD5AhlB/QLWvyOgWR6aRu4CCmqABAqy8hbKmJlGi1Mv4J3XBRT1OKUNkXHZPKCRgqqijqF5DKExXdZ1Eu66EpgzG5gaJUCg5Uynz8p4TipQuENABy2/ROWu6JKRPA2YR9/FiVSOwwLmTh32nj2t5WCMMcbYpDSpfxtXliVc898yFrcJePA5AZ3DAjLGGGOMsS+6SX1mTzkDV90E5FwuY8U0wMsLMBrp336g08yBH2OMMcbY5L6MS6xtAg6VUJCXIGPOHBm582T41wg42sjBHmOMMcbYpL6MyxhjjDHGzs9zXr3CGGOMMcZG4GCPMcYYY8yDcbDHGGOMMebBONhjjDHGGPNgHOwxxhhjjHkwDvYYY4wxxjwYB3uMMcYYYx6Mgz3GGGOMMQ/GwR5jjDHGmAfjYI8xxhhjzIN5ZLCni8/D9V+6GrPCz/9LcFrTjRdZFiAKk//X6bgcF8ZT6o8xxtjk4HHBnizrkZAcDX1XFU41qxNHMVY6Y8J0ZKdFwCCPvlMOm7kGX7p2LiLO8f1wsuyPjJXX4cYbrkRW0OTd0Y9XOVytv7HWh6su1frwlHZwMckJC3HTl65Apj/XD2OMjQfPO7Pnm4SUSB3aKythEgR14ijGSBccNxVTU8LhpY5fOBmSzUaDDJs6ZXK6NOXwnPXhKe2AMcbYZOFxwV5AUgrC0Iqqqi51yui0phsvgtCL8u0f4J1/f4LizvMEoRMcl+PCeEr9McYYmzyErKwsj7lWIstGzLjqKmT0HsIHOypgOceZvXOlk/0zsWrNDISM8neyLKFm31vYW+34TrkMeVlSEw4csSF1RhKCvW3oaatGwcHjqOuV7GkUckQO1i1Pg8/gPAZOYfu/D6Bp2DxkWURQSg5yMmMQ7O8DvWxGn6kJpccOobTFoqbSRpe8BDfM6MP29w+iEXHIu3ERwk5tw0dHmyFHzsW6RQYcfHcP6mkZZFmGb9Q0zMpOQVSQL0RrD9pqTuJo/imYbGeX0ZVyBFI55k6NRbCviP62chytCcDiHH8UrP8EJ3sd6bXUnyvrQ6tLsT4UWuertV1pNZjfvgNmpM5OQaiPjL52yu9QPmq6ndqpLFA7yMDs7GSEB/pBZ+lFZ1M58o+Wos1ydhkjcq7G8thabPnwCFoHyxKTixsWB6Nk0yac6HJM07x9yDqq59n29hLkA/S0lOJITTCWzwtAwYbNONkztH4YY4y5ThcZGflL9fPkFz4N86cGobngIKq6zhPDniudZEaPqRUNNTXo8YlFmFSDI4eLUEXjtbU1aGgxoc/q2Pn4RaUjJdgX/n4DqCkrQ02bjNCENKRFWXG6ouVsoGnpQUdrI2pOn0abEI5o/x5UnaxDz7CdPIKmYvmSKfBqKUZhURkq69thCUpCdnow2suq0U07Y60kXQhSpxhhKq1Cu288piUFwgATKirboI9OR5Z/Gwormh3LGDgVl12WjaCeKhSdKEdth4Tw1Gykh/SgsroDNhfLIYZmYcXiKfAxVeDEiVNoHghFako4/L2taCqtQKsaOGiqPxfWh2aXYH3YaZzvYL34+fWr9WKjepkysl1p5MjPD/4BZtRSftVtFgTGTUF6NFBT3gSzmp9I5V2xIhtGagcniypQ1ykhLHk60iMGcJrajVVN5x+TgWRjFypLGtA3uCzGOExL9EFreTmazY5pWsuhi5iJFYtS4d1B7aWoEi3mcKQmB8HPV0Zz2dn2whhjzH0ecxlXOTMRlZwAv4E6nKo995mX86UTbF1oqq5GNQ3tfRQEWjrRQDtnZby6ugZtfcN2PN4WVO0/gJKqalSVHsLu4jaIIbGI9la/J4KF8qyvRz0NLd3nuUsrMBhGoQtVx4tRWUPpqytwfNen2LStEO2unnvt7EI3aAfvT58DjTA0NVDQZ0SgMhrgD2u38r1DWEoKgm21OLzzKMpOK+U4ip0FjTDEpSHRV01EtJbDGBsDo9RAy34M5ZRf5cn9OFJjxqi77DHqz+X1ocElWR9E83wV3mac3n9QrZcj2FXcOqJducSbAja1nk+r61cOjkFsgPo9CU5MsreDIzuPnWkHOwqb6GgwGfFO7cAlGsoREheLAAvN16m95NdTEKh+zxhj7MJ5zj17umikxvugr/oUGs93tUtrOi0GTOjsUz+Tnq5u2GCAjzs75Y52mORApM6ZjfTkGIQH+kBv6UUXBW79kotBjcUEU78//ANF+BoD0N9RC5NAwZ5OhNHoh+7OTgjqmRU/P9qT95jQLRig1+vtg9RlQj8FiwFOwYBWvr4+QK8JXU5xtKmrC6PGR+NZf+NtPNeHq4bVS29Xz4XVy7D8zPb16wtfP3UC8fenEVpvJqs6gZhNnfZ24OdGO7DTUA5fX0f763SabyctnxvxNGOMsXPwmGDPkJCCGEM3Tlc1QR68vDQKrem0kUfslJRxt3ZUXSXYvbsIbRSMTp+7GJdddS2uW7cKC9KCoHP5dSOd6O4W7DvwwEBvdJuaaNwfAUFG+PvJ6KKgapCg/C8kC1fdcANuGBwuy6BdvEgBoZrIBUp+EGRoi6PHsf7G27iuD9eNd70M+VtafmXVOq9ee/BP00emU94JqI67YaxyOLIenooxxth48ohgT5a9kJQUDV3HaZxqUyeOQmu6S0EQJPTWn8CeLZvw3jvv4aNPdqCg1YD42fMxxagm0kgQLOjsGoB/QCiMAVaYTDRQ8Gc0BtF4F0wdTjfIK//rKMOerVux1WnYtm0PStrVRC4wD5gBL1/4qOMKXx+fIYHFZDCe62MiGFL/FNjZ17tTjKU8qKNMHy2d5JxOaTpKUsfoGcq4OyGb428mW+tgjLHJxTPO7PknITlCQGtVJbrPdzpKazpi3/l9jjshvTESMVFB8FLOpshW9LY34GRRNS2nPwVoaiIXdJm64eUfjVAvEzp7lEupfQiIjII/utFF44N6e/soOJPR39KE5uZm+9BEgaKgo/K7sffubGnDgFccsmbGwkhBnl94KmYkBboVCDib7OvjkvIORJDTfXdexkAKxvvR53SJtauHGoVfIAKdbpbzClTS9aL37IlgdPf2Aj5BCHS6FGsMDoRO6oWShav6lIXwp+XTqxNIEC0fh3+MMTZ+PCLYC0xOQojcjMqq8+9ttKZTKPeZITAWU9MSkZCQQEMUAvWuhyw+IdGIiYmxD+EBtCcV/RAaG+uYFmmE3h7EAFJAMuYvXY7FOVOQEBuD2HgKkmYkwWhrR2uHPYlLeru6YaGAJVIyQXmToJnGDVFRCOg2wenEHlpPnUKHdyrmLsxGakI8EpIzMH/xZVg6JwG+TsXVWg5r3XEcOdUNY+ZirL72WqzJS4KpsdX+3YWY7OtD63wvigEvJObOR0ZSAhLTZ2NJdhSEjjrUOQVxpqoqdOjikLNkJtIS45GkpMuKgq2pEjVOQaFyr2uTLQJZi3OQnpiA5Mz5yMsMRm91OerGeO5kNO01degxxGH2YmW+CUjKzMXseP0FHxwwxhg7a9K/ekWWQ5A5dzqC2wpx8FQnpHOcsdOablB/eyfk4Dgkp6YimXaScXHBGKga/moJx+szegfzGuUVFDGzr8SiGclITExEdJABgi4AUfRZGU+IlFGvvsJC6mpEm9VI36UgJSUFibFhCKDAouzwYZxst2DwgQrNJCPip8XBt6UM+TUUKEkBSMyKh29rOY5Xm6BcorMbaEF9GxASn4LU1CTEhgdCNFXhyL4CNJodSRRayyEIVnTWnULZqWrUUgBwoqAYDV7xyIozjPLqlbHrb9BY60OrS7U+tM7X1XoZiz2/wEbkF1po/U9DWmwg5M5KHDlQCOfXBcoDbdQOJARFUwCXnIyYEG8MNBZh/8EydDk9kCJYO1DXbEZAdCKSUpIQEySiqzofB47VoM/pdTRayyH1tqC53wcRMRSIJsYgRGxGQaUNiTFeaOJXrzDG2LiY9C9VFiJmY+3yJDTv+gD768/9WIDWdGz8icmLceM8Lxx9/zOUuRissAsz+HLjbe8fRLOLASpjjDHPMKkv4yrvzItOSYBvfw1ONZz7GpLWdGx8iH7hZy5ZxsSnIictAuhqQfOAmoAxxhhjnxuP+rk0NjH4pF+Ga2eH2z/LNjN6O+tRfPgwKtqdXqbGPhd8Zo8xxhgHe4wxxhhjHsxjXqrMGGOMMcZG4mCPMcYYY8yDcbDHGGOMMebBONhjjDHGGPNg/IAGY4xNQkFBQeqnz1dnZ6f6iU0E490OeP16Jj6zxxhjjDHmwTjYY4wxxhjzYBzsMcYYY4x5MA72GGOMMcY8GAd7jDHGGGMejIM9xhi7hGRDGBLTYmGQz74YQfZLRHJSCHRO0y4GWdTRToBfyPBFwev7i0sXGRn5S/Uzu8hk6rgNFF5L4B+kZ+NHlgV46WVI9C+bPGTZBzF5t+G2u7+BJbGt2L+/HBZBXYehy3Hr/fdiaWYQOk8VoblXckx34uPjo35yjSzrEZo2BwsXzkNOdhq8W0rQ0Ku97QwMDKif2ETgSjuIn7cOl8/PRHKUP8ztTegcGBn48fr1TPyevWHSpxvws3gZD22y4MRgxztM6lQDfpF+9qSobLXhb+stOHSO9Aplh7x2iR43BwEf7DTjbdPnv2OWY/R4fq6Adz8z430XOndXXKz6m+gycpNxjbEd//ikA53DyjHv1jw8P60RN/68HCcRgb88MQNLjxZg3tPNkBNSsP7nEdjwi334e73r5ZdlX9z9k/l4IKkfTz+0D49WuleHOTfn4aUFbfjWD4qxR8N6OF95FXJuFvK/GQnd8O96avGd7xdjp4vr2r58V/iqY4C1fwB1de14791SPFtkhuRifp8HRx344Yn/3Y8nm4YunywbELfqAXx1VThqt7yOjVsPo6X/bFcsyyL84nKx7KabMT/sNDY+8SgONtrUbx3cfb+aHDoTa5anYODUMRTXdqGzowW9Fu31dzHfw5YQo0Oet4SPTknomYDrdCzKevNKXInU3AUIDguEONAOU9V2VO7ahR6nOlbSeadchZT58xGipDN3oOv0XlTt/hSmXtd2ya60Ay9jOIKNwUjKzka8VIJPNxfCNKye+T17nkmcPn06hg/s/OprrHh0v8U+vFQz8oh7dBIsNgEU18CsTvmicq/+JrYpc5Jx1+IQBKvjzmpa+6lH9kKUMhLsg6gBC/pDfBCuXKIL8UY4+lHfYk/qBhlmswSzRcLA51iV5yuvXXEVfvD4cdz/WAX2D8hoPVpKn/Nx/7M1OKEmcVlvC/6m5EHDj16twm5bCO67Pwf3JU2+u1F0ydfj+ivj0bDxEby64eCQQE8hCBL66vZi45N/xR5TJlZ95UqEjtMlXe/gQPiiGeX5p1Df3OpSoHexxcXqsDZRhL86PtmI0dcg+5qrYOzPR9XWN1FWUAVD+peRffl86J3Wnxh3PWauuRzG3iOo/OwVlB4qgBy/BtnrVsNfGJ/1PBpzVwua6spw/FQ7YAxE4OSLp5mbxBMnTsB5YIS2tfNtbn3dMg41SvbhZI86cQwCHT19steMb26y4INLcFbvc3UR6m8ya+oww+rrhQgDjUT6IPJ0F04GeyOWRo2hXvDvGUCDm0cAgtCPlx/ZiTnfP4inTk+cdiWYuvHZ0RZsPmJCMwWh/S2d+ITGPynoQZu7Z2xsA8g/0mzP5+M9NfjNX4qxodcft60KUxNMDrKsw7TlyxDWthMfb60971lJwVKJrev3YCDxMuSmjU9QK0nK1ilAnHwx8oSmnK0Lm70E/h1bUbj+fTSUHELzoddQuP8UDGl5CD97Yhoh03Ph070LxfZ0R9B87D0Ubj0EW9gCRNqPCi8u0b7ylVs/HOPM8036zV25bPj8lXrkRerw45UGPL3aCw/m6bDQf2grnp5N6a7QI93p6EqO0uPpawy4KWBYi6c0QfTdT5T81lB+C/VY4OfeViGH6fC3a7zwwrXe9uH5K3XIHuUIXbmfLyhUh28vNuCvVIanVhnwixxK6+PmfCm/hAQd/tdeBgP+kEs7GD1NV78fpKQLCdfhP5YY8CiV9akrDPjZLB2mGIamvGT1p+RFy/ddWr7HKa+nrzTgx9kiEnTu5icifUkGXvzdEux/bCk2/FcqVqzMwrGn5+Jb4U5lo/lGTEvCn/4nD7sfW4EDDy/AP++IRqaXU5rIRLz99GUoeGYlHppLm1JCKj569nL7eMHTK/BIriOtrXUAraBgLwQwhHtDbDahTu+NOPqT2CAfoH0ANfaU2uarkKemY4c6b/vwl0wscVo3g7SWd1DU/Ay8/MdlOPi3xfjgB1OwKvxsIKK1vK5QLs8WPJyJ6+eln3O+5zTQgYI6IID2ovazpES5XSJyWiL+/NMF2Pa3Zdj30AK8+I14zB7WRvPuWISCB9OR41Rn8uxpOPD0Avxn7NlpWpdPqefMpVR3v1+CA39fgvf/MwkLvOVzHPRkICXNG10nj6Celncs1pNHUTEQjJTMBHXKhbFarfRfAwzUH7hLDtXjr7Tt3x4r4jvLDHiKts2/LNfjpggKIp3rlD6Ptf3KfiJ+o/aR98YKEIL0+L91Po7+kqbfF3M2rdZ+SOvyDe4/lkbr8b+X0/JRX/nHhTrM89XQ/kbwgbluO04fOIQ+p/VqbmuEFUHwMaoTiCzTEZC1Hzbns/HmASX8gvLVcIExevyZyvDUCj2y3ez7nHkZ6MjTYqHlYl8Ukz7YcxBwVSpQUGrDiyUSuo063DNPjwSnjdo1Iq5IAY5Rfi8V29ATKOLblF+8O/l1Snj6gOOy5Wt1577OpjPqcf8CHbJoc99QYMELpRL6KFC8P1ePRDdO6xvC9PhPCtoieiW8ecyGjW3A2mQBQ+/6UedLgWAG9TofHrfi5QoJ+igdfjhXj7AJUH8ircsHaPkyafneo+V7qUyCd6weP6ZAONCN/PQpyfjLV2OR0N6Av718Es8We+GrK0be8yLGJeGJ76VgnrkZT758Ar+nCvSZOw3/+GbU2XrpaMEjzxbiR88U2JcLLQ14kD4r4z+i6S+UOpKhpR+N8LYHe3GhPmhu60Bzrw9igkGDF+T2PtSqSTXNV1Fdi/+xXybNx58O9asTR9JaXjshGLctE7H1g2L89oNm9CUn4MF7EpDsanldRfO9damALeea77mIvogNpX1kZz+oedvp4hLx9++lIsfcin+8WoQ/fNIGw8x0PPmtOMS40V7sNCyfV0YqHr0jFrGt9fjrKyV4odwX31gWMGJ7s9OFwuhLXQPVpyZSM0ydgDGYGtA4kGlbkmgbFXXqBLcJmJeuw0CNDc/TtnlMEnDtPB1WOV2D1bT9Dsh445AVTxy0YFMbBci9NrxMn5XxJ2n6xnZHMteNvXwOAi5PlnG4hJbvpISBIB3unSciysX2Igi9MB3/EKfLGtQpDn4xidBLrejtUCeQjvwd6A5cjNR5U6Cn/l0ImI6UJbnQ1W5DQ6OayIm3j4BAWl/e3tQO3IlDh7Gf2aN1Mmr7ZB7JM4I9Lxl7D1vxUbWEnRVWPFxMOyKjiBx3b/zwkXHgiBUbKL8dp2x4mDoAUMAyx438BKuM4+oly5LzXLJMjBeRItvwyl4LNtbI2F1J8z1ug5XmuyBATeSC1GgREVYJL1Og+QkFmdvKbPgXdSLKlURnynyTJEq334qPa6i8FTb8+aQMr3ARuU6XHVwyjvWXlqhDEnVKzsv3CK1fXypfHnV8rkrPCUeStRWP/L0UL+1pwtsfFeNB2qEM3+/NWhqLqZZm/P7RUrxI6d79uBT3vdcK/1lxuFqNlQRzL3bub8J6Go4r9zT39WL7vkb7+Pr9zTjarvbKpgE0SwaEB4tICPNGQ6sJje3eiKY6jgo2oK3TDKt6KU/LfBVCTy92KJdFaTjUQvV7DlrLa+dnxfrnivHsria893EJ7t9ggldyGJaqZyQ0l9dVfmZs+OdJ/EOd7/fXdwyZ7xlURz5+egT46hAUEoCrb56Km8It+PRA+5lLodPyojGd6u+Pf1Pqr5nyK8V336eAeVoMVlNg6BYNyzdzbgTi+pX5luFltZ7/Ukg7Z/X7IbwMtIOnfa1N63kVK6WlwN3gRoNXKa/c0Ov1MHgbERcbAnGgA3SMccGaTpvxHB0g7qFt85/7JJRREJFL2+YgLduvYJNRUC9hLw0VynGLRcaxOpt9XBnK+t1sV2Ss5bNT9x/rlf6Klu9ROtDWBYmY6aV+fwFkv1wkz4iFpXQnWp1u1ZCbN6Dw/R0QZv0Hcu/8X8y//ZsI716P/I+2on+Uy/pNFWb84FMLfkjDHqv79THI1NYOm08oYqMC4E3tQq/nV7J4uiEPaExaZhnVTk+Ld3fLMNHRWrC7wQrlV+OUX1eXkp/93vqLJlK5bECdb6VT/29psOK765Und9UJLgix5yfjtFN+NV3SiM3ZMV+qP6d0XZROmWWEn2PcZeNYf2HejuWrF0T40h5SGay0fjtp/Ua6EQRHBVIP3tGDcqcd3cn6bgwPl6KDaE/U0otTOkdwoQzmhl60CL5IiFYTaSX1o7FTQDjlSftZ1LdY0UCBUVSYL6JovLH17MKM63yJ1vLa9XajbPAUGaml+fbT4UFIoDrhYuntRanTWY+6xv7R5xsQi789uhx7adj1UC4eWmbAwfeO4/cHLWoCIJ6CabRTfk7tr62mBxTuIS5CneAqDcsXGUT13NaDEqf5ltSdo54vgfi512DdunW49upVWBBjRvG+Y2iSLjxoqHXumwYkFLbLGHDKdry3X1eNtXx2w/YfLd00if4NdD+2tpN1iUhaexPCrEdRtjsfNqcgThajETorF4FyNVqK96OpsgFiXB5iksMhjHJGUbnnu5vqsWUcAj2FpfoI9lcISFl8Ja5W2sW1qzEzXP2SeaQhD2hMXsLQIIZGlHH3N4vR8hOUEwsXjXq/7JD5Khu4RB2yO6+VsP/FsPxGe7/f4HyH7JTsf3ch5R2/+qN9hP0ent+t8cKTg8NiPUIpP9Gd/NS/GbJ8w5eXiErmiSl4Vw0u7MMPExFDx7/6YScGxtaPBgqiwoKCEBPah/pmChg6LYgONSIiiI7a28/uacZ3vtrLa0cTh1/WUdbbRUfzHR4UjTrf3mb8358P4Vs0fON3e7Di+7vpYKgT7U4NS6c0aEm588kJjSj56dyoPzsNy6dsq0o653pVtjfn8TNo+Uadfh7K3JT739zVXLwT27dvx47dByhwDUDGzHQYLyA/B/p7pywEQca7uy14qPzsxPHefl0z9vI5DFtP47BcshiO6NV3IzG0AZXrX0Gr06uulPs7jQu/gSmRFSh6/WGU7NuMUxv/D4d3NCP8iq8hzt0z0C7QhU/FzBQvNJ04gF07qF3s2IMSfuOKR3O3+5tghnW9NKJsvs59meOFs8O7aMf48I589PyUqRePpCwEzWS8Voh9WdXlHjTaafpR52v/u4lRf8rNynKXFY/vNuNBp+GhPVZsdKNzau+1AgFeiHAqcGSgYcRlTfsTi3U1+KEaXJwZHs7HC1VqIo0EwYIGk0TBXiBiAwYo0ANq2/sRER6MSD8zGlvP1uB4zlehtbyTgs2MkqIO7CnuxIHKPrSM8soQm9KgKYoY0p5pRGnPNqeGav9Mfz6kHigYULYRd55QtAdiajsfpOQ1cgmJpQ9mmr+vj9b7GgLg7QuY+91/dN3c1YqWlhY0N1TjeEUjEByDGHdvc3HBeG+/rvVDl4YsGxG+8tuYEt+L2g1PoabZ6bKJXQIipkSiv2wn2vscJVEC0YGiHWgeSEB4uhun8F0UFBsNf3M9Sour0djcQm2jbUK9goeNvyF94qTlJSDB6ZR7QIAA5QpLh9N964191BUo6Zzuw4gNFGGgyc3D+1BKF++Un9Go5CejY5R7XMzKnoG2kQutyKY+ysdXQJLTE3LKgxJPXmPAVwJd3/u0q/klOuUXbxRH7HwG5xvvtNcLsJeXvut2jCsuVf21Km94pzK0t0k40Srbh8Iu5QzO0GBUqxI6fO3wjcR3vhSOjBADEtJj8INFI2+kb+gcsN972HLSEVwow+46K/QG6sxHuavZHmRQOc7VXda3meEXEYCE/n77wxg9rQPwSjIiUuhHQ6sjjcLV+Y5Fa3ldNVZ5L5XqFqq/EF9McWqnwXF+CEU/apxufK9qocYY6Id0p/vu0uIpqJL6UN2kTnBBU6cZCPVHhlO7z4gNGL1dS9VobgbC4tPgpaURB6YiJoi2s8bBZ7YvkCB8buvN1e138ODzXMvnUj90CSi/ihK0+DvITKdl/fhxnKruVb9xRgtLZfcKiR76c3j+UfCj9iPbK2EomdZZVoKIpfECIigwHBei6CEBANPCM9a1WcDCOXqspY1hSYoeD0ylYpkkHHba+NvqqLORRNyQq8dV8SKWTdHjvjQBHXU2HBq+bdERzmLKbw2lW5qiwwOZI/Mb1NwBdIkCVk7TY16UiLnKECqc6cSDgtRpNGQoR9K0gaVF6xzTwgX4qelO10ioFETcvtCA1bRBL0qi+c7QwdAlYR91jq6qaJDQoqf85utxRaxSXh1ujbX3MUMo862iZbpjgZJOwNJUqj8qr7lFwn6n+1guVf2Vn7bhtJcOd8/VY2WMiIUJOnxrgQEPzBIR6kaf13ukHL/Z2YfUVTPxzkNL8eF3o1F1QrmDaKhjO+pw0hiLX92biltyI7B2SSJ+/59z8NgdUYgeJVKqaOiDHBWBb1wWhbW5kTSEIt337ALWttGRR0wAUujf08oECv7ao/2RJA9QIGhPYqd1vhHJYbhidrh9mBtO9avzwcycCMe06X5nLtFpLa+rxiqvHBiAlbQsq3IC7WcVfcKDHMuW7T9uLwceTfGeepwwROKn35uCO/IicP2qdDx+XRj6i+qw0em+u4YD9dg7EIr/uC8DX6N0N66Zij9faUTT/np8OvxEjAb5h5pR6xOBn6jzvfHqqfhv2gZGC6oFoR4F+bUQM5cjN5Iq5zyUS36xy5YhXi5D0ZHxuc5mMOhp/Vtg/hze7u7q9lvXQxP9RaxN1mGhkj6GDhz1ZxO61A9dAt7T78T0nGiYS3egDUkITck+MxiNjiNqQahG44nTEJJvwIxVaxGVnoOI7LWYdsM1CLKUouHkKEcbwSK+OUuPbyQJsI5DOa0WauTKAzvqOPN8uhUrVvwyIiICg4OiWTnsnCTCInRYFiDh9ZPAwqk6rKBgQTLZ8MpRK044nZZWnoo91gpE0p5nSaIOswOpw6+14akTNrQ5vRPJnl+ghLdLgDwKQJZTZ2wbJb9BEnVOtNkiN0nESsp3YbwOuUEydlQ5fu4nJ9uA+2i5FsTpMMNIR9Q6AdPoszKeGw4crZDsL5mVBiT704zKE5p51CHOCxMwQEfDz9F8S9w4vW7rlVAyICCD6mNRnIgEOpJ+p5rKFCWg+JQNJ9U8lfke6xAQR+VU6iUnCOhokvBMvhW1TjdwX6r6k2n5jtDyJVPHv4IC4LlULyIFwK8clpDvxs5KEGwoO1qPV7Y3YsuhWjz5ThW2+kfgvhw99n1ah8PqvTWyqQNbKkEddwy+tCwGl2f4Qayrxx+frcB2pzOeg1pPd0NKjMB1y2KxLjcKq+YYYdpXQ4G6I7/esFDayQXCVlaHx4/2AQO+uOLaCCR1tuPlTa2oo7IqtM53xS0L8OfrorGa5rUoVk8dtx/m02dlfHWmjG2bW9FAeWotb0x2Am6M78MHm1pQoy4LoiNwz3xv5G89W45BY5UXs9Lx72+n2oPAOD0d1ESHOZZthoB9G1twWp2H1vmOmm4UUpcJO07JSJsRiesWxVCbMaCloBI/e6kWZc79QX83dpRakTA9GusWR2M5tbvKA2X46RtNaHBq91qXz9baiUMmL8yZGYWracOeKnbgsT02rJ1hwMHPanGwZ+gy91Q3I2juVZg/IwRNhQWOM2DDKC9fDp9/F25em47ubc/gw4J2+xmeQe7+Nq4hPBnpUTbUnqi2P8jmKvtvp/qKWJMgoL7ahmPqpcjRuLr9dnbKkOgAeQmlXULrZB4Fez01NhTRAb1Caz+kdfkc/RWwq1xC82DdBohYFyegvPLsfLXym7oWcTH+VMfTEJkxZ8jg07ULTY2OI2hzXT46+40wpsxB9LR5CIuLgNx8GJWfvImmjpGHCJHxeqwLF1BQYsFnw17K7047EEMSqA3IaCihNuBcb4R/G9czTfrfxrX/FmucjAc/tqDoPDsBxs7Fa0k2Dt9pwEP/dRgvDgtqPNEXrbwTlRi1DDfddSsyA9pQuf0VvLmxEGa1D5ONs3HVV29BTkoAOg+8iFf/tW/ETtnd38ZF9FxcmxeFpqO7caymC2aL1f4wiVb826mfL+V+0BULvPGNUAmPbbbggM39diCLenh5ByFt7mJMCzyN7R8dQeuw/SavX890/msIkwW1Ve1dFfuiM4QHnrkEesX8GPxsRSgdVXfisBuvuJkMvmjlnSykxu1488+/xjtbyyGGRcDpNjTlujeCrEXY+c9f49k3RgZ6F0KuP4EjpwcQNfsyrLmGX7kx8YlID6YgrNaGQ27cYuAsfu7VuHbNckwL6kL5kaIRgR7zXJ5xZi9exkObLDjBDZdpEHVlDj79suPXCGSLBQ01LXju1RK8Wnmhjy1MTF+08n5RuH1mjyhni/TegTAaDTCbWl16EpPP/Hy+ZKMODy0XcXSHGa91jlxPrrQDL2MYAsR+dHd3wzzsDOEgXr+eadIHe4wx9kV0IcHeheBgYGIZ73bA69czecZlXMYYY4wxNioO9hhjjDHGPBgHe4wxxhhjHozv2WOMMcYY82B8Zo8xxhhjzINxsMcYY4wx5sE42GOMMcYY82Ac7DHGGGOMeTAO9hhjjDHGPNiYwZ6o94JO4Ad2GWOMMcYmozFfvZJ15xO4IcsCU/URbH/7ZRytt6jfMMYYY4yxiU4XGRn5S/XzqHoaylBZ0Qj/6auwaIYOJ3cVoUfQ/qPZjDHGGGPs0hnzMm5v40mU52/G5v1VECPiEa1Tv2CMMcYYYxOe5gc09DqK8mQJVr59jzHGGGNs0tAc7Hn7+AIDvRiQ1AmMMcYYY2zC0xzsGfR6wGIGP57BGGOMMTZ5aA72mqpPwxwwBZlTY+Dv6wsvH34lC2OMMcbYRDfmq1cGyXIAMm/8b9ywKAbegkDjXTj01A+wvoyfzGWMMcYYm6g0B3u6tFtx7z05aNn8Lg6dbodFssFUU4K2fg72GGOMMcYmKs2XcWOyZiCktwB7Nu9GaUkxKstKOdBjjDHGGJvgNAd7dqIAfs0eY4wxxtjkoTnY6+/rB3x84a2OM8YYY4yxiU9zsDdgGaDUXvDSqxMYY4wxxtiEN2awJ+p94RuajjnT44CuNrRb1S8YY4wxxtiEN+bTuFl3PoGbZuph6zmNQ//6KzYWmNRvGGOMMcbYRDdmsOcXlYEwQyfaGprQwz+MyxhjjDE2qWh+zx5jjDHGGJt8XHv1CmOMMcYYm1Q42GOMMcYY82Ac7DHGGGOMeTAO9hhjjDHGPBgHe4wxxhhjHgv4/9bUM9rbVPmwAAAAAElFTkSuQmCC;" parent="1" vertex="1">
                    <mxGeometry x="760" y="690" width="635" height="137" as="geometry"/>
                </mxCell>
                <mxCell id="BWnSw_Da8Bput0sx85Jr-54" style="edgeStyle=orthogonalEdgeStyle;rounded=0;orthogonalLoop=1;jettySize=auto;html=1;exitX=0.5;exitY=0;exitDx=0;exitDy=0;entryX=0.457;entryY=1.016;entryDx=0;entryDy=0;entryPerimeter=0;endArrow=block;endFill=0;" parent="1" source="BWnSw_Da8Bput0sx85Jr-53" target="BWnSw_Da8Bput0sx85Jr-52" edge="1">
                    <mxGeometry relative="1" as="geometry"/>
                </mxCell>
                <mxCell id="BWnSw_Da8Bput0sx85Jr-55" value="" style="shape=image;verticalLabelPosition=bottom;labelBackgroundColor=default;verticalAlign=top;aspect=fixed;imageAspect=0;image=data:image/png,iVBORw0KGgoAAAANSUhEUgAAAZMAAAB9CAYAAABnJY4nAAAAAXNSR0IArs4c6QAAAARnQU1BAACxjwv8YQUAAAAJcEhZcwAAEnQAABJ0Ad5mH3gAAC2FSURBVHhe7Z0JfFTV2f9/d5aQdbLve0JC2AOBBNmXAOJuRbRa9XWpdtFW2/5r/+37b23fVl/sq7b6qlWprVtV3LUKAgICAgES1mzs2UP2mezJZO7/uXfuJJNkktyZCUjg+fI5H+5y5pzzPOfc5znPOXMzwsyZM0UwDMMwlx1e8dHK0fC0l1QoR0OjUf5nGIZhGJdhZ8IwDMMMyWM/+gnWrl2rnA0NOxOGYRjGbdiZMAzDMG7DzoRhGIZxmzHvTERRhE648F9I+7bqZS4MoqiFViMoZ4yzsP7GJqKmG8tvrcSbT53E9nXHsfYKi3JnZLSRkZGPKcfnjeRUEf89BTh5FqgTHA+whPEinpwl4NpkyOmaBBHlp4HqIfJLSAZ9ZRbwizQSpA4o7rowg3e0640OF7E8CCg1At3DyDvaSHJkkAwPTgXWpADXjRewQC9ic92Fa4OrRF/zB/zwKj8U7SlCG2bghj/8BleFn8Pe/CqIEdfi/l+thtfRHShrc14WUQxF1gO/x23XzoLmxA6UNrumj+irfo8f3hyJsh1HYVTRr8HTrsbsJAHnyupgHpBfFIMw78drcet1S+Bf8RVO1ot0TYdJt/8Zd6+5BrHtO5Bf3q3kHl2clWO09Ocsmol34acP34eFWf4o26myrdPuxf95aCVwcCfKOs5vO4fr328LfYBBObKSeFUFnr6mDUFaDUpKPHH0sAG+CXPke1u2bJH/H4qLJjKprgJeOCjK6V9V6mf83WbA3AN0KecXitGsNyocWBkNeCvnFwp9BPAfcUDFGeClQ1b9/7NMuXmRYzQ2Ab4GyI+CIQh+nW0w+wfCmxwkDP7wgRGmRjmrC1hg7uqGubsb3Rcw+AydtBxzMpIxTjkfTCeaGs1InpIGQZJTOwXjk01oalBuXzR8O/qLTE6GR0c7On3GI47G9sXGyP377TMhoRM6cnS57ybgjj/F4sV89S7iwjkTGlTDjauOVgGHaq3pRKtycQQEEnpbnoAfbxew4QLNfiS+rXpHm1AfYBw5xD0UMR5UdF9A/TAWaDWaYPGkWZOeTgKD4VdZihpDIPzp1MM/AB5tTTC5OFEXhHrk/fNXePqPT2Jv5cWkD08YK45DMyEdsfTkasdPQWLraVS4EH2dT74N/UnRUHx8INoK81DSE4aY5P4zbkYdncoqS3e38/3m8A14aVnql5HA348B8ydS6OMBNJmAzwqAfXYDNy1NxCOhwJM7gFNK2CaGing+Hdi8G/hEMUxyeTRTWJcPLKTyEqi8RiPwKZ0fcBBaRieJ+G0i8CJFVYcchINioIinZtEE1FZnl4i/bgMKBuSVlnFosorVKdRWX3oUyXBW0Wz142Kg0IWlKbX12vT3WiGwYAIQQwavkSbSH5H+Diryip4k4wIg1pF81O7cI8DL55S8dB4QZF2Kmkxy6EiO0+eAd09QVNHT93kxQMSfZwO5RwG/BGA6hTpt7cDu49R3dTRfpLqksjx01llEVBLwK4pM1m0HqDorFhpQYl+Z/iTz6vHARD+r45H09yHpr6jTrl6VelYrhxrEuJvww/tTcPjpJ7A37n78IL4KZyZG4MzaV1C39De4d+JBvPTcF/JSh0jy+CYvx9Ll85AU6Q9NVz0q87di64ZdqLVvX9IteOie+fCx9W/bXqz/4xs4O6CPRFGPkIybsGLxdET4adFSvhtbCoJx09XB2Pk/a5HTZM0vLQ/dnl6ELz41Y/qVmQjzNqO5NBdff/IhTjRa16LFwCtx98+vRrjDcWBB8fqH8MkRSQZpmev3SCpYj8Z5q9D19m9wfOqfsLLrMxRNuA2Re3+Fd/f2zcJ8krKxeNk8JJC8HmYT6k7txY4NX6LE1Pe4y3pJXIzFyxcgISIAeinf6T3YuWFTv3xq5JBQqz/V5ansNwnRcz5u/fUa9Hz6OMpn/QZzTa/jr2/tQ49d3aLogbDZq7Fi4XSEka8xnd6GTQWRuOWGcOx+6gnsbuzLq0Z/Njk+/aAD06++AlF+PWipOISdH72Ponoa3ITa/rWeqxynCTfjwfumoPD9jfCeew1SQvXoaDiNYxvfxq7jTRAd1DUUA9+An3n7GTy7zIz8dxLxwCYyFIT0nonEo48+Kv8/FA73TIKCgXmk7GAv4HAZGXwyhFFhwGJyHIfovFlpbEgIcAXNbr8pIWNpE4DOrybHcZryFSveTS6PjIc/GbcjdD1PKo/yLKHPH7QrzwZNMLGI0oGh9kzMZKzIGeVWA2fIKk6mdubQ7Lp2QF4t1fkIGdf4LuBLKusAOcQIqndVOLWjggYTHJQ9HCrrtekvkOLZPEle+kwMOZcldH1/Oc2qpfw0JmubgWNkTBs9yWHT+bvkbPbQeR6lfDLGjYqB1ZAcPyc5ojuAz0mOg/S5pFggm+rYQ23pstVP5aygsRFBfVBZBWyjcnooTzblbauhNkv9QePj4aXAnUkCFgQKEDQCMuj4KiXNJcdn2zMRfUT8gpxnJNW7gerNI/1Jciynfsu1yUGo1bNqOdRgicREmul05X+F+ohsJLbvRW3wNOgKd8My6VpMtBzCdhq80oOlibgS3/3+1QhtOoDd23bgeJWI6NlXYXZUHY5RA3v3qTobUFdShKIjuajSJiMxsA75O46gaUC7tDHX4vY7FsG3Zg++2bYbJe2xSJ+VROO7C6W7v0GFMmEwpCzBtMgg+PkbcXzP1ygu70bYtAWYmdSNwv2n0CGVa2lB07nTOJV/CCa/aYgSD+KrT7/EUTovpnTmbBWaZcfthbjMJYg0bUBe6xyk+5ISJyaiYfseeMycA6+zW3r3TMSw5bjt3usQ3JiDnO27UFzZhbAZKzB7fCeK6KGS6yU04dlYc98NiGzOpXw7UVjehpCpKzFnkoBTB46jVek3VXJIqNSfrTxfvyYc37tjyPJU9xuhSVuG5VNFFH2+AaX+VyCdJrqlA/ZNdPE34rbb5sG7erfcb2WdiZg2PQb+BgvK9+zq3TNRqz+bHAb/ZpzM2YHCsg6ETF6AjFQBxfuL0S7pT3X/OiFvwGRkzowlOxOAuiNbafJYQo/DbMy+IhUdR/egql3JpwL7PRNpspeS2YDsOBENhQH49KRWvr54dpb8v+t7JmRU9lFk8iWFqXtKBTx3ksIYMgbpZEBdggxrLpW3icrbTeX9L81GBZrtznChPMEs4JiyLHNymCUxyfAlkJF+J48UUSUgp4zqpdmymeqdTQbXWdTWK6PoT5a3RMCLp8gIUb9NoesSAjmKQoo89lM6Q3YBZAeOkkGVzqV02m4mkkgOIo4mOm8fBLaSHFJ5kv68yMFnOliArSND/ybl2Ud53yDZT1Evz6aJgAxN/N47ADy9X8Rr5SJEs4iP6Vg6l9LL5Bxt+FAEeYqcwctU77ZqAXtJfy+SE/DwB6bSPRtq9eysHMPS0oQWiy98DRoE0APRbDyFZpM//AL08PPzRrupQY7EJCIz5iC8+zA2vb4euQcP4Niud/H+liJ4TFyAiX3PEoQ2im6KjuAkpfLGodfIQiZOQaC5ANteex+5hw7g6PbXsOVou+OHybOVZpBvYl+eVO87+Ojrs+SMJiNZ0YvQVY0SMr6yAZZmvR3VOHn4gHxedCQPlab+hkHvocfpowXwmbYcEzT5KC7xhscA3Xn6mlGe+x4+feND5B3ORcHuD/DRthPQxU5HMj3DNsLS5yCq5wg2vbYeB0gvhXs+xgef56KHDNMEmgz0YwQ5JNTqT8azBYUfvDVseWr7TSImMQn61rMoa6AJX1kJzN7JiB8gQ8TUaQjoPIzNb7yPPKXfdpywSPOrfqjVn4wsh1UvBd+8hw+ofULEFEwIsN52pn+dkVfaYTUeeBWbdu5F0cGt+PLNz1GuS0TaZKVilYhiD5beXoYX/28ZXvn9Wfx2bg/aqwx4e+9ArYzM0M6ExkJ5p3JMtLRIM0yKLlx1JjRrrbArr9lWHs2mzxehUlvJUJdSRGGjm2brj5CD/YRmxeeVAfpraLdu1vs5azSJIOkzJAf5GozTinLqJmcm6S/EQX9Ukm57oUoLKRKU/JWEQKF0GYXzRZTOShdpLFfSAyidS+mk3bJjG52/U0yzVHIAvfWSXJKZ8LVzJmr17Kwcw2JpQHOzAG9DCAL8LTA1dsJk0sIvMAR+9OA1G/t2pX2lCw3VaKDQTU+WV0o9tTUUWQXBP0jJ5AS+BqmCc6iXOlShjsojUzGYjirUUGRqw1RXR/rzhfdAo6QSvd4D5hM5ONTQhLqcfaiEBzysE8heOk9vw1f/3omKHl2fvG0mCqy94WVXr38gCd9UiRq7cWrOfx3P/fa/sEvqJHtGWQ60V6NW6ngFR+Wp7TdRDEdCYgB6Sk+TPigaP3UK5yDtm0g7aH34+tLspqkKtfb9VjO439TqT2aAHO3VNWiBAT6BygUncG6ctqDunF2HNJ9BSUkV6ZBkdJKQ6HZMTenApDgzvHq0OF3ojWK7otUytDNx8GRIq5n950nuIZc3mgUOQP6aO8lhL4q0eW4hg2qbtZ43HOjP1RqlpgoGAY8towjRljIFSONV56AHLXZ1S/J+dkDAXygKcBaNp4hbMkT8NRt99U4XpKCrH2r17Kwcw1NPDoOiJ99EGPybQIEIjMYW+Pkn0kMp9nMmGkEDIXoV7vvdU/iZLd23iB55LXQDDLEarGvSAzuYojzlqB+ipf910XpGqnEJjc6DIuRCbF/3NN77+gwsOh20A8oSAtOx9J7f4eHHnumT95ZZDvpNUnr/dguCCIuF2jywgaMsh/T0j1Se6n7zmYBoirxrykgfWi007eRUqPsjE9OgVcqVkMYk1dCvXqkV/dpBqNWflQFyyOeCS8+6c+NU6iflkBCEUnyz7nGs31muXFGHIGix/slUzL8nBYsfjMVrZy2YvKQaD8+1K1wlQz/CDrQhDz07zdkbrV6Uz6lpinUonz/k9lF7nLZTFxmSzsUWES/bLUdJ6ZkDwObzFGFJ66cLJwNLvKmOfOuymJyOUzSh5LGhVs+jKYcgNMPUbIaPgZyJTxOM9HkTeRe/4AT4erXC1NQXJlkkQ1izCx/9/Vm8bZfeefUV7Bv5L2sPoqOtDfD2g4+dwNKs90KMs0GPpWSAlEMJUfTDjBvvREbIOez/8G94xybvpkJpy68fkl6kz1+sz4faftONT0UUKSFq5e/wy/96ltIvkRksQBefghglj4Q0piUN2utL0p6r+rPSX/+2c4e2cQRGe5w6i7nNE3tP6eRBFhQwms6E3HCM3ZKML4V3FITBaFsvIWqkY8ojfVvJRqQPfZQUWUfPWz88gGi78vxs5bVbz+3pVuRwd5DXSmV7ArF2y3+6MJppLxfxHZq9XizYjHH/QdlHg7QMQTMT6RthtuWowhaShT5g79xHm1jqo6Ya4PNqa51SKiVPMnA1Va2eR1uOZqMJHoExCOxskJfKupqaoIuMg5/QiGa7d0xamumuh4jWM8UoPX1cTiXnWqGlil2pt/bsGXR4pmPuynQEGwzwj5uPhTOiVE2ghkM27jQKhhoH6ohEaIQezQWbsPtwAUoUec+1iZLq+2FsIiUFRCLM7rnUTroLP/3j77Aw6jwOLJWo7Tdpv0TXlY8tLz6J116wpje/LESPdzLiIpVMREsLzThI3lC7JdqQsLAB+lavPxmvCIRKhkzBKyIMvjCijcb4QEbq39Eep67g42kdxe0OvmU7EkPb6y4gcyqwggbVFbEiHhpPDzz1xUE7499YDRT2ANfPBJZFipibIOKBBBqkdP3gwCeLjNAVUnlSvjgRD6YMLs9GnZEMBbVsMeWZESoiXUoBIunZqlF/g3KN0nhpw47kTgyD9VqgaH1xjSivAqTVnVupfdlUb1YM1TuBnB0ZsP32+woqUVuvs1RJm/kUAayIBWaHi3KK0vaVdYZmJWX0APzHNGCBdJ/65O4M4EGKHALdtWDDcJb6JzAK+B711yyqd1GiiB9QG+2WnGXU6nm05TCa6IkNDUewsQGy72gyojUsnMqiSMVuHbsqdy/O+c7BVd+9FtOnzURaRjau+o+fYvUNs2Cwm276RE/B+LRpcooJpBmS1h9RE6dbryVHYpzSv90FH2PjgVqEzL8P9z36OL5/RyaaTp4e0kiopb62FmLoNGTOmY20aRmUJiGYjItzVKC6oguG9NVYsWAOJkydjRlL7sQNs8MHRZQ1B/eiSjsNy+9ag1kzZmHinOtx09UZ0FUfQBH1qbOo1Z9a1PSbKEYiLsEPPWcO4UhZCcleKqfy3KOoFEMRO75vQ7o6/yiM46Yj+46bMDM9A1MX34Ulkz0HTALU60+m3QcTb/4eMmdmYNLcm3FTdhrE6iModuBMRupfteP0fGLwsX6luaXV+an80J8gGTeXAtOSgNvIqPuQwfvHEaDSfg28U8C6POAo5V01EbiFDI2RDMZfCtH3dUEblGdrOTkHckq3UfIhIzOwPBs9DcC6k2S8yZA9kA78aIaAH6bRuXI/lRyWdE1Ka8LJ0+sFXK+c/3CKNLew0kN1PH+QZsFUxUr6/PeSyWaTo3qB2lzmwmKv2nqdpaIE+JhkTicD/P3pAu4jYzvb7osJFpLjOanNdO0mqueuVArpyQm/vB847vqi9bBI68s7jgEbyEpPpTFw9yRy7tQBG8+SXpU8NtTqebTlaKVIpMfTiwZdo/VrxTTTbtHpoWs1otmukZbqL/H+6xtR45+JxTfdiVVXLkRo4258vO49lFn66o1dcB9uuuN+OS2bEgBh3EQsUM6/8535CFHyCYIRxR+txf+u/RNee/EJvPTnp7C7usdtZ1K3613sPKlB6qo7cf0td+O6Nd/BRCc3cgWhFYc++jv2nNUgedEaXH3jjUiPqUfON0WDIifLuS348PVPcFaYhKxrb8OVS2dgXNlGfPjGBtS40B9q9acWVf3mOwFxISIqT+b3+6owWgpRQpPaiIS+fRPzmU/w0ac5MAVmYdH1t2BOkhH799LDZ4cz+pOxHMf+3W1IXnwLVi7PgHfNLvz77S9R70B/I/Wv2nF6PrHuK1EAZ3B+djf0S4sRwNNfA8UOjD3DMP3RZvwAP7/RC1898TRyx8hfEWDcQ35pcXoh3nn8bZSOUTs58KXF8KXlePv2NniYtSgt88DOj6IRvuhh+d5ILy0OHZmQbviRYBjHaAOTepd0xk9dgGVzUiA2nEUFRV/MZcQlNtmu3hqB337uhzNtIqIT25Fgtx80Es4vjDEMA+/JN/Qu6dy4+lok9RzFlnc/H/avXDPMxY4AHXZ9GIk7HhmPRfem4tE96l2Ew2UuhmEY5tJn4DKXI9T+bS6OTBiGYRi34ciEYRjmMkVNZCLRXjLyW5McmTAMwzBuw86EYRiGcRth8uTJvMzFMAzDuAVHJgzDMIzbsDNhGIZh3IadCcMwDOM27EwYhmEYt2FnwjAMw7gNOxOGYRjGbdiZMAzDMG7DzoRhGIZxmzHtTETRH1NWrJZ/Bng44uauxurVcxHn4s/qqkWqZ8UU2+9BXtpcKJ0yDDM2GLNvwEvGLCva+tsRFTnrsbv02/8dCalNaabN2HTMqFy5+BDj5uLmNBM2f3kURpW/veHKZxiGubwYk5GJZNwyoyqRsz4HFTwzZhiG+dYZ03+bSxTjMO/mTGDfe8NGJgMjBuv5PlRGZWKif190841xKlYuT4M/zb5FsYKK/ab3t51tZeQgCysmWpeyRGNhv9m6o8jEf8qKvvyiEUWbv8Qxo31+59ohMVSZ0rLf1JXLYSjaDFPacrlM+/tSfbZoTkKsyMH7u0sh+k/prU++bifXUJ8ZSVYJW175eIS2MQwzttGGhYU9phyPQfwRNzmaLHAByoYxSP6xkxDSeRqnajp7z5MS/VC341NszytAhSYGM9IzMCmkDjs+3Ybc/ApoY9MxPaIVBWVWYyl9JjlpPELqduCz7XnIl/KMz0LWgDz96iHjupwiqM1UZl5BAfJbwrFoYRxa8ktlQ+1SO4YrE54IH5+MxKTQ3jJbAmZgepIWFSfPoaa8kPIHYJJfhfz5g+UmucyAlPHQHNwo5x8ol7FMqmPwZxzKmtZCjm8j9kjtksqZtBALw1uUtg/ftk47Z8kwzNjj8v02V2VR74y46WiRvFxWWWSdjQuCEUeLKgFfA/ztltGkmbZtJi7nySmCKSoNU/wHB3dS1DQ5DSjKsdtnKMlHkSkKMfHWUxkn2qG2TFNRTm+ZJfnURgN9Xj5zjPHY7t78Q8k+HL3t2twXQfXpJ6bfJr2zbWMYZmxw2ToTk8nqFPowYdClAQz6TJMJLcrhIOJjEC34Y+KKNbj55pvltGbNit7lLBtOtUNlmS2mJuXIhi8MAcrhEEiRRW+ZWep+fa0XalcUaWJQtbJ++tftStsYhrn44fdMziPSfkfO+vV47733+iV3vnk22mVKUcXc1avlpbNNSrnrc0b+iU6GYRh72Jk4gcEwYEFmqBm5hJEijNGedZ+PMgMMVGIl9tl9kSDA4Cv/r5qh2iWXPYR+GIa5pGBn4gRCdFbvC5LyN8kyo2Aqyu/3TSsbgvEYiioNSFs+r3fPQH7Jcu4U1XsRAxm1MgftU/Q5AumbXVlpBuuJPcPsbQzVrqlZ0kaKY/0wDHNpwc7ECYyFOTCl2fYqshBVuW/YFxRLd7+PfZVRyFpj3eOQ9jeiTGV9m+cu4HaZyoa99PnVc+NkR5BThL59mCwgZ1+lkllhwGccIbVrc5Fv/3ZV9v/qMMMwly78G/AqcfReBcMwDGOFIxOGYRjGbdiZMAzDMG7Dy1wMwzCM23BkwjAMw7gNOxOGYRjGbdiZMAzDMG7DzoRhGIZxG3YmDMMwjNuwM2EYhmHchp0JwzAM4zbsTBiGYRi3YWfCMAzDuA07E4ZhLltEfTDikqOgt/sJB9E7DgnxgdC6+FMRlyvsTM4zoij9ljsPSmZ0kcaVXsvjylVE0RMRc+7E/f/5OO5aNQUeynUZv3Rc+eAT+OlDt2NSqE65yIwEOxPCf0I2ViydjqBhZiJ+qdlYeeX1vWlFdgZCR5i5iKIPEuaswvLspRjv9+08+GKkDv+4Ro/rvM9f/SmT9PjnCh0mDaOPpDQ9Xrt2XG/65yodMsb4zC81MwE/W+bv8IfJZn33Chz7QxJS6Z4ohuCZF5bgwP2h8j0xNhGfv5yJByNdk18UvXDvrxbg4HNZ+EmC6zqccQu18ekJuEJlPwwnr4SYORmHX16CY68s7Z/+MgHzXehrR+0TDRF45bkl2HCLweXIQRT1iF7+U9x141S073kZL67bjFb73wOq/jdee+afyBdm4zs/fgizwrXKDWY42JmopK3iEPLycuRUUNmqXB0JCywWa+pRrlyuVJWb8ey+bjm9UW5Rro5txs9MwD3zAuHoV5TL6ztoluKBcOkkwBPhnd3oCPREiGQAA8chBB2oqpOzuoCIri4Lurot6LyAqhxOXpmiEjzywlE8/Pxp7OsUUX/oBB0fwcPrylGgZHEHKRrLujYRV6AWL31uRI+LPzKnTbgBN6yIQfXGZ/CvDQdQ19HfKQmCBe2Ve7Hxb3/FHtMELF+zYtiJJmOFnYkdww2XntY61NZUy6mhTd0TLAjtKNu/EVu++hpnmi/xn64l5Q2nv/YWEbnnLHIqVuuLxzA1TV0we3kgVE8nYZ4IK21GccA4RNGpX5AHfFo7Ud0lZ3UaQejAm8/swsyfHsBLpRfPuBJMLdh6qA6bD5pQS49IR50RW+h8y7FWNIzGTzeHROMn88bh1Naz+KRZueYkoqjFxEULEdywC5u2V8AyTLuE7rPY/sUedMYtQWYym8qRGJMasi1LRYROwqyFVyI7+0osmD0F4d79B0bQxBVYsXhqv7BcDJuB7JVLkewzwPRRHo+wyZi9YBWVtxLzZ1F5Xq49AGLQVCxZeV3fktiydIczG1GqMzAZU7KWYXH21chemo0501IQ7OlivVRebKwW/7lUj5dX6fFEJj04Orqu3Lch5QsM0eLH8/V4dpUHXsrW4zfTtRiv759z0hQ9/pmtQ4pd28VwHV6+Ro+bfAfrz5/u/Uqu2wNr5+iQ5eLSmtQ+f2rfj6h9L1BZL6/Q49EpGsS6uEcgihqkzE/F63+aj33PL8CGnydh8VJpSSYD3w+xk43qDZ0Yj//59RXY/fxi7H86C69+LwITPOzyhMXhA2Up58kMenxik/D5umXW5ZyXF+OZTGvenvpO1IOcSSCgDxkHTa0JlbpxiKaPRPl7Ao2dKJdzqqtXQkxLwU77ZaQhlo/UymsjfHYq3vzvhTjw3Dx89sh4LA/pG39q5XUG2/LVDbNShqx3IJJMy66PQ3pXLV7Y2AzRzgk4J28qEpPHobn4IKoo0hkJc/EhnO4MQOKEWOXKYAyROjwlPUeLdZhyGe9jjWF3G4qEBD3qTh5B/skKdBqSMG3GBPg4eLjUEYyEeB1qTh1G/okKdMvlpbhWnukMjhzcJy+JFVW1KRcHo/FNwcyMyQhBDc7k5+HYyUqYg9IwY2YqfF3YtNcH6/ATcgqhFDmtP9yDjQ3AVQnCoCU2rZ8OD5OjSe2x4N9HzXjztAW6cC1+kaFDsMv60yA7ETh8ogdvFPWg1aDBA7N0iHGhPI2fFj+j9k2g9n1M7XvjpAXjonR4dIYWBhfK0yUm4C93RCG2sRrPvVmMdUUeuGOxv3K3D010PF58KBGzyGD97c0CPE4K9MyYiL/fF96nl6Y6PLMuH7985ZjcLtRVYy0dS+e/pOuvnbBmQ10HzmGc7EyigzxR29CE2jZPRAaAkgfExnZUKFlV1StRVoFfy8tIR/A/uR3KxcGolVdGCMBtCzXY/lkR/vhZLdoTYrH2/lgkOCuvs1C9310gYNtQ9dogp+HprYNffCx+lOmBgs1n8GV7fyfglLzaIPh5AUaSSxWWWpiMFE0GUEcOwTia/Bm09P84yjeyf7pkGbvORN+JqsOHcLayElVnjyLveC1E3wiEeSv3ncWjG9WHD6NEKq/kGHJPUHl+US6VJ5hbUG9bEmsf2vj5RsXBgEoUHjiCkqoqVJcWIDe/nOqNRYSvkskJkiI0CDVb8OZ+M7ZUWvD1yR68d45Updy3ERejQbyF8u0zY1O5BTtP9+CpYoqSQjTIpAfNJTxF7D9oxoYyKu9MD54uJsNDDmWmj3LfCZLjtIgnR2LfvmeKLPAi+a6gB9ZZUmaEIN5cj2f+9wTe2FODDz4vwtpcMwZuq05fEIW07lo8/uwJvE75Ptp0Ag9+XA+f6dG4WrFNQlcbdu2rwReUjpKRQXsbduSck8+/2FeLQ42KNTF1otaiR0gARVTB41Bdb8K5xnGIIB2HB+jRYOyCWZldq6lXQmhtw05p2YhSbt3QS61q5ZXxNuOLfxRh3Tc1+HjTcTy8wQSPhGAs8LPeVi2vs3h3YcOrxfi7Uu9Pv2jqV28vvlF47tlF2Pv/kpGGBqzfOniN1Cl5PfTQUZN7eszKhZEwU15yWPqhB17N6S488lU3fkFpj/ny9SZj15l0m9DSqRwT3S3N6KaZ4DhXjaHZhGa7Neze8jyVC+cBLy9qbHszmu3GtaUmD1s3f4VTJuWCEwRKy3LkvErtyitvtgxa5gpT8pXZ5WumfFKVoa464y4R5Xb90dwsyuUFuKC/4HHW9lUJGnjRky8lc4sIIwSEueBkww0eNMNuxal25QJRXNWCgeY4wp8MRl0bzmh18PXSyqmrug11ghdiI5RMarFQZGIUEEJlRtGktqrOjGoyvOHBXgin83P1fY0Z1XoJtfLKtLXgJEWwNiqo3g6afgQalAvni7Y2nGhSjonKcx2O622rxZ+fysX9755DkyYASzMGTo2clPc8INCkoIXGa91l7EgkxvAyF/obSYt0JtA/Fxm4fmor7zyOD2kQgsJ6ezmkayLVbb8mrBb5E1SYfXkWBxrRSL1Omfo9bPLn3JGX2q0cybhRHvkQCP46/GmVB/5mS/N0CKLyNK6Up3ymX/sGtpfQSIXHJeIjaSZsS7+IQyQ9Jjqnn5QOVJORDvb3R2RQO6pqyWAauxER5IdQijZqGvs87+jWq15eGbo4cBlU6rfzDtU70Ng7rLenC8cLm/DN5rNYX6nB/OWx8tet7XFKXunZUg7VIhUv7WsxwzOmnUm/oSdbGek7/dZTCeux2F/IocbEwD0KW3nWs/OCPEDpSegnhxvIbaXC7MvTOJDAIj3FlKmfXuTP9defRXawAx9x6/ngWd+AfHJ5SpucRKTCRQrXXtjdhbV26ck9ZmyUllqcpLGNQjBfD4TaCRxm0A9aBrFIE4jKcvyCZsLft09PH8FrJUomlQhCN6pNFnImBkT5dpIjoVl/YwdCQwIQ5t1FkUmfBkezXgm18o4lBKEVr22qQ0dkNO6b2f9FQqfk7W5HF6ney1Pt+quvvNrR1XEZfAXRTfrZkzGF3gBfu2VMva8fBcmd6LTbl2ztaKMb/vCxe73Vx2CAxtImRdn90RngZ5evtzy70NmGaKG5HE2f+xtZ52nvoMZ6Ub12z4YQOgPLVmYjxYWXHBul/RkvAXF25cX4DW5njZIvxu5p8/UTIK0w1LRYzyXOtdNT5yEg1k4vUQYN9HS5duCzRfli7PrDTy5PRJMD/XVJxpMaNdTgq++k+yRDY4MFBfWinPKbAa2mv7NTy/HjRjR5heEHq0OQGqhHbEokHpnrO2hGXm2kaMFTRF1xE/YUGeW0u9IMnZ76fGBmokfyyorTdERVQxe8Q30RS/0sbba31nfCI94PYQJFLfXWPBLO1jsSauV1lpHkPd807SnBx3V6rFgVjVi7geCUvJYy1FKUGByTDA81g8mQhEiKJGvP2b57NxhpFWFyrAYLYgSEXsZ/7WLsOpNuD0ROT0dCVBQi46diZmoohOYq1Ng5ic7KUjSIwUjJmIb4yChEJaYjPdEfndVnUUPPRT/MnohKny7ni4yfgoyUweXZaDc2oVsTjLjUeISFRSBUSoE+0CiDU28Is16jFCTtTwjeCAiPtF4L9u19c7elogQmIRITZ0nti0RE7ERkTI6B0FKGKjujrpbT1RbU6TS4fbYO2VEaLByvxXejaLAr922UlltQotHge1lSPgELknT42QQNuuos2Ge379FQScbcosGNmTqsjJHK0+HBZAFNlT3IHai/bgHzaMa4ivItSNTK5YFm5nkOJnS1TUAzRX5LJ+owK1yDDCkFCb0P96nSHpR6aHFvhg5LIzWYE6vF97P0+Nl0DYJceFbbDp7Cf+1qR9LyafjwyQX4948iUFIg7cD05/DOShT7ReH3P0zCrZmhuGp+HB7/yUw8/71wRDiwTKer2yGGh+LuJeG4KjOMUhBSvPoaWNFAk4VIXyTS/6XSBXIujRE+iBc7ydHIWWTU1huaEIzs9BA5ZYSQfrWemDYj1Hptkjf8FP2plddZRpJXNPhiKbVl+QyDHCV4hvhb2zbFZ1Re+hPEZry6pQGWhBjcO6nPdDkjryBU4diRCmgmLEJm2PDmT/rKcdTChYgRT6Lw4DAhcYAG903X4e54AeaBz8VlhDYsLOwx5XjM4BmSRDPuWhSdMCMqZQJiw/zIcJWi4GghGu02lYUeI2rqaXYYEovomBgKfXVorczHkaIKijn6hpq1vBqcOGlB1IRUxIbSnNpUgsKjRf3KsyG2NcCEQETEJSA2OhZRUTGIMHSioqxe/oZOaNoSzEiNRWRkDEL89BTE+CCYjqXziGAypmfPoZPyiV31qGnqgXdwDLUvFuFB3uhpOIP8o8dhdFDvSPS0WXC8U0AqGee50RrE0kz+wzLginABRWd6UEwGX8LSacHhJgHR9DDNj9NiBs28msi7vnLEjApLn14Es4jDNIMOI8sg5Uun0KW6ogcvFfSQk+7LFxyqxUKDBR8cp7rIQSyicntMPXjrkBkFSp32WFpFMq4CMuM1WErlzqEQKdNfxM4Si/xnLURq30FqXwI5ksXxWmQEC9A0W/BWngVHXHjRTxB6cPJQFd7acQ7bcivwtw9LsN0nFA/O0CHnq0rktVnbKJqasO0sMGlGJFYvjMSyVG9oKqvw3+tOY4cD515f2gJLXCiuXxiF6zLDsXymH0w55chRXlBtCw4iJ2hAz8lKvHCIQrROL2RfG4p4YyPe/LIelSSrhNp6F9+ahaeuj8CVVNfcKArddN6YTcfS+ZUTRHy9uR7VVKZaeSOnxOI7Me347Ms6lCttQUQo7p89Dke298lhYyR5MT0FnzyQJDuZaJ0AbxrsctumCsjZWIdSpQ619TrK11zahfiFMbgqogMf7W5GmxPy2mgtq4V/xkrMnhqImvxj1kh4ANLLjSGz78EtV6Wg5etX8O9jjUPuY4bF6HBdiIBjx7ux1eQ4z+WAMHnyZPenDBcY6aXFrOha7P/qEBqH6GCGGQ6P+VOQd6ceT/48D69f6n+dgGB5+6MJX4ib7vkuJvg24OyOt7B+Yz66FFsi+qVj5R23YkaiL4z7X8e/3suBaYgXHKV9z8VZ43B3kAXPb+7G/p5LX7dDMXycd5Fz+XYb4yz6EEPvElH27Ej8ZnEQxFoj8lz4CvZYgOUdXl7LuR1Y/9Qf8OH2U9AEh/b/q8GeIfA3F2LXq3/AuneHdiRWNEgJAIwUsee6sJpwKTGmI5MDFJmMyt/8YS55wlfMwFc3W99iFru7UV1eh3/86zj+ddbdbemLE5b3wsgr+mnx5CINDu3swtvGy9sWjUlnwjAMw1xcjOllLoZhGObigJ0JwzAM4zbsTBiGYRi3YWfCMAzDuM2gDfiA1CTlaHiajp9WjhiGYZjLHY5MGIZhGLdhZ8IwDMO4DTsThmEYxm3YmTAMwzBuw86EYRiGcRt2JgzDMIzbDHImotiDNb88jp0vncRHj1XigWlmCKPwwzYMwzDMpYvDyKSuwgvFdQICY1twx4+qcZ2/coNhGIZhHDDImQiCFlvfisW9v47F69Jvjeo7kRZtvccwDMMwjhhmz0SDrm7rUfel+RMIDMMwzCgxjDOxwNdb+l+Lllb5AsMwDMM4ZBhnQjfluyJ8vORThmEYhnGINiws7DHlWMYz2PrTl5KfqTN3Y97kdmRktmBBejOunG9CXKMfDtQK6KhvVPIxDMMwlztDRiaCIKDqjDcOV2sBry6kju/A1JQOJBiUDAzDMAyjMKQzEUUzVt9RgxWxIvLejcOV947H/HtS8OieYVfGGIZhmMuQYTyDGcEG6WVFPY4cGYcWUbBeZhiGYZgBDONMtGjrkP63wNNDvsAwDMMwDhnGmQho7ZT+t8DPR77AMAzDMA4Z2pkIFgT6KscMwzAMMwyDnIn0hx6X3l6GV58oxa0RdKHNB/v5594ZhmGYYXAYmYREtyM1CGgoNeClZ0OxtZM33xmGYZihESZPntzv78sHpCYpR8PTdJzDFYZhGMbKMBvwDMMwDKMOdiYMwzCM27AzYRiGYdyGnQnDMAzjNoM24BmGYRjGWTgyYRiGYdyGnQnDMAzjNuxMGIZhGLdhZ8IwDMO4DTsThmEYxm3YmTAMwzBuw86EYRiGcRt2JgzDMIzbsDNhGIZh3IadCcMwDOM27EwYhmEYt2FnwjAMw7gNOxOGYRjGbdiZMAzDMG7DzoRhGIZxE+D/A0qsweZE/f8wAAAAAElFTkSuQmCC;" parent="1" vertex="1">
                    <mxGeometry x="258.8" y="250" width="322.4" height="100" as="geometry"/>
                </mxCell>
                <mxCell id="BWnSw_Da8Bput0sx85Jr-56" style="edgeStyle=orthogonalEdgeStyle;rounded=0;orthogonalLoop=1;jettySize=auto;html=1;exitX=1;exitY=0.5;exitDx=0;exitDy=0;entryX=0;entryY=0.5;entryDx=0;entryDy=0;" parent="1" source="BWnSw_Da8Bput0sx85Jr-57" target="BWnSw_Da8Bput0sx85Jr-65" edge="1">
                    <mxGeometry relative="1" as="geometry"/>
                </mxCell>
                <mxCell id="BWnSw_Da8Bput0sx85Jr-57" value="Client" style="rounded=1;whiteSpace=wrap;html=1;" parent="1" vertex="1">
                    <mxGeometry x="620" y="-60" width="120" height="60" as="geometry"/>
                </mxCell>
                <mxCell id="BWnSw_Da8Bput0sx85Jr-58" value="&lt;i&gt;Adaptee &amp;lt;&amp;lt; Existing interface&amp;gt;&lt;/i&gt;" style="swimlane;fontStyle=1;align=center;verticalAlign=top;childLayout=stackLayout;horizontal=1;startSize=26;horizontalStack=0;resizeParent=1;resizeParentMax=0;resizeLast=0;collapsible=1;marginBottom=0;whiteSpace=wrap;html=1;" parent="1" vertex="1">
                    <mxGeometry x="1120" y="74" width="220" height="34" as="geometry">
                        <mxRectangle x="1120" y="74" width="220" height="30" as="alternateBounds"/>
                    </mxGeometry>
                </mxCell>
                <mxCell id="BWnSw_Da8Bput0sx85Jr-59" value="" style="line;strokeWidth=1;fillColor=none;align=left;verticalAlign=middle;spacingTop=-1;spacingLeft=3;spacingRight=3;rotatable=0;labelPosition=right;points=[];portConstraint=eastwest;strokeColor=inherit;" parent="BWnSw_Da8Bput0sx85Jr-58" vertex="1">
                    <mxGeometry y="26" width="220" height="8" as="geometry"/>
                </mxCell>
                <mxCell id="BWnSw_Da8Bput0sx85Jr-60" style="edgeStyle=orthogonalEdgeStyle;rounded=0;orthogonalLoop=1;jettySize=auto;html=1;exitX=0.5;exitY=0;exitDx=0;exitDy=0;endArrow=block;endFill=0;" parent="1" source="BWnSw_Da8Bput0sx85Jr-61" edge="1">
                    <mxGeometry relative="1" as="geometry">
                        <mxPoint x="890" as="targetPoint"/>
                    </mxGeometry>
                </mxCell>
                <mxCell id="BWnSw_Da8Bput0sx85Jr-61" value="Concrete Adapater" style="swimlane;fontStyle=1;align=center;verticalAlign=top;childLayout=stackLayout;horizontal=1;startSize=26;horizontalStack=0;resizeParent=1;resizeParentMax=0;resizeLast=0;collapsible=1;marginBottom=0;whiteSpace=wrap;html=1;" parent="1" vertex="1">
                    <mxGeometry x="810" y="44" width="160" height="60" as="geometry">
                        <mxRectangle x="810" y="44" width="150" height="30" as="alternateBounds"/>
                    </mxGeometry>
                </mxCell>
                <mxCell id="BWnSw_Da8Bput0sx85Jr-62" value="" style="line;strokeWidth=1;fillColor=none;align=left;verticalAlign=middle;spacingTop=-1;spacingLeft=3;spacingRight=3;rotatable=0;labelPosition=right;points=[];portConstraint=eastwest;strokeColor=inherit;" parent="BWnSw_Da8Bput0sx85Jr-61" vertex="1">
                    <mxGeometry y="26" width="160" height="8" as="geometry"/>
                </mxCell>
                <mxCell id="BWnSw_Da8Bput0sx85Jr-63" value="request()" style="text;strokeColor=none;fillColor=none;align=left;verticalAlign=top;spacingLeft=4;spacingRight=4;overflow=hidden;rotatable=0;points=[[0,0.5],[1,0.5]];portConstraint=eastwest;whiteSpace=wrap;html=1;" parent="BWnSw_Da8Bput0sx85Jr-61" vertex="1">
                    <mxGeometry y="34" width="160" height="26" as="geometry"/>
                </mxCell>
                <mxCell id="BWnSw_Da8Bput0sx85Jr-64" value="&lt;i&gt;Adapter &amp;lt;&amp;lt;Interface&amp;gt;&amp;gt;&lt;/i&gt;" style="swimlane;fontStyle=1;align=center;verticalAlign=top;childLayout=stackLayout;horizontal=1;startSize=26;horizontalStack=0;resizeParent=1;resizeParentMax=0;resizeLast=0;collapsible=1;marginBottom=0;whiteSpace=wrap;html=1;" parent="1" vertex="1">
                    <mxGeometry x="790" y="-60" width="220" height="60" as="geometry"/>
                </mxCell>
                <mxCell id="BWnSw_Da8Bput0sx85Jr-65" value="request()" style="text;strokeColor=none;fillColor=none;align=left;verticalAlign=top;spacingLeft=4;spacingRight=4;overflow=hidden;rotatable=0;points=[[0,0.5],[1,0.5]];portConstraint=eastwest;whiteSpace=wrap;html=1;" parent="BWnSw_Da8Bput0sx85Jr-64" vertex="1">
                    <mxGeometry y="26" width="220" height="26" as="geometry"/>
                </mxCell>
                <mxCell id="BWnSw_Da8Bput0sx85Jr-66" value="" style="line;strokeWidth=1;fillColor=none;align=left;verticalAlign=middle;spacingTop=-1;spacingLeft=3;spacingRight=3;rotatable=0;labelPosition=right;points=[];portConstraint=eastwest;strokeColor=inherit;" parent="BWnSw_Da8Bput0sx85Jr-64" vertex="1">
                    <mxGeometry y="52" width="220" height="8" as="geometry"/>
                </mxCell>
                <mxCell id="BWnSw_Da8Bput0sx85Jr-67" style="edgeStyle=orthogonalEdgeStyle;rounded=0;orthogonalLoop=1;jettySize=auto;html=1;exitX=1;exitY=0.5;exitDx=0;exitDy=0;entryX=0;entryY=0.5;entryDx=0;entryDy=0;" parent="1" source="BWnSw_Da8Bput0sx85Jr-63" target="BWnSw_Da8Bput0sx85Jr-58" edge="1">
                    <mxGeometry relative="1" as="geometry"/>
                </mxCell>
                <mxCell id="BWnSw_Da8Bput0sx85Jr-68" value="HAS-A" style="text;html=1;align=center;verticalAlign=middle;whiteSpace=wrap;rounded=0;" parent="1" vertex="1">
                    <mxGeometry x="1030" y="59" width="60" height="30" as="geometry"/>
                </mxCell>
                <mxCell id="BWnSw_Da8Bput0sx85Jr-69" value="IS-A" style="text;html=1;align=center;verticalAlign=middle;whiteSpace=wrap;rounded=0;" parent="1" vertex="1">
                    <mxGeometry x="900" y="14" width="60" height="30" as="geometry"/>
                </mxCell>
                <mxCell id="BWnSw_Da8Bput0sx85Jr-79" value="Adaptee(existing inerface)" style="text;html=1;align=center;verticalAlign=middle;whiteSpace=wrap;rounded=0;fontStyle=1" parent="1" vertex="1">
                    <mxGeometry x="350" y="70" width="170" height="30" as="geometry"/>
                </mxCell>
                <mxCell id="BWnSw_Da8Bput0sx85Jr-80" value="wants JSON response" style="rounded=1;whiteSpace=wrap;html=1;fontStyle=1" parent="1" vertex="1">
                    <mxGeometry x="20" y="100" width="120" height="60" as="geometry"/>
                </mxCell>
                <mxCell id="BWnSw_Da8Bput0sx85Jr-81" value="Client" style="text;html=1;align=center;verticalAlign=middle;whiteSpace=wrap;rounded=0;fontStyle=1" parent="1" vertex="1">
                    <mxGeometry x="40" y="70" width="60" height="30" as="geometry"/>
                </mxCell>
                <mxCell id="BWnSw_Da8Bput0sx85Jr-82" value="wants weight in kg" style="rounded=1;whiteSpace=wrap;html=1;fontStyle=1" parent="1" vertex="1">
                    <mxGeometry x="20" y="100" width="120" height="60" as="geometry"/>
                </mxCell>
                <mxCell id="BWnSw_Da8Bput0sx85Jr-83" style="edgeStyle=orthogonalEdgeStyle;rounded=0;orthogonalLoop=1;jettySize=auto;html=1;exitX=0;exitY=0.5;exitDx=0;exitDy=0;entryX=1;entryY=0.5;entryDx=0;entryDy=0;" parent="1" source="BWnSw_Da8Bput0sx85Jr-84" target="BWnSw_Da8Bput0sx85Jr-88" edge="1">
                    <mxGeometry relative="1" as="geometry"/>
                </mxCell>
                <mxCell id="BWnSw_Da8Bput0sx85Jr-84" value="give weight in pound" style="rounded=1;whiteSpace=wrap;html=1;fontStyle=1" parent="1" vertex="1">
                    <mxGeometry x="360" y="100" width="120" height="60" as="geometry"/>
                </mxCell>
                <mxCell id="BWnSw_Da8Bput0sx85Jr-85" value="wants JSON response" style="rounded=1;whiteSpace=wrap;html=1;fontStyle=1" parent="1" vertex="1">
                    <mxGeometry x="190" y="100" width="120" height="60" as="geometry"/>
                </mxCell>
                <mxCell id="BWnSw_Da8Bput0sx85Jr-86" value="Adapter" style="text;html=1;align=center;verticalAlign=middle;whiteSpace=wrap;rounded=0;fontStyle=1" parent="1" vertex="1">
                    <mxGeometry x="210" y="70" width="60" height="30" as="geometry"/>
                </mxCell>
                <mxCell id="BWnSw_Da8Bput0sx85Jr-87" style="edgeStyle=orthogonalEdgeStyle;rounded=0;orthogonalLoop=1;jettySize=auto;html=1;exitX=0;exitY=0.5;exitDx=0;exitDy=0;" parent="1" source="BWnSw_Da8Bput0sx85Jr-88" target="BWnSw_Da8Bput0sx85Jr-82" edge="1">
                    <mxGeometry relative="1" as="geometry"/>
                </mxCell>
                <mxCell id="BWnSw_Da8Bput0sx85Jr-88" value="convert from pound to kg" style="rounded=1;whiteSpace=wrap;html=1;fontStyle=1" parent="1" vertex="1">
                    <mxGeometry x="190" y="100" width="120" height="60" as="geometry"/>
                </mxCell>
                <mxCell id="BWnSw_Da8Bput0sx85Jr-91" style="edgeStyle=orthogonalEdgeStyle;rounded=0;orthogonalLoop=1;jettySize=auto;html=1;entryX=0;entryY=0.5;entryDx=0;entryDy=0;" parent="1" target="BWnSw_Da8Bput0sx85Jr-52" edge="1">
                    <mxGeometry relative="1" as="geometry">
                        <mxPoint x="910" y="440" as="targetPoint"/>
                        <mxPoint x="710" y="457" as="sourcePoint"/>
                    </mxGeometry>
                </mxCell>
                <mxCell id="BWnSw_Da8Bput0sx85Jr-90" style="edgeStyle=orthogonalEdgeStyle;rounded=0;orthogonalLoop=1;jettySize=auto;html=1;entryX=0.551;entryY=0.987;entryDx=0;entryDy=0;entryPerimeter=0;endArrow=block;endFill=0;" parent="1" target="BWnSw_Da8Bput0sx85Jr-55" edge="1">
                    <mxGeometry relative="1" as="geometry">
                        <mxPoint x="439" y="392" as="sourcePoint"/>
                    </mxGeometry>
                </mxCell>
                <mxCell id="BWnSw_Da8Bput0sx85Jr-92" value="HAS-A" style="text;html=1;align=center;verticalAlign=middle;whiteSpace=wrap;rounded=0;" parent="1" vertex="1">
                    <mxGeometry x="790" y="410" width="60" height="30" as="geometry"/>
                </mxCell>
                <mxCell id="BWnSw_Da8Bput0sx85Jr-93" value="IS-A" style="text;html=1;align=center;verticalAlign=middle;whiteSpace=wrap;rounded=0;" parent="1" vertex="1">
                    <mxGeometry x="1090" y="555" width="60" height="30" as="geometry"/>
                </mxCell>
                <mxCell id="BWnSw_Da8Bput0sx85Jr-94" value="IS-A" style="text;html=1;align=center;verticalAlign=middle;whiteSpace=wrap;rounded=0;" parent="1" vertex="1">
                    <mxGeometry x="460" y="360" width="60" height="30" as="geometry"/>
                </mxCell>
                <mxCell id="BWnSw_Da8Bput0sx85Jr-95" value="" style="shape=image;verticalLabelPosition=bottom;labelBackgroundColor=default;verticalAlign=top;aspect=fixed;imageAspect=0;image=data:image/png,iVBORw0KGgoAAAANSUhEUgAAAsgAAAFjCAYAAAAgmP3GAAAAAXNSR0IArs4c6QAAAARnQU1BAACxjwv8YQUAAAAJcEhZcwAAEnQAABJ0Ad5mH3gAAMQ6SURBVHhe7J0HfBTH+fd/e03tdKfeC0hIAiRAIBC9GptmY2PcsB33Ehzbsf13Yid5U5zYcZzEceI47o4r7tjENs1gYzqILiRQQQVJqN+ddOrX9p057cGqAHdCgGSe7+czupvd0cw8zzw788zs7J6QmpoqgiAIgiAIgiAIJwrpkyAIgiAIgiAIBjnIBEEQBEEQBCGDHGSCIAiCIAiCkEEOMkEQBEEQBEHIIAeZIAiCIAiC+NGiUGmgFDx7J8WgfYuFKIpQM/feJgrSEWIwIIpKqJQO2B308pS+QPojzgfUnxIc6l/ODdLfwEIUfRA94xYsnDUG4TorDrz2KNYcc7+PU4aFhf1B+t7vJI1U4x9jFSg4Zked0HulEoar8c/JaixJUTnDNYkCygvtqDpNeo7IOvGF09T4dZoSyho7jnZc/E69L3IMROKueQ4PL9bh6LYjaMF4XP/cU1gcWY1t2ZUQI5fgwd8vg++hTTje4rlcohiGKQ89i9uXTIQyfxNKzX3TTeziZ/Hzm6NRtukgGtzQb2j61Zg8TED18TrYuqUXxRDMeOQF3LZ0LvQVG1BQL7JjKoy641+475ZrEN+6CdnlVil1/+KpHP2lP09RpN6DX/7yp5gzNdD9uqb/FP/v/xYC+39AWdv5reeZ2vd80CnbfZg9bzFmXnEqzJgajIpNB2A6D3WIvPIZPHbfslNlzYpAzcZ9MPRDWReyP/2x9JNyYiOVmB8ClJpEWM+zHNQ/U//cHeqfz0DCdbj71omwHfoca9dsQkG5AW029+tw0bdYVFXY8GKW1Rner3BIR8+GA1a7AJsdsEhHLjZ9k2PgYWowAlo9dDyiC4KuowVWfSD8RDYjDgiAFibwJH3DAZvFBpvVCusFnGCHjZ6PKZlJ8JbiPelgMtmRPGoEBC6nchSSk8xoMEinBwwXR38xSUnQtLWh3W8YhkRKBwcQZ2/ffqZoHT5752V88vZXKLGIaD78Gfv+H3z64XeolpL0N4Y97zvL4GHtwf42zAvXn/5Y+kk50VFKLIxTwE+Kn0+of6b+uTvUP58ebUwsu1YKkfXlJuQXFMDY7pmDfv4dZGYoZ7KVtmYR+2oczpDfIh08CwKbhWzcZcE96634+gLN0s5GX+QYiDSbzHD46KBVs0hICPxPlKGGdcR6FvViHbCm1YSmPk7YBaEee15/FM/+9mlsqxgY7daJN0zlRyGMHIch7IpQpoxBQnMRyvuwCnM+uRj6E8VQDBkaiNYje1FqD0dcMreESxuhqRQFuQeRl1OKJubjWU1FyGfx/PxytJ6nFRJLTV5nGSyU1nVIR/uHC9mf/lj6yYsF9c/UP8uh/vnM2O1s1g8lVKrOuKd0+Te+JeI3MSJeOyhiRpoCiRoBpkY7vsy2YZfMGEemqfHLCBHPbLCiUBoQxHAV3pggYP0PFqxslhkHm/Hp2bknWX4JXiw/kwNfZFuxu9VzAxKDlXhpshI6V5kdNvx9vQ053QYlvp8uIFiFm0YoMNJfgLddRGW9AyuPsrQeziA4/Z0fR89kWTZcgVSdAA3Lr8rgwGe5NuTK8uPlxsepccswAUN8WTqHCBMbYDbkWrHW6Hk6d3A0GtGMFPiz60wZFATBUIKGiEgEsI7JqgsAGo/BJKXlt2a1yQswb/50JEYFQGGpR2X2Bqz/ejNqLbL6DbsVj98/A36udmvZjhW/exvFPdpNjbCJy7BwTjoidEq0lG3FupwQ3Hh1MH549mls7yaLbswtuOPKSYjws8J8fA++//wz5Bn5BcHyCl6E+5+8GhEny1iMh55f7Pwmig4cXXEfPj94Kj+vmiIcS16E4YkKCKlpaM9dheaRkzpXamT4DZuPy5m8CZEBUNsaUX9sBzb9bzWKzaemgVwv/olzMXfhTAyNCISGpasr2o4fvlqD4sae08UzycFxV3/8luAdGUfxv5U2jDtTfm62mxPfVMSza71yx0ZUhU3H9KEjody8E3ZZ2aKoQfikm7Bw9liEM4WZi77DmpzeVwfd0Z9Lji8+acO4xVMR7e9Ac8U+JsfHOFLnefu6bacJN+Ox5aOQ+/Fq+E6/GilhGnQYjuHQNx/ghzwjxG76PhOiOApLnnkQmm2r4DNpIULqv8XKb9WYe8tsBBh34Ms3PkSR1Ae6I+/5wJ3+VBQV+OkCFbxK7PCPUyCi1YGX84GbxikR3GbHazttOCzdsnR3/HAXZ78bqsItrJ9MY/2uivWTRZV2fHjUjnK7VGcP6udOfhyXHG9lAzNTFYjTiDCycevzQw7sbeu0U9FXgafnqBB3Ulcq/G1x53DKy9m7rwMvVZ0ql/pn6p+pf77w/XNHWztEBMHLh0XaO495Qi8ryALmJQA5hXa8V8AE91fivvEqxLKLvG8oMHcocIjl936eHS06Be5n+cX0Jb9GB17f03mL7qPK09+eU/qr8MhEJVKZatbmWPFuoQNtbDB4JJN3aJ6X29/5iVolHstUIsXhwP8O2fAey88apMTPM1QIl+uFlXv/aAGBZjtW7LfiPwcdyGKd/Y0T1Biv7EM6dzAY0cS6HS3rgPWBAWhqKERLayD07MLSsz9igwmNUlJF5ELcfPfViLdlY8vKd7D2+zyoR9+K25ZN7rzl56Lye6xy3pL+D77NdnXfPVHGLcYN101FUONubFr5IbYe02PyFGaMvZKCzMlqFGxYgTXfHoIlZg6uvfUKBLnKbdqPjSvexMoP3sDOUjtE4x6sY995/At2fFdJZzIX3l6lOJqvRuLwmRiWbEfB4Vp4dbsnJIYvwLK7liDeehBbP38Xa747BFsiq/NtsnIZioh5uOGe65AgHsHOVe9i9cb9sMQvxo13XYXwHvZyFjk4buqvkxRMmKSS8jvYa35utxtDmZSMKMUJVByrRFmZCaqEZMRJ51yoEq7FDUunIsC0C9+v/Bg7jodjyqQYdL9C3dVfJymYNM0XRd99hNXf7kVzxEws+clVCHXpz4P29URevlo1YtZUWA+uwjdffINCayKm3X4fMkOk0x4SHingwLpdMMdcgSunAHvW7EFT1CxMnxAspXBxFnnPB272p5x4nYgt+Q6Y9Ercxfrz7/IcaGRjw9XMKe1K/40fCva/zn7S7sCqwza8f8wBrygVnhjLnPpu+blTP0/y43JcNkTE/gKWjuXbwfJdPl5xqn/uEPHJPhte2WvFeqMIsdWOD9h3Hn+VHV8nv0ypf6b++STUP1/I/tlhszI5VX1eQe7pILPZ8q79Nqwud2BbsQ3/YB0N/BUY29cNVt4i9hywYS3Lbyub5f+DdTZgTvK4PuQn2EQclm7PFZzh9lxcjAJDRdYZ7bJiXYWIHayB/nHYDhsrd6JWSuQB/Z2fnxdQVGbDf3bbsJENTNuZXv7FBhNNoIB0ds6Fwl8AG1+xg00stlSJ2Ftlx0dZNvx2px2FMrtxN51bNDegyeEPLZMtMFAPs7EI5sYA6ILU8Nf5odVshEOaqUVnTkWE9QDWvvUhdu/djezNK/DxuiPQpM5EGuuwXQitlSiSbg8fN57+/l9o6mgE2XKw8a2PkbVvNw5tfAvrDrX1YqQMnxbkfPQOduzh5b6HTzeVQBk7GsOk9hAsVSg+mIVcFir57Le9CoUHdjvjuQf3oKKx62xTo1HjWPZh+KUvwAhlNvJKfOElawuOj78NFVkfY+VbnzKbzsLhLZ/g0w35UMWnI8lfSsQIz5iCaDvTyxsrsGtvFnK2fY6PVmXBHjURqd33iJ1FDo67+nPi04Tcj96V8nuf5VfcIz93240TmzgMmuYSlNUDFaUlsPkm9djnFjU6HYEdB7Duvx9jj9Ru3+WLXW9PMdzVnxOnHJ16Obz5Q3zC6ofI0Rge1Hnak/b1RF7AF6asV7D6h+3I3bsB37z9DcpViRgxSirYIwSYi7bh0M71yK/2QuOxb3FwF/teK0AX2M1BPou85wN3+1OOsZ45oMdt2NcM1NfZsPm4HfvY/wT5dL2O+nP8SIxTIp45sx+wvuzbCjZ+FNvxAsvPJ0KByd2uTXfq50l+LjnW8HGLpXux0AGlXoHRms7Tgl1ETpUDu1go5itTVhGHKu3OOA/HZHcCqX+m/vkk1D/3aN/+7p8VKm9ovH2YPFFITRsCZctxnOjjvvyetm0RUS7b4tbcLMLMOvoAvkTdF1h+FbL8mpp4fkDAedyxHcY7xTag1CYdYFirbXhgjQUreeEe0t/5tRrseC/XgUI7mz+oBPiwYLfwB2QEaKUOmONghlUuCpg5SoUFsQKG+4vwsjlQzo43Ok4ZmLvp3MJhgNnM6qEPgV7P/t/UhsZGJXQBoSwOmBvYlSjhzw8YqmBQ+DoNkgdbbQ2ahWCw5B7jr2NXg7ka8i2WtTVVve9hbzuBWtdSCaOxtg5W+MFP1tF4gkqtgS1vJ/YZjKjbsQvl8IKmWw/SfmwD1q3ahHK7CmpJXnuL2Vmuj6zcwCDm/JgqUSOTw3b4v/j7k7/FpirpgIt+lgNtVaiV2WRjbX2P/NxtN1GMQEJiAOzHj6GCxe3HjqEKPfe5OduNyVsre8Krrrpnu7mrPyfd5GitZvWDHtpA6YAHeGanzairkjWI+RhKSqtgVXQfIdzD4dwDx3Xp+m6HnfUjPe4G9qO85wObg683KZxy8G0Nnce4HN1auR/Hj2Av3u+KqBIUzj6SBxvLr5HlF9bNXtypnyf5dZejnjne3Lx13R1pN6D+mfrnk1D/3IP+7p9H3PwCnnz6Rfzi90/h2hFt2PreRyiSbaHyhF4mf0JXxfEOh330LXtOb/kJPQeIfkTBpZLq7YI/iOJgnZFrdu0J/Z6fjwK3TlLj1UVeeG2BBq/yMF4JmW/cSbMD/9ljR5FSgcWj1fjVLG+8Mk+D5fECNPJbD+6mc4t6mJn9af2HISDACLOBXcSNzdAFJUKrE9Eke3RYwQYaIeZKLGfGyA3SGZbPYZeJCqwqnuPUZc/69i6B2O0WkehMx8ahPqFUqSHYcrHxlefw4XdFcKiYDN3yEoIycMX9z+CJZ1/Gr1zy3prZo90UksHI680HaofdwTq17hXsXzncyc/tdtOORGwYUFNeBJHro+0YTrDmj0pIhVJmV/xacJXjgtdBHue4q79Ouskh8hjrNzpjHuGZnbI2khUsCKXY/PLvseL7MunI+aL/5L249N/4wZoNgl6FZ1x9JA9TVQhiuSn6kKFn+XWT41wagvpnBvXPnZw9P+qfTyOvk7P3zyXr/4n3Xn0eH7z9DnZVB2Py4sv7vFWtl8uEu68yWIR3FfLr2OFszW7ppHjXxuf0lh8/ev5wLiawQvrSB/RGf+bHL8A5Y1S4TCti7UEb/rrDgud4OGJnM7Wu8Iu2ttaOl7Zb8dM1Hfi/LVasNAKZaSrMl83o3E3nDoJgRqPZBj9dAvTaBjSwWWKD2QT/oAT4+zSj0XRqGd3BLFWs2YLPmDFyg3SF9197Bbv4lNZDWltbAV8dtDJF89lvf7XjGeGjpxx+0UpfOaKow/jr70JmaDV2fvISPnDJuzYXshsLThzcYNj/X5B69wF32001LAXRTAnRC57B/3vuVRZ+g8khAlRDkxEvpeHwh5CYwF30xWXvq/46YU6L9M2Js31Yp9yHjqO/7fT80H/yXlzOPn64Cx8IxSYbXnb1kVL4604b1skWkdylv/NzF+qf+wHqn6l/dpPWmnyUHstDce52bNh2FEJ0OlL6eCeup41oBMTKbiNptYLzSdEGvs9KoqaNGRhPJ5taROkUULPDdd33srF0MbL8/P15fiIa2qQDMixcu6zVztVwa/mTxj4C4mW3YFThSrx6pRo3sFm2p3ia39nkiON3PKoc+KrSgVyDiCMslDLvWCmdd+HDeqKMUAH+zMAF5ljXNzqwusDh/NGVMF8pEcPddO7S1NAITVAsAtsNaGBxi8kEVXQ8dIIRTbJnEJoa2aji5UBL0VGnQfJQUt0CpZpdKswWPKW2uBhtPmMxY9FYhLKOVz90FuZkRPUy6fIMZ4fIGkTeIXhOFMKj1DDnrMPWA4dRLMlb3SL2aGeTiY1+gSy9zO6VaXfjl397BpfFeG5//Y277RaflAiV5TDWvfgM3vhXZ3h77RHY+T63KCkRo8nMRmkmb5isPwiNiOymb/f158QnEmG845HwjQiHFo1o4QbZjbO1b3/b6XnBA3ntdtZZKJTnaM/nCTfGDxdn6ycNHew863NNRoezj+Qht4ldS4q+Odz9nZ8L1wLK6dqD+uczQ/1zV6h/7r/+md8tOF3/4g49/9ciYNI4FRbGKjBtqAqPDWdJzA7slzm+RubYHXEosCRThXkxCswYpsKDiQIaKu3Y110gq4CpLL8FLN30oUo8ltIzPxd1TLlNCgFzRqgwPpx1KjwEnboNpddLx1hI5g99MOETI5Sdx9jMyVdKV1bhQCmb0dwySY35MQKmxLNyRymhbnJgN+sQPcXT/M4mR0mjiKAYJe5MUGJipAKXJanw0BChxwqyzVeBuyaq8AgrazLLY3ykEstGKhBmd6CY2ZQLd9O5i6mRCRAeidAGI1hXwg+gJTwCQY5GNMgugBNZ21GtnYqrbluCjPQJSM2cj8X3PI5lSzOhO/XWGvjFjkZKKpvFsRAfxKxeFYiYtLGdx5Kj4C3pxZqzEquz6hA68wEs/93zePCOiTAWFJ1jxwnU19ZCDEvH5KmTkJqeyUIaQr097QgrcKK8A/pxN2LR7GkYOWYSxl9+N66fFNFjhl2zdwcqlemYf+8tmDQ+E2lTl2LZNZlQVWUh54SUyAPc1Z+7uNNuohiFIUN1sBfvx4HjJagqL3WGst2HcEIMQ1xyQGdCRuXhQ2jwGot5d92ICRmZGDP3blwxyrvbwOm+/py0aZF68x2YMiETo2bcjBvnjwSqDiLPaZBdOVv7umun7iL6D0Ey0/3wtCH8+TOoAxM72yIl9mQf5DEeyNtQVoZWZQomLJqO4ZJdpCSEQeVh2e72px7hxvjh4mz9ZFGZHWUaJe7OUGEO6ycnxSpx70Q1HhujQFAfqtbf+bmoZE4E/BRYOESJSTzfSAExqlMZUv98Zqh/7gr1z+fWP8tR+/ow+2xHey8Lsu7Q00Fm3v66EmBMkhK3MWdW22TH6/tsqHDuY+lEaHfg5d12ZLN/XzRKhZuZc9dYbsPfD9vRJkvnhE0BNh4HMlJULD8l/HrJz4W9zo5X80UEsM71ZxNUeDhTjYfSFHA19QjmiPNjPCyLUkBQK3CtFH8oXYloKZ29yYYXsuw4wlSzIE2N25kcviY7/pllw3Hn9hDP8DS/M8nBb7d9f8iGb5ghcR3fO0aJOYEiVh8TexiipcaKfx1hhhTGnGnWqf8sXYGJGpZ2nx2bZA8YuJvOXVpMJti9fYBGAxvvmHxsxt2sUkPVbAJrvpM4qtbgw/+uRk3AZFx20124ctFshJu24vNXP8Zx2ab4IbOX48Y7f+YMV4wOhOA1ErOk+A03zIJrH74gmHDk0z/h+T/+Hm+8+Ee8+MxfsJVNujxvsa7UblmBHwqUGH7lXVh667249pYbkHqq/3ALQWjG/s9ew/YSBZLmLMPVN1yHjLh6bN98FN2vYUf1Onz81hcoFlIxecntWHRFBrzKVuOTt79GTR/sz139uYtb7eY/EnGhIioKDnf9+dymwyipAiJl+9xsRSvx6Rc70Bg0GXOW3ozpiY3Yub3re5o80Z8Tez52bWvFsMtuwaJ5E6Ct3owv31+Nul70d7b2dddO3SZxPq6/4wGm/8UYqhGgHXV9Z1vcfBkipCQe44G89vwv8MW3xdBm3oSlznqwsq+ZiFOPqbiHu/2pR7gxfrg4W3/vYP/7POt3y30UuH6sCneNUCC2zY6XdziQ5+nDbYz+zs9FebENK+uBcSNVWD5ejZ+yPnii7CF06p/PDPXPXaH++Rz7ZxlqNV8274C1D9cZR0hNTe3UIsP5gvRoEc99a8XRXjo0grjQKDMfwq+v98W3T/0Fu5vJJi8FnC+iH3cU7//+XZReAv3Qj0VeGj8uPah/vvQYTP2VkHoXfnlHKkpX/RtrDlSjta0Ndg8mQT1XkNn/kpkTFwtlUNLJ21XJY2Zh/pRkiIZilPVhawwxiLnUOqEfi7w0fvyoof6ZcDJILnJHzldYs68ZQ67+NR556s+YlyidcJOeDjJBXER8R1178nbVDcuWINFxCOtWfI0qWpEiCIK4qFD/TAwmBKEe2R/9Af/40+/x5isve/xWjC5bLAiCIAiCIAjiUodWkAmCIAiCIAhCBjnIBEEQBEEQBCGDHGSCIAiCIAiCkEEOMkEQBEEQBEHIIAeZIAiCIAiCIGSQg0wQBEEQBEEQMshBJgiCIAiCIAgZ5CATBEEQBEEQhAxykAmCIAiCIAhCBjnIBEEQBEEQBCGDHGQJUVRCqaDfk+8rl5r+RFEBhUD20ldIfwRBEMRARhkWFvYH6fuAJu6a5/DwYh2ObjuCFozH9c89hcWR1diWXQkxcgke/P0y+B7ahOMtng+6ohiGKQ89i9uXTIQyfxNKzX0buGMXP4uf3xyNsk0H0eDG4B+afjUmDxNQfbwOtm7pRTEEMx55AbctnQt9xQYU1IvsmAqj7vgX7rvlGsS3bkJ2uVVK3b94Kkd/6W+wIIpBGDflYSxNHQVF7R5UdPRN3ogRD+OO9DBUFuXD7IaegyJmY2ywgLoGUy/2oseEab/EtaMmQtewC8Wt3F6USBn/BJaNnY0oyx7kNdqk1P2Lp3L0l/4IgiAI4nwxaFaQTQ1GQKuHjkd0QdB1tMCqD4SfKAIBAdDCBJ6kbzhgs9hgs1phZdldKMJGz8eUzCR4S/GedDCZ7EgeNQICl1M5CslJZjQYpNMDhoujv4uHHTaHHQ47k/kCyhscOQXj4uKgkeI9scDc6sCQiIROe1EMw9DgZnZMOj1guDj6IwiCIAh3GTQOcrPJDIePDlo1i4SEwP9EGWqYo6xnUS/mIGtaTWjq44KqINRjz+uP4tnfPo1tFQNpNcsbpvKjEEaOwxDWUsqUMUhoLkJ5H1bJzycDV3/nB0FoxOHdf8PLG97A3qaBJK8XGkzFQPhwxHB7CUlBnLUclZaBZi8DVX8EQRAE0YmQmpo6KNZwxCE34pGfpWDfX57CjiEP4uEhJ3AsNRLFf3oZdVf8ET9N3YuXnv8KJkGAKArQJi/AvPnTkRgVAIWlHpXZG7D+682olTkL4rBb8fj9M+An3RYWW7Zjxe/eRnGP29dqhE1choVz0hGhU6KlbCvW5YTgxquD8cOzT2O7sTM935pwR8ZR/G+lDeOunIQIPyvMx/fg+88/Q57R7kwjBi/C/U9ejYhebkWLogNHV9yHzw9yGfgWiz8jKfcjGKcvQsf7v0B++t+wsGMVjo68DVHbHsX721uk/wT8hs3H5UzehMgAqG2NqD+2A5v+txrF5lPNy/XinzgXcxfOxNCIQGhYurqi7fjhqzUobjyVzh05OO7qz+383Gw3d1DF3oyfppjxvw1fowwjsGD+DYiseA9v55ZCDLkS92Z44ft1nzvrysv1C5mGacPHIl7rD6W9AdVVO7A1bz8M9lPlisELce/E8fBxydtxgOX/P5R3k5dvhQmOnYfZSSMQqlGitWEftlQHYFFqAHZtegP72jrT860J10WXYONhG1JTRyNMbUNTQw52MJmL2xzONKLvdNw8azZCupXBEUU7jh34E9ZVcRn4FoufY2j1GjQMnQHr/hdQFPUoZtu+x7HwxQgr/RtWHW+T/hPwDZ6KqSljEefvD7W9GUbDIew8uhXl7V3txS9oEqaOyEAM04uXowmG+mzsztuKMlk6d+TguKs/t/Nzs91c6CJV+H26AlqWx7+3WpHTSxqCIAiC4AyaPciwRyF1Zio6Dn+L+qgrkNi+A7Uh6VDlboU99WqkOfZj44EyiGywVUQuwu0PXI0w025s27gJR084EDtpMSbF1OPQwXJYXQNyez1qjx/B0YN7UKlMQmJQHQ5vOuh0suUo45bgjjtnQ1u9DVs2bmWDdBzGZyZB79eB0m1bUC45PPqUuUiPCoY+oAF52zcht8yGiPSZGD/MitxdhWjj+TJnpKG6CIXZ+9GoS0eMYx/Wr1yDQyx+9PB+FJWcgNm5J9MX8ZMuQ7T5G2Q1T8V4/zaIIxNh+G4bNOOnwLd4/ck9yGL4Aty+fAlCjTuwfcNmJm8HwjMWYFKSBUd2H+ssl6GImI9bH1iKSPNe7PyO168VoekLMSVNQOHuPLTAAzk4burPlZ9Ob0K+Mz8ry29Wj/zcbjc3sCujkDYkFIbSQ6j1HokJMWHQoA45FSegCp2EiX5V2Hm8FB0sT4X/dCydPAvBbdnYU7gHRWYHIuNmIz3AiKOVNaf2+1obYGgoRlFlDmoQhzhfJk9xz323Sv0cLB2fCZ+m/cgq3I9yayTS4uKh01hQUbofVbbO9NrQiRip08PfpwnFpVkoaLAhNHICRofYUFB23Fk3OFphbipDadURNHulIFw8gi2HtyCPxYuqj+K4qQ4tzvy8ER3HJh/tm5FtScco7w4gPAYNRQehiUmHN7MN1x5kUTsN106azeQ9iL0F+5i8FoTGTMPYECsKy8o6y2Uo/KfimsmXIawjF/sLef06EBTDbDFcgZLyErRK9uKWHBw39efKT+trRlHpHhSeJj+3201CF6rEwnABGkHE4RIHKhxdzxMEQRCEi8HzFovmBjQ5/KHVKRAYqIfZWARzYwB0QWr46/zQajbCIQ2I0ZlTEWE9gLVvfYjde3cje/MKfLzuCDSpM5Hm3MTcidBaiaLcg8hn4bjx9PszQlNHI8iWg41vfYysfbtxaONbWHeorXfl+bQg56N3sGMPL/c9fLqpBMrY0Rim7TwtWKpQfDALuSxU8tXd9ioUHtjtjOcyR7OiseugrdGocSz7MPzSF2CEMht5Jb7w8pJOSvj421CR9TFWvvUp9hzIwuEtn+DTDflQxacjyV9KxAjPmIJoO9PLGyuwa28WcrZ9jo9WZbG5x0SkRkqJXJxFDo67+nPCnKfcj96V8nuf5VfcIz93280tzAaYoIfel33XBkFTV4han2AEsWiQXyBsTXVociYEwpgDGWI/is171iGbOW95JWvxTUExvMLHI1mma8FWh7KafBSzUNl6enmDItjkyXGMycomMSy/o0VfYktlu+ROdkPThrzsr7Cvgpe7GmuKKqDQD0O8tNFYsNejrCoXhSxU81VbWz1KWZ48Xsic5Jr2rrmqlWqUVhfCJ2oqEhUFOGb0ZsekkxJeXnbUlK/H2j0bcJjlk1/6LVYXlkIZkIwhMnlDotOZQ56HzVlrcLAyFwXHN+Lrw7mw6dKQJGs3J2eRg+Ou/pxoWlFw4GsckPJb3Ut+7rabi9piCx79zorHWdgpTVIIgiAIojcGj4PsMMBsFqDVh0CvF9FoakNjoxK6gFAWZ/5QQ72UEPDnBwxVMCh8ofH2cQZbbQ2ahWCw5B7jr2PembkadR3SAUZtTRVO3WSW0XYCtY3Sd0ZjbR2s8INfd4fCTVRqDWx5O7HPYETdjl0ohxc0KumkRPuxDVi3ahPK7SqoJXntLWZnuT6ycgODggFTJWpkctgO/xd/f/K32FQlHXDRz3KgrQq1Zuk7o7G2vkd+/dpuzBlrtOjh76uEVhuI1qZ85jAzB1mpRKBWh8aWWufdBo6/N6tEG3OoBS+oVRpnsDXXoRmBCOiDvH5e7J866mCUvTTC0HTKPrtgqQUz5ZOYm02wwxe+p38S74womYNsr8tGTmsjjKU5qIa6h4NsMezE5iN7UM3sRSXJa7c0w8btRVauzofZfVsd6mRy2GtW4c11L2OXrC2d9LMcsNTBILPTpl7y87TdBNbezW0i6sk5JgiCIM7C4HGQUQ8zc9i0/sMQEGDkC4TMQW6GLigRWp2IJtmrHRSCAkLMlVj+9It40hWWz4EeKij7IrHTkerpDvfqILOjp3ZJckRnOrGPY7JSpYZgy8XGV57Dh98VwaFiMnTLSwjKwBX3P4Mnnn0Zv3LJe2tmj7cdKBRc+M76uBAEVl+7w7mfsyv9K4c7+fVvu9XC2KKA3i8AwcwLb2gqRkNrEHOOmbPt44CBG5CEwMvVz8At836Fn7rC5Enwh7Kz6T3E+S/d/4/puXd74e8AkeFMx/65D+VyVApWZ0cRtu96B18VlcPB4t38Ywg+wzEj80Hcv+DXWO6Sd9wopuWu8PZwtZMLp704mL30opj+lIPTRV+95Nff7UYQBEEQLgaNgywIZjSabfDTJUCvbUCDGSyY4B+UAH+fZjSaTi1zOUQ2gNdswWevPo/3ZOH9117BrgopkQe0trYCvjpoZdriq8oXRHlOJ0UGdwqkrxxR1GH89XchM7QaOz95CR+45F2bi+5vveWODf//gdro/dlugtAGU1MbdL6RCNB2wNRsgbFZYLYTBr2PCQ3Np9w5/nCk2LQXa3e9hy9lYdXuT3FAtoruLm3WNuapasF3d7jw89aei6/oAd1KYZ5iV3vRIm30EozWGrD/0MdY5ZI3rwinHpfshLdHd3sbSPR3uxEEQRCEi0HjIHOaGhqhCYpFYLsBDSxuMZmgio6HTjCiydSZhtPUyEZHLwdaio6i9FieM5RUt0CpZoNql2Uu96gtLkabz1jMWDQWocwx1g+dhTkZUd1WRD3H6bAy9+PcHJAohEepYc5Zh60HDqNYkre6RezRuCaTEQhk6WX7M5Vpd+OXf3sGl8Wcbn3zwtHf7WZoqYeXXxLCNPUwsjmOqaURgcGJ0KEeBtm7gZvamwE1K9dYjApDiTOUN7WCL7jz1wl7isF4Au3q4cgcMRxB3n7wDxyPKdGhXVdE+4DTYT1newlFmL8aTdXbsbeqEOWSvLWWnvZibmOzUO8QhMqWlhVhS3DfwgcxxX8A2IuH7cZXvVNjFZgeIyBUuPj1JwiCIAYug8pBNjUytzg8EqENRjh/E8TUiJbwCAQ5GtHAPWaJE1nbUa2diqtuW4KM9AlIzZyPxfc8jmVLM6GTLZP5xY5GSmq6M8QHMS9MFYiYtLGdx5Kj4C2NstaclVidVYfQmQ9g+e+ex4N3TISxoOicV9bqa2shhqVj8tRJSE3PZCENod6eDtwVOFHeAf24G7Fo9jSMHDMJ4y+/G9dPiuixglyzdwcqlemYf+8tmDQ+E2lTl2LZNZlQVWUh54SUyAPc1Z+7uNtu7tLcbIRVOxSxdgP4hoq2FgPUYYkIaGMOs8zhrq04iHr1WMwdNwdpESORFDMVl2fegcWjUqGVieCrS0JCeIozRPkyeRV6REQM7zwWEgqNy15qNmJTmQlBCTfilssex20ZaWioqzhnezG1MKv3S0FG/CgkRaaykIgglaf2UoNqswX+0fMwJ2EMhkWkIS3pGiyMD+5hL/UnDqFWGI6ZmQuRHpWK5Pi5uIrpRNWUiwLmm3qKu/pzF3fb7SQBCtwzRoU74wXYznV2SxAEQfyoGVQOcovJBLu3D9BogIVvMjQZ0axSQ9VsQpPMgXJUrcGH/12NmoDJuOymu3DlotkIN23F569+jOOyd58Omb0cN975M2e4YnQgBK+RmCXFb7hhFlzPhQmCCUc+/ROe/+Pv8caLf8SLz/wFWyvt5+zw1G5ZgR8KlBh+5V1Yeuu9uPaWG5AaIJ10E0Foxv7PXsP2EgWS5izD1Tdch4y4emzffLTnLfPqdfj4rS9QLKRi8pLbseiKDHiVrcYnb3+Nmj5sLnZXf+7ibru5TbMBJo0/vJprO99YYTag1csfyqZa5x0IF46mbfhq7zbUeY/GlPQluGz4eAS37cPaXetRKXsVWHTiDVg0/iZnmB6lg6BOYBONzvjCMeOdb8jgCEITjh1+HW9tfAWfbH0V72x6G3vMffDwu2EoWYNdBgUSRlyD+eOuw7yx85F8+p9h7BVBaEVO9ufYZxIQn7iQtdsVGB3QiH1FJT3uiDiatuObPd+hDIkYl7YYc5JGwMu4Dd/s3Yz6PtiLu/pzF3fbzUVYsAKB7DO3zN7jVYQEQRAEIWfQ/FDIQEOZ+RB+fb0vvn3qL9jdTIMtcWaUMcuwfLQ3tmz8L7IH2C/bXQqIoohZE71wZ5AD/9lgxR76kRCCIAjiDAyqFeSLiTIo6eR2guQxszB/SjJEQzHKXC/TJQgZCp+4k9sJhkaMx8wh8UBrOapkry4jLiQKJAUAjSfs2Nd9LwlBEARBdINWkN3Ef+YTePSqYc7vDlsrzJWHsePLD7C3vN15jCDk+A29A3eNZE4xQ7S3o6mpAPsOr0aO2eI8RlxYRH8l/jpTgYNbLfio24/xEARBEER3yEEmCIIgCIIgCBnkIBPEJYZOFJFqsyHS4YAX++7DjvFP/t5m/uYR/jYJfl+kTRDQzkKH9MmPGdlntVKJSoUCTez7jwE/rg+7HXEshLNgYPJ9qdE45SYIgiAuTchBJohLAO4EjmVO8WSrFVdY+mebRzVzko+qVMhmIZeFEucvNQ58+ASAO8QjmD5Gs88MppPunGCy3OXvDwc5yQRBEJck5CATxCBEwZy8CBYC+Cowi/OfFVexuJoFHldLce4MjmRO4NRenMD+hq8q71OrkatU4ghzmKsGmMPMJwgz2OTgCqYLd965/Ac/P2xn8hAEQRCXHuQgX+LwlUV+y13LHC3nJwt+7Dh3rrh7w90D5yeLK9knD/xWe/db7zycjEvH+C16foxeGtA3AlmbhDO9h/BPFsJYiGIhmoVY5vQOdPiKcgVzlmvYZz0PzBaKWbychQtFMNPfdO4Us5Dkoc4e02pxmDn6BEEQxKWHMG7cOHKQf+RwJ3eozYY4q9W5zzKBfY9mIZB9vxDDP3eSW1hoZU4S/4XnBuYgmdh3HhrZ9wZ2zsy+N/C49HkpwScn3OHlbRLDPuPYZyJrq2B2/MeIkbVvrkaDAuZ8FqvVOMYCt4/+gE8quP64nQ9lOryirU064xnrfXzwb51OihEEQRCXGj9KB5k/cMSdC+4A8gGTr2DyFTjudvFb0wIbjAVpRZR/KljceVx2nn/y9HwPYiMLTWxQ504c/+SBH+PO3EBUHr/tPqGjA0mSo5XCwmCC69y16miSOdNc/1zn/LuRHefnBxN8tT6StUk0d4a5I8zahU9Wotj3C00Fc043e3mhhemQ/yrlyTsC7JyNHfNiNsS3bfBryfXgno9U/3hWX15vfo30F3nMST7KQiWrF78O+XXp/GR1gvSdt7b8HMd1nE8AhzF9RvZRlyWs3IPcaWd1qGG2xT8JgiCIS5dB4SA/99xzzs8nnnjC+elienu7c7AO4IEN6EHsM5R9cqf4QmFgzgR/6p2verpWQLkjx8MJdpwP/BeKdOYUT2dhXh9XzQYbvJWrmI65Q1PHgqst+AolX5nmkxjuTDt/ltwDuC3xtxno2SffcuLafuLPPr1ZEKX8XFbmuoD4pytw/Nn/uOyST9i4o3kxOc6cwD3MCdzHHOPD7PNc4BpIYA7pSOaYpjGbm8jCYNqMwN/EsYfpgTvl+ZJTTBAEQRAuBq2D/HRDg9MhHOjwfbj7mDNyhAc2EPPbyf0Jd+SmsInCZSwMYc4K0RM+aXE5z85tHSw0s3bhq6LOB9zYJ3de+eoo3+rAndrBgPN1ayzw1V8rC3wFmE8GeOD3DPgx/r6KKuYY83TcQT5f8JxHWCzOuxWj2GcGCwORzd7e2MLCbuYcEwRBEMTpGJQOMt8+8HvmIA9G+K3b7Wxw3svCuTgsmUwHM5hTPIuFc4Hv/eTbFVz7gF3bSGwszm9Wc5fbzr+zwL9z19F1250H53t0peA8xpxL/j5dX/7J4n7sczCtLA4kuONbymzEuUrOPmtZu9TxwOK1LHi6Mn4h4XbBt46EsBDEbICvoPNtGaOY3fKtJheScqa7jcwp3s4Cn1QQBEEQxNkgB/kiwrdfZDFH+ZBG47zNezYimLMxlTnEl7MQ4+FqMXfGC1kZx5mDUM4+S9kn34ZwIXYnc8m44+x0pNl3nbRKy7cw6NkxvlecO1E88Dc28C0zlxq8/XkbcWeOb83he4T5qu+PEb5fmO+NT2SfI9gn3zvcX/Crgl9X/OG/MqbDMqZDfveGIAiCIDzhR7nFgg+SfE8hD/Us8D2pfDWOC+oMfEVU+hSZg8YfCuMrozy40vAVUx7nt991zGnje1CdDp3kyLmcuv6CrwrywZw/pMRXDHndeFkn91ezkOyBI8Hz2Ojj43xbAHeGm5kOBgvcoeb6DeA6Z58uvfM4P873mUcw52qwveWBv8WDrwLzB8K483aCB9Y2/LVnl/IPUvC93dxJjmCfwax9Xdel61rln85rUzrOcZ1zXbN8/z+fXPBJxuCyCoIgCGIgMugf0uNOk+uNEjzwrQL8NWIXAv4UPy+fO9DcgeMPZfHBnsf53uBxFovzFvOFZJO3N7aywFemf+y43lbiXH1meuafPM6dLO5I8+9h7NPTLR7ckeWTFX47ntsU/0llPsHgW09a2XeXK8s/XYHj+nRNRfjmF9e2FW6jbeyTIAiCIIiBz6B2kAcD8Tab88GlTOYsTzrH/cKno1ilwvc+Ps69zXwlmugKn7TwN5vwuwB88sJX5H1YcD3U5vrkTizf68sf6CMIgiAI4tKFHOQLCF9NniA5yv3xlP+3zCneypziA5fAajFBEARBEMSFgpbKLiB8P/Ra5tT+PjAQt4WG4h96PX7w9na+esxditRqvObv7/z/F3U6co4JgiAIgiD6GVpBHiDwXwDj+5Z54G+r4K9Zc+2tdu5hlYInzjRBEARBEAThOeRtDRD4Wyf4T92u9/HBu1otVvj54RtfX+cDd/w1cPx9uOQcEwRBEARBnH/I4yIIgiAIgiAIGeQgEwRBEARBEIQMcpAJgiAIgiAIQgY5yARBEARBEAQhgxxkgiAIgiAIgpBBDjJBEARBEARByCAHmSAIgiAIgiBkkINMEARBEARBEDLIQSYIgiAIgiAIGeQgEwRBEARBEIQMcpAJgiAIgiAIQgY5yARBEARBEAQhQxg3bpwofScIgiAIgiCISx5aQSYIgiAIgiAIGUJqaiqtIBMEQRAEQRCEBK0gEwRBEARBEIQMcpAJgiAIgiAIQgY5yARBEARBEAQhgxxkgiAIgiAIgpBBDjJBEARBEARByCAHmSAIYoAhqoMRlxgFtUgvGSIIou+IvnEYEh8I5XnuSxQqDZTCj6u/UoaFhf1B+k70IyIzRjWbfjggSEcGJ6IoQKMS4WCfhOeQ/ghPEEVvRE6+GTfffSemRRmQlVUEq3D+bUcUlVAp+ad0gPCIS01/ZC/nxgXVX9BMLHtkOaan6NFYchR1rQ7pxLkjij6InnEHbrz9TsxfNAd+xetRaPzxjHWX9Apy0kg13rlChZFnsNKE4Wq8e5XXyfDOAhUyzmLV3ClaOE2DNxdosFR3fq+A8csmI+ePCUhmdRLFELzw8mzsvS/UeU6MHYrVr2fiwci+1YEb/91PTseBf0/Ew0P6LsfYG1kd/5GCyW72BsmZQ/DYZXroe0nPHYif/mY2Dr82Dc+M6rwQub6vemAGOzYb/52jch47H3gqR3/pz1OU6SOw+/XZyHk+GZPcrWtmKg69PgE/DTv/9TxT+54POmVj+nhjTtfwzxRMO091GHXdpK5lvTQCc89SliiqEX35z3H7klFo2/k6XnlzA1ok5zjumufw219ei1CWhyhm4Lq/vI4nfzLBeU6MXIKf/e0pzOxj24liGKY89E/8+s9/wOzYvusjdvGz+O1Tt2GImzoNTb8al00bDp9e0vO+bPrPX8P/++s/cdUI5kk4j6mQdvu/2bHX8JOpfs5j5wNP5egv/Q0WyF66MuDtpfobvPvCO8gVJuDanz2E8eGd+ukXEq7G9YvHQshbic/feBW7KqTjPxJoi8VZqKqw4cUsqzO8X+HuzMsBq12AzQ5YpCPniwpDO6DXIJxHArwR3mFFe6A3QvjFGuiFELSjqt6ZtA+IsFgcsFgd6Oi/SedZGTZuCO6aGogAKd4TOyrqRcwYFwgFl1MVhFnDO1DOjg0sLo7+xo4IgF+bDWb/QGRGSwcHEGdv334m7zgeffkwHvlPMbI6RBgOFrLv2XjkzQockZL0NyXbj3aWwcKze9qko2dGOeQaXHNFDKrXvYAP1+5FffspezY1GAGtHjoe0QVB19ECqz4Qftz+AwKghQk8Sd9wwGaxwWa1wnoBL6Gw0fMxJTMJ3lK8Jx1MJjuSR42AwOVUjkJykhkNBun0gOHi6O/iQfZyblxY/QmCA22Vu7Du1X9hpzkFl99wBYK4fvoBbUws65MKkfXlJuQXFMDY/uO6U0oOMrOTM5lKW7OIfTUOZ8hvkQ6eBUEQsHGXBfest+Jr8/k1mNoGC2w+GoSqWSTMG2FlTcgP8EIUi/oHaeDX0oHqPnrpgtCOD17YhnE/34vXygaS4StRXmKEMDoEk5gFq0ayz6ZGHGoaWBfnxdAfX2GfmOQN08Ea7LH5ImOkRjpz6SKYm/H9wXpsOGBGHZuotNc3YiOLb8xpgfE8bV9orpLKYGFPDZspnwV+y3XEzBkINm7Dtz+cgKNbvZpNZjh8dNDy6zwkBP4nylDDHGU9i3oxB1nTakKT1ZnUYwSB1fH1R/Hsb5/GtoqBdA0xOy4/CmHkOAxh17kyZQwSmotQ3jLQrvOBqr/zA9nLuXGx9CdYS/HDmp3oiJuNzMT+cf3sdt63KaE6fzduLyqDSiy+JeI3MSJeOyhiRpoCiRoBpkY7vsy2YZfsIhiZpsYvI0Q8s8GKQmmgEcNVeGOCgPU/WLCyWWaUbCalZ+eeZPkleLH8TA58kW3F7lbPDVcMVuKlyUroXGV22PD39TbkdBvs+P7kgGAVbhqhwEh/Ad52EZX1Dqw8ytJ6OAOzGzpgQABCAwF1iBcUdWZURvkimtl/u57NtdnA6rrrwcsNGzkETyyJwpRoL6g72nB4/3E892kV8i2nyhWHJ2HbYzEIdNW75QR++vM8bOshhwLJ04fhtwvCMDxAgKH4BJ474IN/3eSNl369F2/Ud00fPiEZH1wXieF+dlQV1+DF94uwQVr1FcPi8MXTiUg5WUYCVr+Z0PlVdGDDm5vwaNap/PyZA7I9bSjmJhdCGBuCpkPHUD8qsnMlXUbo8Dg8fnUUJsd4wdvageL8Kvz701JsN53Ky6mXZJbu2ihkMr34WS0oYun+81kZtpl6Tp/OJAfHXf3xLRvvTzTi/33owHVnys/NdnPiF4iMaBG5myqQGxmN+5MDod5Q02UfK2+34TM62y1FB1QVlOPpA2KvE0V39OeS48l3bVh6QyRGsTxrj9fgpfePYU2N5+3rtp0mJeGHX4Rg/dvFCJybiNkRSjTXNWDV5/l46XBHDyfzTIhiEP7679Hw2cTymjYEQ2rL8IuvFXjs3hhEGSrxqxcKsVXqY9yR13OSMTTRC00HD6Cql/3qjkYjmpECf+YRK4OCIBhK0BARiQB2nVt1AUDjMZiktHzLkTZ5AebNn47EqAAoLPWozN6A9V9vRq1cf8NuxeP3z4CfpCexZTtW/O5tFHfTG9/6ETZxGRbOSUeETomWsq1YlxOCG68Oxg/PPo3t3fYc6sbcgjuunIQIPyvMx/fg+88/Q56xc5IgBi/C/U9ejYiTZSzGQ88vdn4TmR0cXXEfPj94Kj+vmiIcS16E4WxAF1LT0J67Cs0jJ3WupMvwGzYflzN5EyIDoLY1ov7YDmz632oUm+XXkQD/xLmYu3AmhkYEQsPS1RVtxw9frUFxY892O5McHHf1x2/B35FxFP9bacO4M+XnZru5g3riw3hiYQOrz7soVozH9X++HzF7nsc/v8iHmHwbfnGHN77+zWvIZ2WSvVw69mLLP4jijqkYmhILFJdJR/tOR1s7GzeC4OXDIu2dx35M9M804oIiYB4bV3MK7XivwIFmfyXuG69CLBtU+4YCc4cCh1h+7+fZ0aJT4H6WX0xf8mt04PU9nVsyPqo8/T11pb8Kj0xUIpWZ1tocK94tdKCNOdePZKoQ5+lToPXtqIGX00GODvJGnbEBda3eYNc9CxqIpjackJIqouPxykNDMd5Sh1c/OII/rzPCO2ME3ronHMFyectP4NfOW9LZ+Pu+01u9augQ/PMnUYg1VePfH+TjzTwNfjKLr2n1ghCAm2co8MPXeXj66zq0DYnFc/fFntq31VCPF97MxS/fyMH7x5ju6qvxHPvO479kx98t7Ezmwt/bjA2HFZg8OgLTR4j4YV8b/PlFKkOMisN/HkrAeGstXl9xFE+vqYc1OQH/uj+uy34xZVQ8XnxkGCbBiHc/Poo/ra5FS+JQvPhQPIZ3b4+zycFxU39OWH7LpgvYdIb83G43hnpkANKEFhzMb8GBkg54DQtA507VU2iYDl68NYo5flX414oCvFvkgztnaHGq6+3EXf05EQLxkzkqbF9TgD99VQNTdAz+/NMhSHbpz4P29URevnpx+bwotO8uwh9XlGCrRY/7lqfi1jDptEcIGB4NfPG/KtTGx+Gp2SI+/rIadTGxuH+ql5RG4mzyeooyyGm/jUxPvWIwookN81p2eekDA9DUUIiW1kDo2civZ3/EBhMapaSKyIW4+e6rEW/LxpaV72Dt93lQj74Vty2b3Lklw0Xl91j1zsv45O3/4Ntsl3vdE2XcYtxw3VQENe7GppUfYusxPSZPkSY3PUhB5mQ1CjaswJpvD8ESMwfX3iq7pdu0HxtXvImVH7yBnaV2iMY9WMe+8/gX7Piuks5kLry9SnE0X43E4TMxLNmOgsO18Op2j10MX4Bldy1BvPUgtn7+LtZ8dwi2RFbn27reSlZEzMMN91yHBPEIdq56F6s37oclfjFuvOsqhPdot7PIwXFTf52kYMIklZTfwV7zc7vd3MBSW4tm31AE8T4xMByB7U0QQiOhYfn4hITAp57ZuDREkb1cQvbiqIOZdRT+Acxh6AccNiscUP1oV5AHn4OsEbFrvw2ryx3YVmzDP/LYVe6vwNi+7sH3FrHngA1rWX5bS+z4Rz7LjznJ4/qQn2ATcVjajlFwhu0YcTEKDBXtWLHLinUVInawC/8fh+2wsXInaqVE7mLuQJ1DjZAABWKDvVBtMKPG5IWIEAXCA9QwNlpgk2aoY6ZHYbi1Dn9+sRDv7azFl98W4sFVBviNicYimV8rtLRiq3R7eF+91Iv2QtLYEHZxGvDCS4V4n+W3cnUenttnYy5LL/jasObtPLy5vRarvi3AI2vN0AwJxnT/ztOCpRXbsmqxhoXDfKRva8WW3TXO+JqsOhyUrVhyfL0U2Ly/HkHjh2Kusg4bj2ng160j1OlEZG/Lx/+9WIQPdtXiq43H8PBqI7wSQjBDJu/wyZEYZavBsy8U4J0ddfj6+2Is/7iadUoRWMAm2l04ixwcd/XnxNeCtf/Nx1tSfj9f09AjP3fbjZOREghf1gPurwEOFDWiQxuICd1kGJ0Riuj2Ovzl38fwgdRu/8wFm2Z1xV39OfHtYHJ06uV/GwrxAKsfokMwp/N5UY/a1xN5+U2w8m05+P23NfhmRwV+91IpDqoCMG9sd2ncozqvCl9sLsd3VUpUHi3HSvb9+2ogPLibcZ1FXo/RqKFiKrDbbdKBbjQ3oMnhDy3rIwID9TAbi9hAFwBdkBr+Oj+0mo0nV8yjM6ciwnoAa9/6ELv37kb25hX4eN0RaFJnIk22lCa0VqIo9yDyWThuPP3+jNDU0Qiy5WDjWx8ja99uHNr4FtYdaut98PBpQc5H72DHHl7ue/h0UwmUsaMxTOrXBEsVig9mIZeFSr5a116FwgO7nfHcg3tQ0dj1OtcwvRzLPgy/9AUYocxGXokvvLo1rY+/DRVZH2PlW5+yvjwLh7d8gk835EMVn44k2XUUnjEF0XamlzdWYNfeLORs+xwfrcqCPWoiUiOlRC7OIgfHXf058WlC7kfvSvm9z/Ir7pGfu+3mFlU1MCAYgdwew8PhXXgYVYGRCGHR0JBQWOqq0eBMSPZyadmLjfUxrNdU961/5ChU3tB4+zA9RiE1bQiULcdxos/PPwxsBp+DbBFR3iF9ZzQ3izBDQEC31UO3YflVyPJrauL5OZ93O2+E+bCLug0olY2F1mobHlhjwUpeuCc42lHDOokQvRei2KSwqt6GauZshAf7IJzFawynHhCKYGlQ34oSpQpaH6UzWKpbUS/4IDZCSuQB4ToN0NCCItkzSPlVzWxG2QutzTgmu4hOsHLboUagpx2/hEatguVwNT6vb0PRDzXYx0zZh+/PlNGUV46nP6rCAbsCvpK81mYLK1eDAFlHExvC9GJsRZ7MDiz7j2Lq8t34V7l0wEU/y4HWVhS6RipGZU17j/zcbTf+1oyJyV6wlDTiAItb8xpxFL7IGN51H3KYnsWNLSiQyVtQ2bPd3NWfk25yNFS2wsjShfVhocIzO7WiuFy2yb6xAbuKWtCq7GYMbmJzdK68OJgyOr+LsLKxTNF1HO5Xed3CYYDZLECrD4FeL6LR1IbGRiV0AaEszubJspVnf37AUAWDwtc5kPFgq61BsxAMltxj/HXMGM3VqJPZS21NVe/PbrSdQK1rKZvRWFvHWsgPft3txU1Uag1seTuxz2BE3Y5dKGfTOE231ar2YxuwbtUmlNtVUEvy2lvMznJ9ZOUGBgUDpkrUyOSwHf4v/v7kb7GpSjrgop/lQFsVamV9e2NtfY/8+rXdWP0NzUEICGY2EhaG5qqDqBdDEcr6zaCQIJiqKyBKEyqyF7IXTxhx8wt48ukX8YvfP4VrR7Rh63sfocjevYP8cTAot1h0udBYhMf73jy95Seg27agfkXBtS7V2wV/sM/hYMHjgttRzRy2YHaxRAa1oaqOOVmNVkQE+SOUXT+1plNXt4KP8nFD8eWLM7HLFR6PQyQzA1UfLMFV1S76665PF+xgj1v459BqGhVrI5sJf/vbAdy/xgwHi6u7ZacICcGvHpuEXS/PQpZL3nsj0X0upeQN0kt72O29vL+4n+Xg+XV3TLvn53a7+QcigzmQBcxBFtkJdUsDDjO/KS0lyHlr1QWXjZcrl5e/r1se57irPyfd5WCRvl5HntkpayNZwYLQjJf+moV717r5RG1f6Ud5nTBnvLv+u1LvvDWq9R+GgAAjzAY2aDY2QxeUCK1ORJPsUX2FoIAQcyWWs0GMD2TOsHwO9FAxW5cSeYJTqJ61672+rD2kb510ytX9MnIXpUrNrvNcbHzlOXz4XRG7zpkM3fISgjJwxf3P4IlnX8avXPLemsmmK11RSB2vvN6CwOprdzj3c3alf+VwJ7/+bbcTMNYrEMCu4dAwHQzVR2AwhCEkIhzBwXbU11RL6cheLjV74Vnw5zz6Ssn6f+K9V5/HB2+/g13VwZi8+HKE9nVr2QCnL+Z/kenmPrAIH9rl7d3p1HR3MzrjXY2O01t+/Oj5wzmgs0L6Q/mCYEW12cEcZB2itB3MOWZdo6kdoSEBCPO1oMZwSmIHXxGrrMDjz+/DvfLwj2y8e1xK5AGmVhsbsTUIlQkSplP3vsWinxG6L+mxuFyf/EGRZbenYll4M9599xDud8n6ZT1kCwJO7LxBuv3/QMLddtOMDEQaU0vakik4+OpsFjLxk1ABmm77kJ2do2TnLhTdrgNP9OeE/XMX/bEIvy6lBVmP6G87PS/0o7xOrG2wMDP08e59b5cgmNFotsFPlwC9tgENZrBggn9QAvx9mtFoOnU7yiGyAbxmCz5jgxgfyFzh/dde6dN7SltbWwFfHbQygfkqYRf5zxfMCegCdwqkrxxR1GH89XchM7QaOz95CR+45F2bi+6bVRz8Omf/f0Hq3Qf6s90EoQV1tS0ICB6CkJA2GGo6mIOsQFB4DAID61BfJRsXyF4uIXvROh+os7T3fQGhtSYfpcfyUJy7HRu2HYUQnY6U83Xn7CIzUNv+9GgExMq2z2i1gvMJ1QbZs1A1bcyweTrZlDBKp4CaHa7rbhcsXYwsP39/np+Ihl5eXWrho1/3gbEP1LaxfHwExMtu/ajClXj1SjVu6MMPi1QZLfAN1SK2vd35QF6LoQOaeH+ECe2olr0DsrqRuTbeIurzG7Azr9EZdlTawCbdELsvi7pBQUEjGnzC8NPrQpAcqEZsUiQendLzYS9PcTqsTM/yjs1zfJESrUDNwTK8usuI7ZK8Oc3o4cBXMH0hyBfDZXagHjscu16fhMfi+urx9B/utlvm8AB4ddTjuT9nYdkzneEnXxhg8WMOcpyUiFHbaGHy+iFZJm9ylLabXbuvPye+vkiSvdg4IMoXQbCgrpdnUc7Wvv1tp+cFD+S12Ji8irMMtI5y1NUBwTGJXVb75TQ1NEITFIvAdoNz/6jFZIIqOh46wYgmWblNjWyW7OVAS9FR50DGQ0l1C/iuEzamekxtcTHafMZixqKxCGWOjn7oLMzJiOplscEznA4Is4Jzu86jEB6lhjlnHbYeOIxiSd7qFrGHvk0mIxDI0svsXpl2N375t2dwWczFv877vd3qquETlIZIbRXq2DhQx/4EDxuJQKEadbJnQcleLiF7YRPsSD2zhZo+zHx6ga+yn6s/NJAZfLJZBEwap8LCWAWmDVXhseFMBLMD+2WOr7HSgSMOBZZkqjAvRoEZw1R4MFFAQ6Ud+7objlXAVJbfApZu+lAlHkvpmZ+LOjYqNSkEzBmhwvhwBTJ4CBJODmh6vXSMhWS+EMSMJzFC2XksRICvlK6swoFSNjO9ZZIa82METIln5Y5SQt3kwO4mZxKPOGFks4NILYayT+eLW5jDbIrwQ7zYwZxnZxInh7ZWIt8/Ck8tT8BNmaFYOC0Of354HP5zazgiZI5H6JBgzE0PcYaMEKYPpTdGjw3tPDbSF/6SHK0HivCnbW1IuHw0vvjrdHzzQASOH2k8xw4MKK5ugxgeijtnh2NhZhgLQUjy8bRDakHOcTsiJyXjqXkRWDAhDMuuGoF/zfTrsQJ6dEcVcpVhePLRZNwxJRRXzUnAKzdFQHOiGmu770F2A3f15y7utJso+iJzmAaWglqsLG7C4dJmZ9i/rQ457Nx42T7k7H11OOEdiicfGoZbJ4fi2kXD8Qt2DXT1Pd3Xn5MWDebfMxx3Tw3F1XOT8PI1wWzmUYfvmNPXnbO1r7t26i6iTos5TPeXj9U573Z4h+g72yLNr+tT5p7ggbzlJWaYVIFYtjQSl0t2MTfZp8svgglCFXKyT0CRMhOZYaySvWBqZB1QeCRCG4xwXtamRrSERyDIwSaqsv3QJ7K2o1o7FVfdtgQZ6ROQmjkfi+95nJWfCZ1Mf36xo5GSmu4M8UFsVGV1jEkb23ksOYrNUTrrZ81ZidVZdQid+QCW/+55PHjHRBgLis75Oq+vrYUYlo7JUychNT2ThTSEsomRZ1TgRHkH9ONuxKLZ0zByzCSMv/xuXD8poseKYM3eHahUpmP+vbdg0vhMpE1dimXXZEJVlYUc16t+PMBd/bmLu+3mLuaaWljCRiDBwhxiFm+trYMmeSSCDKfeYMEhe7k07IW/3jNqxgzEiMdw9ABzrvsBta8Pa9d2tLv3W0iDjt574oEMm0WuKwHGJClxG3NmtU12vL7PhgrZ5j+h3YGXd9uRzcRbNEqFm4cIaCy34e+H7WjrvkmQTbU2HudP/6tYfkr49ZKfC3udHa/miwhgzvnPJqjwcKYaD6UpTv4i2AjmiPNjPCyLUkBQK3CtFH8oXYloKZ29yYYXsuw4wkxrQZoatzM5fE12/DPLhuN92LRU19ABq48KgqkDzbze9e2oZWV7NXagWnahOE4cx09fKkVBYAR+fkcqnloajSTTCTz+/DHslm2ynzB/FP75s9HO8HiGN/MogvGAFP/n7dEYJqUTBAvWvbsXsx7fjWV/3o0rntiPV5nzf65GVbAhHy8dZROR60bir/em4a/3JGGBh7dwBMGGT97LwZuFwPSFKXjmtiTcMKQN/91g7NER2iuP48EXj2EXgnHHspH47ZVh0JaU4pGXjuNoH9rDXf25i1vtpg9iEzHm/B41olVuu2YjdrPOfKRsH7KloASPrKhCVXAkfn5rCu5JseC9TV07TE/058RuwnvfWVna4fjt1eEIPFGBX792HIW96O9s7euunbrN8Hi88ABvkwRkegkITk/qbIt7YjBSSuIxHshryy3GE183InhqMv7urAcr+6ZwdH8TXe0Pn+FgYxym3/4TJOt7rtO3mEywe/sAjQZYeBubjGhWqaFqNoF1WydxVK3Bh/9djZqAybjsprtw5aLZCDdtxeevfozjMv0Nmb0cN975M2e4YnQgBK+RmCXFb7hhFlzP+QiCCUc+/ROe/+Pv8caLf8SLz/wFWyvt5+zw1G5ZgR8KlBh+5V1Yeuu9uPaWG5AqW5V3B77nfP9nr2F7iQJJc5bh6huuQ0ZcPbZvPtrjTpajeh0+fusLFAupmLzkdiy6IgNeZavxydtfo6YP17m7+nMXd9vNbWqqYdDqoamX3lhRVYVmXQCUtZWdEywJspcfv73wHyIKmXAXrpsRhvrNn2Ofpy8DOA1qNV94Yf5Hr6smgx8hNTXV0ynYRcP5QyHRIp771oqjvTiwxMVHMy0N+29T46//tx/vDbBftiPOD84fzsg04J7H8rHrErguz6e8ivAZWHrXMqRojShlDsGn63I7neEBhjLzIfz6el98+9RfsFv+w0sE0QtkLxcP0T8d835yE8YO1aJxz3v48LPdMPfBwe8NIfUu/PKOVJSu+jfWHKhGa1sb7P2U90Bg8K0gM93T5TVwUIfoTm4nmDshEr+ZFQSxrhH7+2mGSgwSmBN3SV2X50leR80WfPr8H/HFD0VQBIf2eLL+YqEMSjp5ezh5zCzMn5IM0VCMsj5sCSN+/JC9DCC8Q6C3HcW2//4Rb37Sf84xx5HzFdbsa8aQq3+NR576M+YlSid+JAy+FeQYEX9db8WRS2ClajAQfsVYfHd95/1x0WpFdUU93v6wAB+W9rIJivhR4vrp5XsfzcPOS+C6vNTk5fjPfAKPXtW5Ochha4W58jB2fPkB9pbLno4mCAmyl0sH/so7jS4CIaF+6KgshLH9x9MnDioHmSAIgiAIgiDON4NviwVBEARBEARBnEfIQSYIgiAIgiAIGeQgEwRBEARBEIQMcpAJgiAIgiAIQsaAd5C1Wq30jSAIgiAIgiDOP7SCTBAEQRAEQRAyyEEmCIIgCIIgCBnkIBMEQRAEQRCEDHKQCYIgCIIgCEIGOcgEQRAEQRAEIYMcZIIgCIIgCIKQQQ7yIEEURagEUYoNXkRRAYUgSDHCU0h/54YoKqFUkP76CumPIIhLBWVYWNgfpO8DEo1GA4vFIsUGB7GRSswPAUpNIqy9ODNJI9X4x1gFCo7ZUeeGsyOKAhZOU+PXaWxwqrHjaMfgHKBEMQjjpjyMpamjoKjdg4o+yhEx4mHckR6GyqJ8mN3QX1DEbIwNFlDXYIKtW3pR1GPCtF/i2lEToWvYheJW0ekEpIx/AsvGzkaUZQ/yGm1S6v7FUzn6S3+XKqIYhikPPYvbl0yEMn8TSs1901/s4mfx85ujUbbpIBrcaLfQ9KsxeZiA6uN1vdhfCGY88gJuWzoX+ooNKKjn9qfCqDv+hftuuQbxrZuQXW6VUvcvnsrRX/ojCIIYDNAK8nkgOkqJhXEK+Enxc8cBq12AzQ4MrqlCd+ywOexw2G2wXcDF8ODIKRgXFweNFO+JBeZWB4ZEJEAQWcUUwzA0uJkdk04PGC6O/n48OGCzMN1ZrbBeQP2FjZ6PKZlJ8JbiPelAg9GO5FEjOu1POQrJSWY0GKTTA4aLoz+CIIiLATnIgwBBELBxlwX3rLfi60G8aiMIjTi8+294ecMb2Ns0kOTwQoOpGAgfjhh2RShDUhBnLUelZWDpeuDqb3AgCPXY8/qjePa3T2NbxUDSnzdM5UchjByHIdz+UsYgobkI5S0Dzf4Gqv4IgiD6HyE1NXVArwXwn5pubm6WYgMX0VeBp+eoENfLrUq+f3jvvg68VNV5jm+x+E2MiLeygZmpCsRpRBhNDnx+yIG9baeaQwxW4qXJSuikPMUOG/6+3oacHrdpRcTHqXHLMAFDfAVoHCJMzSI25Fqx1ujZQKaKvRk/TTHjfxu+RhlGYMH8GxBZ8R7ezi2FGHIl7s3wwvfrPkcxqwPf+uEXMg3Tho9FvNYfSnsDqqt2YGvefhjsp8oVgxfi3onj4XNSjgMs//+hvIccKgTHzsPspBEI1SjR2rAPW6oDsCg1ALs2vYF9bZ3p+daE66JLsPGwDampoxGmtqGpIQc7sjeguM3hTCP6TsfNs2YjpFsZHFG049iBP2Eda4/OLRY/x9DqNWgYOgPW/S+gKOpRzLZ9j2PhixFW+jesOt4m/SfgGzwVU1PGIs7fH2p7M4yGQ9h5dCvK22XtxvUSNAlTR2QghunFy9EEQ302dudtRZksnTtycNzVn9v5udlu7qJQeUOl6u3/7LB3dMDOynMX9cSH8cTCBqz43bsoVozH9X++HzF7nsc/v8iHmHwbfnGHN77+zWvIZ3lyObTJCzBv/nQkRgVAYalHJZN1/debUSub3IjDbsXj98+An0t/LdtZ/m87bViOKKoRNnEZFs5JR4ROiZayrViXE4Ibrw7GD88+je3StcS3JtyRcRT/W2nDuCsnIcLPCvPxPfj+88+QZ7Q704jBi3D/k1cjolf7c+Doivvw+UEuA99i8Wck5X4E4/RF6Hj/F8hP/xsWdqzC0ZG3IWrbo3h/e4v0n4DfsPm4nMmbEBkAta0R9cd2YNP/VqPY3NX+/BPnYu7CmRgaEQgNS1dXtB0/fLUGxY2n0rkjB8dd/bmdn5vt5kIXqcLv0xXQMhv+91YrcvpgowRBEJ5Ce5D7C+Z/1LFBKrvSAaO3AolsEFxxyI7tLL63yoFsE3OCbZ0de3CoEjN0AoJ9ROwrdWCPSUB8lBKXhQK7jzvQ4hp4rEAF+7+9JxzOwSjNV8SOIgdquw+6/io8MVEBP4MdKwvs2FENtOkUuCZBgYpSOyo9cFDsyiikDQmFofQQar1HYkJMGDSoQ07FCahCJ2GiXxV2Hi9FB6uDwn86lk6eheC2bOwp3IMiswORcbORHmDE0cqaU/strQ0wNBSjqDIHNYhDnK8J+cU9990q9XOwdHwmfJr2I6twP8qtkUiLi4dOY2Fy7EeVpD9t6ESM1Onh79OE4tIsFDTYEBo5AaNDbCgoO+6sGxytMDeVobTqCJq9UhAuHsGWw1uQx+JF1Udx3FSHFmd+3oiOY4N5+2ZkW9IxyrsDCI9BQ9FBaGLS4W3ccXIPsqidhmsnzWbyHsTegn1MXgtCY6ZhbIgVhWVlneUyFP5Tcc3kyxDWkYv9hbx+HQiKmYrx4QqUlJegFR7IwXFTf678tL5mFJXuQeFp8nO73dxk5K3/xn3LFmHanAVdwtTZM+BbvB6FHkzS7JqhyJgSgbqtO1CpG4tpGdHwEiuxf28JNMPnYmbQcWzakY92VkdF5CLc/sDVCDPtxraNm3CUXSexkxZjUkw9Dh0sP7X/v70etceP4OjBPahUJiExqA6HNx2EqZucyrgluOPO2dBWb8OWjVvZpCIO4zOToPfrQOm2LSiXJmj6lLlIjwqGPqABeds3IbfMhoj0mRg/zIrcXYVo4/myyVNDdREKs/ejUZeOGMc+rF+5BodY/Ojh/SgqOQGzcw+5L+InXYZo8zfIamY24t8GcWQiDN9tg2b8FKf+XHuQxfAFuH35EoQym9y+YTOTtwPhGQswKcmCI7uPdZbLUETMx60PLEWkeS92fsfr14rQ9IWYkiagcHceWiT7c0sOjpv6c+Wn0zP7dOZnZfnN6pGf2+0moWP95cJwNvEXRBwucaDC0fU8QRDE+YC2WPQTgl1EDnOEd7FQ3M4OWEUcqrQ74zwca+/WqWuAnQdtWF3uwNZiG/59TGQOogKjZRtlBRsbEGoc2MdCwalFpB4o/AVEsux35NmxpYo51FV2fJRlw2932lF4asHIPcwGmKCH3pd91wZBU1eIWp9gBLFokF8gbE11aHImBMKYAxliP4rNe9axiUEO8krW4puCYniFj0eyl5SIIdjqUFaTj2IWKltP/8BRUARzRhzHsGMPcwpYfkeLvsSWynZpOO+Gpg152V9hXwUvdzXWFFVAoR+GeEl/gr0eZVW5KGShmq/a2upRyvLk8ULmJNd0aw+1Uo3S6kL4RE1FoqIAx4ze7Jh0UsLLy46a8vVYu2cDDrN88ku/xerCUigDkjFEJm9IdDpzyPOwOWsNDlbmouD4Rnx9OBc2XRqStFIiF2eRg+Ou/pxoWlFw4GsckPJb3Ut+7rabu5Ss/yfee/X5HuH9117BrgopkbtU1cCAYASyySLCw+FdeBhVgZEIYdHQkFBY6qrR4EwIRGdORYT1ANa+9SF2792N7M0r8PG6I9CkzkSaTkrEEForUZR7EPksHDeeXn+hqaMRZMvBxrc+Rta+3Ti08S2sO9TWeyfp04Kcj95htsrLfQ+fbiqBMnY0hkntK1iqUHwwC7ksVPLV3fYqFB7Y7YznMkezorGr/Wk0ahzLPgy/9AUYocxmbeLL7E06KeHjb0NF1sdY+dan2HMgC4e3fIJPN+RDFZ+OJH8pESM8Ywqi7Uwvb6zArr1ZyNn2OT5alQV71ESkRkqJXJxFDo67+nPCJnu5H70r5fc+y6+4R37utpuL2mILHv3OisdZ2ClNkgmCIM435CBfLCwOVJy6c4+6JtH5AJ6uDw6Kgw3A5aKAmaNUWBArYLi/CC+bA+XseKOnqy3MGWu06OHvq4RWG4jWpnzmMDMHWalEoFaHxpZaiNIKj783G/XamEMteEGt0jiDrbkOzQhEQHdH0A38vNg/ddTBKHtphKGpXvrWDUstTDL9mZtNsMMXvjJH0BOUzEG212Ujp7URxtIcVEPdw0G2GHZi85E9qLaroJLktVuaYYMffGTl6nzYKN9WhzqZHPaaVXhz3cvYZZYOuOhnOZgHCUOH9J3R1Et+/d1urcxxLz2W10sohLH7xPBstJ2AoTkIAcFK6MLC0Fx1EPViKELVKgSFBMFUXXHK/vR6ZiBVMCh8ofH2cQZbbQ2ahWAEcAfbQ/x1rN3M1aiT6a+2pgq9zjFZPWsbpe+Mxto6WJkd+PVBfxyVmrVB3k7sMxhRt2MXyuEFjUo6KdF+bAPWrdqEcmZ/aklee4vZWa6PrNzAoGDAVIkamRy2w//F35/8LTZVSQdc9LMcaKtCrczGG2vre+TnabvxZzCa20TUk3NMEMQFhBzki4bAd2Wc4lz6/mYH/rPHjiKlAotHq/GrWd54ZZ4Gy+MFaPhT8R5RC2OLAnq/AASzUa2hqRgNrUHMOWaDl48DBvOpR+sFQQFBPwO3zPsVfuoKkyfBH0p2TkrkAc5/6f5/gti7g8Loqj+ejv1zH/WoUrA6O4qwfdc7+KqoHA4W7+YfQ/AZjhmZD+L+Bb/Gcpe840ahmx8DBdMLWG3k9RZY/RwOx0nnTk5/ysHpoq9e8uvvduN7kF2OTteggZKV7xknYKxXICAkBKFhOhiqj8BgCENIRDiCg+2or6mW0nXqWYi5EsuffhFPusLyOdCzFmGXguc4he9Z394lYO0pfeuks7092M3UBaVKDcGWi42vPIcPvyuCQ8Vk6JaXEJSBK+5/Bk88+zJ+5ZL31sweb2dRKE5jf3Zmfz0q2L9yuJNfv7cbQRDEeYC6ox8BfPCrrbXjpe1W/HRNB/5vixUrjUBmmgrzPVwJEoQ2mJraoPONRIC2A6ZmC4zNAvTaMOh9TGhgzrgL/rCR2LQXa3e9hy9lYdXuT3FAtirlLm3WNuapasF3d7jw89aei6/oAd29EaHLEVHUIm30EozWGrD/0MdY5ZI3rwinHj/qxMH0Au4ESPGBRn+324ibXzjl6MjCE3/6C+YlSoncRBBaUFfbgoDgIQgJaYOhpoM5yAoEhccgMLAO9VWn7I/rWazZgs/6Y2sHo7W1FfDVQSvrFfmq8gXpJJ2TKhnd7EcUdRh//V3IDK3Gzk9ewgcuedfmovtbuvlEjP//QO3c+7vdCIIgzgfkIJ8H+PjER7cL5SD5sBE9I1SAvyhCEAXUNzqwusDh/BGSMLm3KSGEz8S1D/0Ot1+fCV0vK8yGlnp4+SUhTFMPI/MZTC2NCAxOhA71MMjeDdzU3gyoHWgxFqPCUOIM5U2t4AtYHi9cMwzGE2hXD0fmiOEI8vaDf+B4TIkOda5AnQtOh5W1xrm1RyjC/NVoqt6OvVWFKJfkrbWIPS4ic5sZ8A5BqGxpWRG2BPctfBBT/M9VmnOnv9utX/cgM2rrquETlIZIbRXqDEAd+xM8bCQChWrUyXbcNDUyb96LyVF09OS2jpLqFijVTI5TfrTb1BYXo81nLGYsGotQ5hjrh87CnIyobiuinuN0WM/Z/qIQHqWGOWcdth44jGJJ3uqWnvZnMrHZcSBLL9uupUy7G7/82zO4LGYA2J+H7cbvuqTGKjA9RkCox3ckCIIg+gY5yOeBSjZowU+BhUOUmBSpYEFAjMrzjl2vZ45veGdI5r86wjyYxAhl57EQAb6SN2PzVeCuiSo8MkqJyezc+Egllo1UIMzuQHEvK4KhY+cgLT4WcZmzMbKXh2Kam42waoci1m4A31DR1mKAOiwRAW3MYZYNYLUVB1GvHou541h+ESORFDMVl2fegcWjUqGVieurS0JCeIozRPmyUVChR0TE8M5jIaEnt4FYazZiU5kJQQk34pbLHsdtGWloqKs454mGqYU5DH4pyIgfhaTIVBYSEeRxe9Sg2myBf/Q8zEkYg2ERaUhLugYL44N7rODVnziEWmE4ZmYuRHpUKpLj5+IqphNVUy4K+vDGQnf15y7utpu79OseZIa5phaWsBFIsDCHmMVba+ugSR6JIEMVamX2dyJrO6q1U3HVbUuQkT4BqZnzsfiex7FsKZv4yZb1/WJHIyU13Rnig5j+VIGISRvbeSw5Ct4u+8tZidVZdQid+QCW/+55PHjHRBgLis7Z/uprayGGpWPy1ElITc9kIQ2h3p4qugInyjugH3cjFs2ehpFjJmH85Xfj+kkRPeyvZu8OVCrTMf/eWzBpfCbSpi7FsmsyoarKQs4JKZEHuKs/d3G33U4SoMA9Y1S4M16A7VxnKwRBEG5CDvJ5oLzYhpX1wLiRKiwfr8ZPM1SYePqf0TotI4ap8HCm2hmWRSkgqBW4Voo/lK5EtJTOUmPFv46wQSpMiTtZWT9LV2CiRsTqfXZskj2o48JYmI3qVgtajx9GaW8OW7MBJo0/vJprO99YYTag1csfyqbak28Q4DiatuGrvdtQ5z0aU9KX4LLh4xHctg9rd61HpezhwOjEG7Bo/E3OMD1Kx+RIYAN3Z3zhmPHON2RwBKEJxw6/jrc2voJPtr6Kdza9jT3m3kZMzzCUrMEugwIJI67B/HHXYd7Y+Uj2sD0EoRU52Z9jH38lX+JCXDH6CowOaMS+opIeK4yOpu34Zs93KEMixqUtxpykEfAybsM3ezejvg+bO93Vn7u4224XjZpqGLR6aOqlN1ZUVaFZFwBlbSXYVOckjqo1+PC/q1ETMBmX3XQXrlw0G+Gmrfj81Y9xXPau3CGzl+PGO3/mDFeMDoTgNRKzpPgNN8yC67kwQTDhyKd/wvN//D3eePGPePGZv2Brpf2cHeTaLSvwQ4ESw6+8C0tvvRfX3nIDUgOkk24iCM3Y/9lr2F6iQNKcZbj6huuQEVeP7ZuP9tziU70OH7/1BYqFVExecjsWXZEBr7LV+OTtr1HTB/tzV3/u4m67uQgLViCQfeaW2Xu8Wo4gCOJ8QT8UQgxolDHLsHy0N7Zs/C+yB9gv2xE/fpSZD+HX1/vi26f+gt3NZH8XGv4jSLMmeuHOIAf+s8GKPfQjIQRBXCBoBZkYUCh84k5uJxgaMR4zh8QDreWo6mUlnCD6G2VQ0sntBMljZmH+lGSIhmKUuV7+TVxgFEgKABpP2LGv+14SgiCI8witIBMDCr+hd+CukcwpZoj2djQ1FWDf4dXIMQ+CX1MkBj3+M5/Ao1cNc3532FphrjyMHV9+gL3l/Nd/iAuN6K/EX2cqcHCrBR91+3EVgiCI8wk5yARBEARBEAQhg7ZYEARBEARBEIQMcpAJgiAIgiAIQgY5yARBEARBEAQhY8A7yLT/mCAIgiAIgriQ0AoyQRAEQRAEQcggB5kgCIIgCIIgZJCDTBAEQRAEQRAyyEEmCIIgCIIgCBnkIBMEQRAEQRCEjEHlICtUGiiFAf3DfwRBEARBEMQgZ8D/1LSc1NtewZJUK8zlB7Bl5Qc4WGWVzhAEQRAEQRBE/6AMCwv7g/R9wNNSfQylxTXwG3k5poxSIn/7UbQIgnSWIAiCIAiCIM6dQbXForUmH0XZG7Ah6zgUoTGIUEonCIIgCIIgCKKfGJQP6amUzDMWHbDRdmSCIAiCIAiinxmUDrKXtw/Q0YoOh3SAIAiCIAiCIPqJQekgq1UqwGoBPaJHEARBEARB9DeD0kGuLS+DRTsMKcMj4efjA403vf6NIAiCIAiC6B8G1WveXIiiFinX/gJLpkTCSxBYvAn7XnsUa47RGy0IgiAIgiCIc2NQOsjKxGVYft9Y1G/4EvvKTLA67DBXFMDYTg4yQRAEQRAEcW4Myi0WkamjENiag50bdqCwIA+lxwrJOSYIgiAIgiD6hUHpIDtRCKDXIBMEQRAEQRD9zaB0kNvb2gFvH3hJcYIgCIIgCILoLwalg9xh7WA110Cjkg4QBEEQBEEQRD8xqBxkhcoHPkFJGDcyGmgywmSTThAEQRAEQRBEPzGo3mKRetsrWDpaBXtLGfZ99i+syzFLZwiCIAiCIAiifxhUDrJveDKC1Y0wVteixUY/DEIQBEEQBEH0P4PyPcgEQRAEQRAEcb4YvK95IwiCIAiCIIjzADnIBEEQBEEQBCGDHGSCIAiCIAiCkEEOMkEQBEEQBEHIIAeZIAiCIAiCIGSQg0wQBEEQBEEQMshBJgiCIAiCIAgZ5CATBEEQBEEQhAxykAmCIAiCIAhCBjnIBEEQBEEQBCGDHGSCIC45RHUw4hKjoBZP/dK+6BuHIfGBUMqOnQ8UKg2UAv3CP0EQxEBGGRYW9gfpO9GPiGyQVbPphwOCdIQgzh1RFKBRiXCwT8JzRNEbkZNvxs1334lpUQZkZRXBKki6DJqJZY8sx/QUPRpLjqKu1dF5vB8QRR9Ez7gDN95+J+YvmgO/4vUoNFIbEgRBDFQu6RXkpJFqvHOFCiPPsGKUMFyNd6/yOhneWaBCxllWmLgTs3CaBm8u0GCp7uKsFImRKrx9pRqLfc9f+edLfwOd5MwheOwyPfS9yDF+2WTk/DEByeycKIbghZdnY+99oc5zYuxQrH49Ew9G9k1+7mTd/eR0HPj3RDw8pO86HHsjq+M/UjDZzXY4k7wcMTMVh16fjZw35nQN/0zBtD60dW/1E3UReOPfs7H2Rl2fV3hFUY3oy3+O25eMQtvO1/HKmxvQ4nKOOdXf4N0X3kGuMAHX/uwhjA9XSif6gYSrcf3isRDyVuLzN17FrgrpOEEQBDEgoS0WZ6GqwoYXs6zO8H6FuytKDljtAmx2wCIduVTpm/4GNsPGDcFdUwMRIMXlVBjaAb0G4TwS4I3wDivaA70Rwp26QC+EoB1V9c6kfUCExeKAxepAxwVU5ZnkdZJ3HI++fBiP/KcYWR0iDAcL2fdsPPJmBY5ISc4FPuGceNVQTEYdXlvdCLvcqfUA5ZBrcM0VMahe9wI+XLsX9e1dHW1BcKCtchfWvfov7DSn4PIbrkBQH53x7mhjYqFDIbK+3IT8ggIY22n1mCAIYiBDDjIb/840BLY1i9hX43CG/Bbp4FkQ2AC+cZcF96y34mvzj3wgPA/6G8zUNlhg89EgVM0iYd4IK2tCfoAXoljUP0gDv5YOVPdx1iQI7fjghW0Y9/O9eK1s4NiVYG7G9wfrseGAGXXMcW+vb8RGFt+Y0wJjH53ZLoRE4+GpXij6vhT/a5KOeYgoKjFi5gwEG7fh2x9OwHGGegnWUvywZic64mYjM7F/uki7nc2WoYRK1RknCIIgBjaDykF23dKfHKbEE3PUeH2+Bs9NVmKSX1cXbWQaSzdXhST5LdpwFV6/Uo2l2m7uHEujZ+ee5PktYPlNUmFiH7cliMFK/PtKzantBFcokdbLChTfn6wPUuL+qWr8i8nw2uVq/H4sS+vdx3JZfrGxSvw/pwxqPJvJnAE2EHfPjacLDFHiZ9PUeJHJ+tpcNX4zRolh6q4pL5r+eF6sfg+w+r3M8nr9CjWeSFMgVtnX/BRImpaM956Zhqz/TMfa/0vArDl8O0AG7g2RycbKDR0Rj7//ejJ2/GcW9vxjIv57awRSNLI0YXFYKW0j+GsGu2xiE7D6zcs6txK8PgsvZHamtRs6YABzkAMBdYgXFHVmVKq8EM3+JUrvDZg64Lq77k65HHF4ErbKtzCcZuuCu/K6CJ+QjA/+MgN7/z0VXz86DJeHnHIa3ZXXE1xbJ64Zn3TacrvDZbrs6jikW+rw8romiDLH1jN5kzE00QtN+QdQJZ7dabflH0RxRwCGpsRKR86NjrZ2dj36wMtHOkAQBEEMaAaVg9yJgHkJQE6hHe8VONDsr8R941WI7cVhcA8F5g4FDrH83s+zo0WnwP0sv5i+5NfowOt7OrcUfFR5+nvgSn8VHpmoRCobMtfmWPFuoQNtzLl+JFOFuD483a4OVuFh5uiGtjrw6SE71hmBhUME8DUrOc5ymfOcbHfgm8M2fFDsgCpcicczVAgeAPpTsLZ8jNUvhdVvFavf+8cc8IpS4Qk2edD1IT/V0CH450+iEGuqxr8/yMebeRr8ZJZeOnsKRXQ8XnloKMYzJ+zVD47gz0yB3hkj8NY94af00lCPF97MxS/fyHHWC/XVeI595/FfsuPvFnYmQ307auDldJCjg7xRZ2xAXas3IgPAggaiqQ0npKRulcspP4FfO7cwZOPv+9qlgz1xV14nQgBunqHAD1/n4emv69A2JBbP3ReLIZ7K6yms3GXTBWw6XbkumCPs7auCf3wsHsjU4MiGEqxv6+rYeiSvMgj+zDltZHK5haMO5kbAP4A1ZD/gsFnBrjZaQSYIghgkDD4HWSNi134bVpc7sK3Yhn/kscHbX4GxftJ5T/EWseeADWtZfltL7PhHPsuPOXnj+pCfYBNxWNpOUHCG7QRxMQoMFe1YscuKdRUidpSycg/bYWPlTtRKiTwgIUKBUJsDHzDnfCNzzDcfs+OzGuY4S+dd8HLjHSxdlg3fVjB5i+14Pl+EJkSBzL6ubPWj/hLjlIhnzrG8fi+w9vVh8k32khJ5QNLYEMTbDHjhpUK8v7MWK1fn4bl9NnR/9GrM9CgMt9bhzy8W4j2W7stvC/HgKgP8xkRjkeRvCZZWbMuqxRoWDjPHCW2t2LK7xhlfk1WHgybJeTN3oM6hRkiAArHBXqg2mFFj8kIE03F4gBrGRgts0iqoO+VyhJZWbOVbFljYV8/0exrcldeJrw1r3s7Dm9trserbAjyy1gzNkGBM9+887ba8nuJrwdr/5uMtqdyfr2noUu5JtFH494szseu3iRgOIz79vucF5ZG8GjVUrMp2u006cDZsLC1zwtV9MDwJhcobGm8f+PhHITVtCJQtx3GCTV4JgiCIgc/gc5AtIso7pO+M5mYRZggI6KuDx/KrkOXX1MTzcz5fdd4I82EjdRtQKhurrdU2PLDGgpW8cA8JdOYnokyWX0WTo8cWi85ymf5k6ZpYOl5kqG9n3GP6UX/BXp31qxIU8GHeDA821r6NrH3D+jBxCNdpgIYWFDFdu8ivakZ3FzNCz5yg+laUKFXQ+iidwVLdinrBB7ERUiJ3cbSjplFACMszKhCoqrehmjmT4cE+CGfxGsOpyvRruQx35XXS2oxjMmftBCu3nU2pAnXSgfNFaysKG6TvjMqa9t7Lba3D357fh/s+qUGDIgBzMrpP9zyU9yIw4uYX8OTTL+IXv38K145ow9b3PkKRndk4QRAEMeAZlFssujh+LMLjfR92estP4Hd4zxsKrnWp3i74g30OBwt9KNj5H93y6+39y65yuzgQzv87F3n7T3/ML4agV+GZBRq86gpTVQhi+Sn6kp/0P13q172+DAXPPG4ovuQrlq7weBwi2eWh8vgKaUc1czyD9XpEBrWhqo45gY1WRAT5I1QP1JpOzSb6t1z35XXCDnbfgsPb7bzDyu3uwPZart2CgqMN2L6hFJ9WKjDt8ljnq/PkeCSvQ+z9+Bng2fN94n2lZP0/8d6rz+ODt9/BrupgTF58OULpB0IIgiAGBX0Yhi823YZTFuFDonwc6/wRhe7Dbme85+pSb/nxo+cPB68EK6S/lO+sq1RvF4peJOi1XOf/DQz9iSxzscmGl3dY8Jws/HWnDev4bX4PMbXaAK0GoTKBw3TqHrfgHcx5QmUFHn9+H+6Vh39k493jUiI3EQQrqs0O5iDrEKXtYM4xcMLUjtCQAIT5WlBjOKXB/iyX4668gwlBaMG739ajPTIa94zruoHXI3mtbbAw1ft4u7v3R+t8oM7S3vdXr7TW5KP0WB6Kc7djw7ajEKLTkdI/W5oJgiCI80x/+WgXDo2AWNm2QK1WAL872yB7dqmmjY2EPJ1GOsCI0imgZofruo93LF2MLD9/f56fiAbZbVsXFu7QMO/vXJVW28by8REQLxvv+cNyr16pxg19+GERk5RfnCy/GH9FV8eV4So3RuZBaJ3ysnPNnXHOxdKfoYOdZzKYjA4cMYjOkNsEKBVdHXh3KShoRINPGH56XQiSA9WITYrEo1O0PVZOqxs7nHup6/MbsDOv0Rl2VNqgUjOHvXtihp3PNKSJQG9UGS3wDdUitr3d+UBei6EDmnh/hAntqDZ0puF4Wu7ZcFdeTzmbvOebhp3HsapejSsWRHd5GNcjeR3lqKsDgmMSoXHHmHQJiNQze6/pn1/0UCgUg7CzJQiCuHQZfH22RcCkcSosjFVg2lAVHhvORDA7sF/muBkrmYPlUGBJpgrzYhSYMUyFBxMFNFTasY+N9V2wCpjK8lvA0k0fqsRjKT3zc1HXADQpBMwZocL4cAUyeAgSTg64er10jIVkvlDFBsXECGXnsRABvlK6sgoHSgUFbpmkxvwYAVPiWbmjlFA3ObC7D+95La52oF7F8pugwtwoLq8Sy6J6ruLyco+zOt06kacTMD2B6Y/Ja6l3IEu2j/hi6a+ozI4yjRJ3Z6gwJ1KBSbFK3DtRjcfGKBDkhk/TndYDRfjTtjYkXD4aX/x1Or55IALHj/AdzV05tLUS+f5ReGp5Am7KDMXCaXH488Pj8J9bwxHRi7dVXN0GMTwUd84Ox8LMMBaCkORzqoInjGy2FqnFUPZZxg8wh9kU4Yd4sYM5z84kTtwtN3RIMOamhzhDRgjTr9Ibo8eGdh4b6Qt/SX/uyuspZ5NX1Gkxh9Xl8rE652qud4i+s25pfv3yQxuC2IT/bjTCMSQGd49kBUh4Iq8gVCEn+wQUKTORGXYqj97gr4+LmjEDMeIxHD3Qh1sXvaD29WH1akd7LxNHgiAIYuChDAsL+4P0fcATHKrEDK0DH+cDk4YrMYs5WA6zHSsO2nCEOWou+NskDhmAMDZaT4tTIl0HVJ+w47Ujdhhl70B15qdzYGUBMJk5bTPZwGnvJT8XjhaROTwCMuMVmMPynRSjRKZexNbjDudP1o5NU+NBVq+J0UqM8hcgKAWMYN95PDMEOFjscP5wgqPD4XwLAH+zwWTmBI4PFtBhdOBtVm5BL+WeDXurAwUdApKZPqZEKxCrEPFFOZMpXEBeiR35Up683EMNAqKZnFwvY/VAQ60Db2TbcMJx8fUnsvodYPUbwpzjWWzSkMH0omCThhX7Hcjuw49rCIIdxw5WYcWWGmzadwKvfnEcP/iF4sGxKuz+rhL7WzvrKJobsKkUGDk2EtfNiMRlyb5QVFbhL28WY4tsZd2FoawZjrhQXD0jCoszw3H5OH+Yd1ewyU1nfq3BQcyx18F+rBIvH2QeUYcP5l4VivhGEz5Yb0CltHnW3XJn3TQRz18dgfmsrClRKkDliwnsO4/PTxGxeYMB1SxPd+WNTIvFtTFt+Hp9PSqkuiAiFPdN8EL2D6fkcHE2eTEmCf+7P8HpOEer2EQwIrizbqME7F5XjzKpDHfL7S1dU5kF8TNisDCiHV/uaEKrB/K6aCmvgz5jHiaMCkRtbk7nHYtu8B8UCZlwF25cmITmzW/gmxxTl3cv9xXvhJmYnNyOo+t2o8aN9zATBEEQFxchNTX13Jd4LhD8h0J+Ey3iuW+tONoPgxZx6aGZlob9t6nx1//bj/e6OYI/RkjerijCZ2DpXcuQojWidMsKfLouFxapLxH90zHvJzdh7FAtGve8hw8/2w1zPzmzQupd+OUdqShd9W+sOVCN1rY22MlRJgiCGLAMvhVkPbCjyIE6cpAJN1CH6DAn2R8JEb5IiNXj1rkxGGGpw0trTKj9EdoQyXtmecWW48jN2g8DghEd0oGCw6UnHWTo05CR0oHc/72Fr3/IR9s5b045hVhbDnPwWEyYvRBTZ0+Hb/F6FBp/fO1BEATxY2HwrSDHiPjreiuOkINMuEH4FWPx3fWdrw4QrVZUV9Tj7Q8L8GHpuT66NjAheQeuvKIoQKOLQEioHzoqC2Fspz6MIAhioDKoHGSCIAiCIAiCON+c+XFugiAIgiAIgrjEIAeZIAiCIAiCIGSQg0wQBEEQBEEQMga8g6zVaqVvBEEQBEEQBHH+oRVkgiAIgiAIgpBBDjJBEARBEARByCAHmSAIgiAIgiBkkINMEARBEARBEDLIQSYIgiAIgiAIGeQgEwRBEARBDFBEdTDiEqOgFk/98LHoG4ch8YFQyo4R/Qs5yMSgRhSVUCoEKUYQFxZRVEAhkP31FdLfhYH6ycGJKHojYtJtuO///Rm3L0iDRjruxD8d8x98Fj9/6BaMDFVJB4n+REhNTR3Q0w/+HuTm5mYpNvgQI1V4J0PAl99b8FXr+emgkkaq8ZsYEX9db8WR0ww2CcPV+H3SqfmQaLPj32us2DeIBydRDMOUh36LuTFGbPvP77CpvG+yxC5+FndkHMX7v3sXpW7oIzT9aozW5mPH1qNo6yW9mP5T/L9bxkHZ7ZzYsh0rfvc2ij3UOa/fnTNCpBhg72hEY3UBDq79GNsLGyEOwDbs1EEYtvzlKWw1DLz69QeiGIRxU+7DVH0j9u54GbvMfZMzYsTDuC66BKs2fIUKN9oyKGI2hnuVYn9pMdq725iox4RpD2OSvh15e57HxjqH0zlKGf8LXBGuRkXu37HqeJuUun/xVI7+0t9g4Uz9Rtw1z+H25N149bmVqMV4XP/c/RiW+wb+8v4eNoYswYOPpSPnb7/D5lrPdUT95ODsJ0VRjejLH8NPLg/BiU0fY90P+1HfLltBZpNL3+hMzFh6IyYEl2HdKy9ib41dOkv0B7SCfIlQVWHDi1lWZ3i/wiEdHew4YLPYYLNaYb2A07yw0fMxJTMJ3lK8B0Xr8Nk7L+OTt79CiUVE8+HP2Pf/4NMPv0O1lMRTxLYcfM/y4Pms/HIdjtlTMOve/8OsWFo5uHjYYXPY4bAzG7yA9hccOQXj4uK6riZ1wQJzqwNDIhIg8NuvimEYGtzMjkmnBwwXR38XizP1G6YGI6DVQ8cjuiDoOlpg1QfCj7dfQAC0MIEn6RvUTw7GflI55Bpcc0UMqte9gA/X7u3iHHMEwYG2yl1Y9+q/sNOcgstvuAJBtN2iXyEH+ccCuy7OdGm0NYvYV+NwhvwW6eAgRxDqsef1R/Hsb5/GtoqBszogNJWiIPcg8nJK0cTmIlZTEfJZPD+/HK19XcVwmFCRc8CZT97ejVj7xrvIaY/EhBmjpATEhUYQGnF499/w8oY3sLdpIK1OeaHBVAyED0cM6+GVISmIs5aj0jKwVtAGrv4uPM0mMxw+OmjVLBISAv8TZahhjrKeRb2Yg6xpNaHJ6kzqMdRPDr5+kt/1GTFzBoKN2/DtDyfgOIM+BGspflizEx1xs5GZSC5df6IMCwv7g/R9QKLRaGCxWKTYwEZks7e4OBUeHq/CrcOVmBIk4ESrgKkRAvJK7Mi3dho5TxcUqsLd41T4SaoK1wxRYIy/gCqjA0bHqQthZJoafxutQG6RHUbpAhHDVXhjthKaSjuOSgNecKgSM/xF5LQocOtEFW4brsK0EAFNRjtOSGXK0QcrMScIyCp0oKqXC4/XL0Cq352sflcnKDDSBygzOGAWe6Y/E+qJD+PX96WgfNNBmBTjcf2zT+EKfQF2HTVATL4Nv/i/iTB8vxcGCKxcAdrkhbjqlrtw5ZLrMH3GJCQE21FdVIoW+6lyxWG34vFfPYjL5y3GzCsWY8bUYFRsOgBTN1n4Laqwibfi+p/cjvkLF2JskhZG7xlY/tA8OPZtQXlbZ3p9ylykR9Wj1JiGBXffi/nz52L0sCA0lRxFfVvntEMMXoT7//gLLGJljgxXQPBPwURX+ZdfibC6r3GkurtuwjHisonQn9iOrHyTdOwU/Jbgz2+ORoMx9bTlclz1y950CA0uGe1m6EcsQIrfcezbfQxWdpzrzz95Aa685U4suHop08sUDItSwFBcBLPMDoYs/RseWhqKks3ZMLvsKvVuPPnLJVAf/h6lzZ3H3K2fKGoQPukWpuc7MG/hfIweokadUYvRI7U4vm0zyiQ9u4tC5Q21Rg2lqntgnb/dxiaC7uenir0ZD2TGo6ooH40YgQXzH8B07+M4WNcAMeRK3Dt9FBqOHXHaDtefX8h0zB53DeaMnIvMoaMR42NjslShTWb3YvBC3Dt7GaYmz8JEFjLj9Sz/vJO6dCGKKgTHLsDCjKsxM2U6Rob4oFE1DrewdnFU7EOVrTO9NnQiRuoaUNGaiJkTl2JW8iQMD9Gh2VgCk7S0KvpOx82X34HZrLxh/sz+vIYg3VV+0nQENW/GMWe7eSM6bhJCjPtQEzgO+obdsEUuQqz5IHO4UuDXsAN5jTZnnhzf4KmYNfZqzB55GSYOHYsEvTfMDWUwn0rSqZegyZjF9DJzxGWYNDQdQ3XeaGbpZFm5JQfHXf3xLRt3pIfB3HKW/NxsN3dxt99wp79yt98QfRIxLjMahr2bcSJyJiZ5laEyIhRtW/fAPnIBxuuKsGVnvnNLjTvlcqifZAzafnI4Ji6dBm3uF9h49Oy3DhwGdr3MmIHY1kPYe6xROtoVXaQKf56uwtIYAaXldtT24dq41KDpRj+iDmbO8RglQlsd+PSQHeuYXS8cIqD7riClvwqPZCqRbHfgm8M2fFDsgCpciccz2IDa51skCswdChwqtOP9PDtadArczxz1mD7kp/BX4jFWvxRWv1Wsfu8fc8ArSoUnxiqh8zA/S20tmn1DEcQcbASGI7C9CUJoJDQsH5+QEPjUV6FW2vGhiFyIm+++GvG2bGxZ+Q7Wfp8H9ehbcduyyZ23Gl1Ufo9Vzltz/8G32T07VBfKuMW44bqpCGrcjU0rP8TWY3pMnpIgne1OCjInq1GwYQXWfHsIlpg5uPZW2S2rpv3YuOJNrPzgDewstUM07sE69p3Hv2DHd5V0JvOcFEyYpJLKPdiz3NOhCIdeD9jMDXDdOVdELMBNd1+DOGs2tn/5LtZuOQrliBtw861zPG63U5y9fqqEa3HD0qkIMO3C9ys/xo7j4ZgyKQZ93cgz4uYX8OTTL/YIT/zpL5iXKCVyE2uzAS2aIOj5yhyzwwB7CwRtiPNpcC/fQHi31qO+Mymz+2lYPGEWYuz52H34f/ihqBjqyKuwJH0UfOT6a9yDb/d9gtV7P8bWSrN0sCdK/SwsGjUOurZs7Di8Gnvq/ZE+JFY62514jIlXobRgNTYV5MGqm4j546ZA7yq34yi2H1iJdfs/x0E28RVbc7CZfefx9Qe+wIFul4GXqhJFdSrEhWVgSKgdJTUmeHEdyBC103Dl+NmItuchK/srbDqWD3vwLFw5bvKpchkK/ylYlDkXcWIRDuR8he8L82AJnsH+dyZChO52dRY5OG7qr5N45kgoUXyG/NxuNzdxt99wq79yt98wGNEEHd9lAX1gAJoaCtHSGgi9jsXZH7HBxCZ4nVA/eQn0k8og+LMxs7HB1TudBUcdzMxA/AMCpQM98fIWoFOyTy+WjnxjtyAHuR9JiFAg1ObAB3ts2FjpwOZjdnxWwxxn6byLuBgF4h0sXZYN31Y4sLXYjufzRWhCFMjkjmRf8Bax54ANa8tZfiV2/COfXXbMSR7nJ533gMQ4JeKZcyyv3wt5Dvgw+Sazi8sjqmpgQDACQ9n38HB4Fx5GVWAk+KMUoSGhsNRVo8GZEIjOnIoI6wGsfetD7N67G9mbV+DjdUegSZ2JNDZQuBBa2eDPb8WxcNx4+vuOoamjEWTLwca3PkbWvt04tPEtrDvU1rvR+7Qg56N3sGMPL/c9fLqpBMrY0Rim7TwtWKpQfDALuSxUmlmn116FwgO7nfHcg3tQ0djHHsenCbkfvSuV+z4rt7hLuadQQu3jC423D3z0cUhbfAvGBTcj70DuyYdPwsdPRiTT3zom7+69WU79fbT+KNRJk5HK79X2BTfqFzU6HYEdrNz/fow9kp6/Y/bc111/Jev/ifdefb5HeP+1V7CrQkrkLmYDTNBD78u+a4OgqStErU8wglg0yC8QtqY65ph0EhaTjhD7UWzesw7ZlTnIK1mLbwqK4RU+HskyuxdsdSiryUcxC5Wtp7e/oIgk6B3HmO7WO/M7WvQltlS2977+rWlDHnNS91XwcldjTVEFFPphiJc2Ggv2epRV5aKQhWq+F9FWj1KWJ48XVh1BTXvXXNVKNUqrC+ETNRWJigIcM3qzY9JJCS8vO2rK12Ptng04zPLJL/0WqwtLoQxIxhCZvCHR6QgX87A5aw0OVuai4PhGfH04FzZdGpK62+lZ5OC4qz8nmlYUHPgaB6T8VveSn7vt5i7u9hvu9Fdu9xvNDWhy+EPL+uzAQD3MxiLm8ARAF6SGv84PrWbjydvs1E9eAv2kRg0Vq67dLrtFc0ZsLC1zwtWnN/jaYgse/c6Kx1nYKd29Is4MOcj9SKAPM7o2EWUym65ocvTYGxwmpSuXpWti6fhaSigfyPuCRURFh/Sd0dQkOvMLOO0TEqcn2KuzflWCAj7sKuXB1iyikQ3tYT06pLPQdgKG5iAEBCuhCwtDc9VB1IuhCFWrEBQSBFN1xcmOy59P9Q1VMCg6OzgebLU1aBaCEcAdbA/x17HRwlyNOpleamuqet+rzepZK7sz1VhbByv84OepvJ7SVoVa2SJaY219r+UKflOwTFpJ/cVvf4trJ2txfN1rWJd96g0vgYHM7WuoQp1sR1JrVTWamTuoP/Vwt2e4UT+nnk2VqJWVW1d9Gj27QStznEqP5fUSCmHs5gieFeaMNVr08PdVQqsNRGtTPnOYmYOsVCJQq0NjS+0p+/NmQrUxh1rwglqlcQZbcx3TXyAC+mAHfl7snzrqYJRd54am06wIWWphkr1cwtxsgh2+8D39k3hnRMkcZHtdNnJaG2EszUE1m6Z3d5Athp3YfGQPqu0qqCR57ZZmNtT6wUdWrs6HtW9bHepkcthrVuHNdfzNE9IBF/0sB5tBwyDv13rJr7/bzd1+o1/7K4cBZrMALbtQ9XrW1zIlNjayPpNlxIsxy1YSqZ+kfrIvCKyfa2bjej05x25DDnI/4jQ7Zu1yg3f0sl6k4FpnibrcWnH+n8CMWIp7jNCl3HPJj/nFEPQqPLNAg1ddYSpzaFl+nr9K8wSM9QoEhIQgNEwHQ/URGAxhCIkIR3CwHfU1p55XVrCChZgrsVzq4Jxh+Rzo2Rxb2RdLdQrfRStOeh7hiN1udYnOdOd/m5Z75Yqt2fjWuZL6d7zzr/+Hf/y/X+Pj7/K7vD5JwQ1LdHSzKx5TdNpcnzh7/XjH6zrugv9P73o+O3wPsmvg7xo0UPa4pX82amFsUUDvF4BgNlo1NBWjoTWIOcfMmfBxwGA2SOm4HMz+9DNwy7xf4aeuMHkS/KHs23V08o8MVv/TSdBFz8507J/7UC5HpWB1dhRh+6538FVRORws3s0/huAzHDMyH8T9C36N5S55x43qsaLFr8vu7Suw+jkcbPLfi2L6Uw5OF331kl9/t1vnP/Vspe5H+re/qnfeItf6D0NAgJHf+GAOcjN0QYnQ6kQ0NZyyU+onOb2X+6PpJx1d07mDM/c+bxEheqPP5kD0xGmazEpl1wRTcE+DZeOKM1EX5Tv/j10UsuQO59XlHA5kdMa7Xoycbumc+Ul18hDeV4hNNry8w4LnZOGvO21YJ1s9cAdBaEFdbQsCgocgJKQNhpoO5iArEBQew2bydaivOiWJgxUs1mzBZ7Lb6n2+tc5obW0FfHXQyhTNZ/GD0ujFRlQXHkXpsXyUldegpZf3YnGHhc9uutoVj7HBQGYwIut8+aDY3V64rTrHCQ/p7JS75sdL7ZK/B/TnHmRBaIOpqQ0630gEaDtgarbA2CxArw2D3seEhuZTAovc/pr2Yu2u9/ClLKza/SkOeGj3nDZrG/NUtZDfFPLz1vZZL57RrZRu7S2KWqSNXoLRWgP2H/oYq1zy5hWh+zMT/LrkdnRh6u05/d1u7vYb/dlfCYIZjWYb/HQJzDYb0GAGCyb4ByXA36cZjaZTy/fUT56BH0s/yfoOCyvDx9vdPZJaePkAlvYfySuqBgiD8hoYqJj4E6s+AuJkSzAx/Ilz6buLWildjGxJR+svON+BWSv7TZSaNnaFaATEym4nRukUULPDdd2vA5YuRrb9yN+Zn4iGXn4TwOK88E/f+IYOdp7JYDI6cMQgOkNuE6BUdHXg3aW2rho+QWmI1FahzsDqzv4EDxuJQKEadbI7zk2NbDTzcqCliHdwnbfVS6pboFTzzkpK5AG1xcVo8xmLGYvGIpR1+PqhszAnI6qXyYVnODvYbh3dQMBkZMoNiECobNO7b0QE6zoNaKiTDjCMPJ02sst2mZDIKKgc9eCnPKXJzEbzwCiEyew0NCKyz/rp1z3IDENLPbz8klj9mHzMFzC1NCIwOJFdH/UwuJ7cYTS1s4uPXVwtxmJUGEqcobyp1bmq1Be7NxhPoF09HJkjhiOIDXT+geMxJTq0T5NWOU6H9ZztLxRh/mo0VW/H3qpClEvy1lrEHv2CuY21r3cI5D/WpQhbgvsWPogp/ucqzbnjabsJ4TNx7UO/w+3XZ/b6UJa7/Yan/dXZ+o2mhkZogmIR2M6uVxa3mExQRcdDJxjRJHvGjvrJc2NQ9JOOcjZOAsExic4H2s8Km1hF6tnYWnP6DpLf7UmNVWB6jIBQ4eJft4MBcpD7keJqB+pVCtwyQYW5UQrMGKbEsihmmNJ5F2UVDhxnvTd/JdvcKAHTE1R4LEUBS70DWbJ9YMZK5qA6FFiSqcK8GJ6fCg8mCmiotGNf997LKmDqOBUWsHTThyqd+cHswP5eJpR1rPdtUgiYM0KF8eEKZPAQJJy8EIvK7CjTKHF3hgpzIhWYFKvEvRPVeGyMAkF9uK7MNbWwhI1AgoU5xCzeWlsHTfJIBBlOvcGCcyJrO6q1U3HVbUuQkT4BqZnzsfiex7FsKRvIZMtafrGjkZKa7gzxQayXUwUiJm1s57HkKHhLclhzVmJ1Vh1CZz6A5b97Hg/eMRHGgqJz7rDra2shhqVj8tRJSE3PZCENod6nFCP6D0Eyq8vwtCFg8yOoAxM765YSC193Ors+UrNvJ6rU4zD/7hsxISMTo2fejBvnj4C1cCdyWd/swnxgB0osyZh5562YND4TYy67C9fNioX54Fbky/aZukvl4UNo8BqLeXd1ljtm7t24YpR3nwfYft2DzGhuNsKqHYpYu4ENgUBbiwHqsEQEtLGBTlbJ2oqDqFePxdxxc5AWMRJJMVNxeeYdWDwqFVpZs/nqkpAQnuIMUb7M/hR6REQM7zwWEnryOrLWbMSmMhOCEm7ELZc9jtsy0tgAXHHO9mdqMbKLIAUZ8aOQFJnKQiKCVJ7aVQ2qzRb4R8/DnIQxGBaRhrSka7AwPhjdTaD+xCHUCsMxM3Mh0qNSkRw/F1cxnaiaclEgm9C7i7v6cxd3281F6FiWLj4WcZmzMZKvSnTD3X7D3f7Kxdn6DVMj65jDIxHaYITzxV6mRrSERyDI0YgG15PMDOonz43B0E8KQhVysk9AkTITmWFndtP4L+pFzZiBGPEYjp7plkmAAveMUeHOeAG2vnbOlxj0HuR+xN7qQEGHgGTmcE6JViBWIeKLcmByeNf3IDs6HDjUICCaGf60OCXGsplfA/MU38i24YTsPciCTcQhNqKHhXamS2edefUJO147YodRtrnJ+R5knQMrC1hZzOmdyfK1m+1YcdCGI728B9nRIqKMdX+Z8QrMYflOilEiUy9i63EHWtgsU2T1O8DqN4Q5x7PilcgIFqBocmDFfgey+9IUjkiMuCwd/sWb8V12JURrONKuyIB/yWZsOHSC9wbOZGLTMeQzfUWOmoaMyZOQkhAFRdVOrPvocxSxOrtIvuYPuH7+JKSNzURiuA8EVSiGsO88npoIFG457HxvpSC0oy53C3bv2ou87K3YunY1Cn3GY9YoH5Rs6/l+zy7vzwwbh2npATixc9PJ9126aDlxAmJUOtInTceYseMxYlQ82g7I0o28CctvW4xRY4cjUMkmHuGpnXUbrkIJfx+0VIa75faarhfE5iIcY5ObkJQJSJ/A9Bfjj+b81fjqs++6PJghdJShsLgNgSmsk2bpkiM1MBz4HKv+twdNMvtzt34OYwGONwcgduQEjEofjUhFITbttSBthF+f3oPc74ihSBw2HP6GLOyorodoD0Yym6BpDXuxrar2lP11lKOkUUBoRDpzoMYgMSgEQtMhbDm4EWUyux8ycjkWpoxGclQa4v29ICiZ48G+83hSiIiS4kI0szwFwQJjzX4cKjuC4sp92FOwDaWqkZgY6YWK0v093oOcV5x/6l3A2uGYEKVD9fEsVHT7gY9WM3M89CkYETcOI6LTkBgRhY4TrnSd70GOsuRib43s9owQgeHDUiDUdb4HWRCsqDVUQ6VLwLCoMRgeMQR6lGLX8VYkRupRKyuX66XUZIU+JBXD+ZP5QXpYjXvxffYWVMlejuCuHO7qz9383G03Fx1iMJJS46Co3Iat21lZ3VxBd/sNd/srF2frN6z6VEzNiIejdDO25NSwA2EYcflYBDXlIeuHbDRKOqB+knEJ9JMt5XXQZ8zDhFGBqM3N6byz2w3+gyIhE+7CjQuT0Lz5DXyTY+r1uQBOWIwKi0ME5BRY8f2P/Gfd+wshNTX1/E3V+gGtVovm5j4sUxBELygzH8Kvr/fFt0/9Bbu7degEcb5RxizD8tHe2LLxv2yySfY3WLjU+g3qJwcGivAZWHrXMqRojSjdsgKfrsuFRXKARf90zPvJTRg79P+3dx9wcdwHvsB/s7uUBZbeO4giAUJCvVjVtpqr3HIucVxSzrnk7tnPueTlEqdccsn5zu/e5c6Jc7kkdlxjW7Zjn225yVavCJBAiN7bAktZWGDbvP8ugxgQWCwCWUi/bz7j7Mz8Nf9pO/ub4b//DUDP8T/hpdeOTvpDXq72zxtX+uDBUCee/siG46oflKHJsYkFXdG0oenn/syYsWgjtq3JgNxZjfqRzm+JZpFGn3iuOUFK9DJsSE4CLA1oUTWlosvP1Xbd4HXy8uRs24dXn/op3visCpqwCIzpLdE3HEH2Uhz4w0/x33+ePBwP0yA9GOhpciB/Gs1DrlZ8gkxXNMOG7+LRm9Lcr512C3qbT+PQmy/gRMOgexrRbPJPeQAPZYlQLMiOQZjN5cg//S6Ke+dGs7Gr1dV23eB18somG7R4coMGhfuteHm6P9ZyFWJAJiIiIiJSYRMLIiIiIiIVBmQiIiIiIhUGZCIiIiIiFQZkIiIiIiIVBmQiIiIiIhUGZCIiIiIiFQZkIiIiIiIVBmQiIiIiIhUGZCIiIiIiFQZkIiIiIiIVBmQiIiIiIhUG5FmmjV+NW++4AYvCZWXKxKZajqZHliVoJO5bIiIiujBtZGTkj5XXlyVvb29YrVZlbG6RZR2SFi1FvFyN/FNGDEmSMmeszyvnHTYPS1auQN6iXGSnJyMmWEJfeycsjomXdSUwJGQhIwLoMvXDOck+84Qs+yNj8w5sykuE1FyF9qGJlznT9c708i4kLHc7blgRhPayZliU+mTfZKy/8Tos8G5DdasFUKafd14FSTB3dGLgCj6viIiIpopPkGeTPgkpkVp01dai9/MC0iTlZP9UrF6Xh2ipDeWFJ3DybAvkyFxcsyYDfvKV+zQ0OG4+5qeEw1sZv3gynA6HGGQ4lCkTmel6Z347PCPLGkTMX4AotODs2Q7II6F5ovMqKhfrVqfD/wo+r4iIiKaKAXkWBSSlIAydqKszK1MmNlm5gPgUREitOLW/ABV1DaivLMKBUy1AeDKSDEohuiBJsqBq3zt44y8f42zPVfSEVAThhal+6Kk4g9ohZZow2XklRaQggecVERERpOzs7Mv6kVFAQAD6+vqUsblDlg1YuHUrMiz5eGd/NWyTPEH+vHKRS2/C+vBafLL7FLpGnv55hSAu1h+DbQ0wDSrTZAn6qAwszklGeKAftDYLeoxVOFVYAZNtdHmuP8FvSjLieIEDqQuTEOzjQL+pAcUnTqPZ4nSXkTWxWH3TGoTV78X/nDSKcDlSRySW3bQe0Q2f4d2iDmWaLOpdgEU5KYgK0kNj74epsQyFp2rQq/pTvRy2GDduikHDsVL4ZmQj1qCDra8DtadO4kyrxf1kU/bPxPXbFyJkgv0ky040Hn0dRxrOn/d55Ig83LxhHnxHtmGoBvv+chxGVR0zXa8ny5vqcZuqkeO79+0TMEKLmBXbcU2MCUfeO4RG++jyJjyvvEORlBAIS1MNOs6dVxoEpeQhLzMGwf6+0MlWDPQaUVGUj4oOm7sMERHRlYhtkGdL+AIsnx+E9uITqDN/zj3I55QzxM1Hon8XqipH2yVLzkGYe3oxoAo8mqD52LgxB4b+OpSVVqO5x4mw5CykRwyhvtYEu/Jv/aLSkRKsh5/fIBorK9FociA0IQ3zouyor+4YDufOfkghaUiJdKK9ovVcW1ZEpGFJmh+aThei1aJMC5yPTZtyECTqLT1ThaZuJ8JTc5Ae0o/ahm44Rv6tXzQyUkIQFOAPc10ZKhtNkEMSkZ4WCWt9zXAYdFrR39uJ1sZG9PvGIszZiIKTpagT401NjWjtGLvNU2LrR3dnGxrr62GSwhHt34+6smb0j6yXy0zX68Hypnrcpmr4+A6gsVqcL4EZWLE4GgOlR1DUPvb9M+F55RhAT1c3LOptFeu34Zo0eHecRUlpJWpbumALSkJOejC6KhvQJwI+ERHRlYhNLGaB68lgVHIC/IaaUdM0+ZO2qZa7kODEJAQ7mlBwoAiV9Q2oqyjE/hKjuPtJRrxeKTTCx4r6YydQXucqV4CDZzuhCYlFtM/wbElyormxDXa/OMSFD09zCY+LhX6wFY3tygQhLCXFXe/JA4Xn6j1Q3AavuHlIHF8vvNFXcxj5FXVoqKvAiYNn0KkJQ0Kcn3uu5DDD2NCABjF0DYgbBVsPWkWwdY03NDTCNOB5GJNsYpktLWgRQ0ffxK2PZ7peT5bn0XGbIsk3Get27sTOLTkIRjuqqnqVOROTNFrodLpzw5iePgKDYZDMqDt9FrWNYj82VOP0wU/wwd4SdI29lyMiIrqiMCDPBm00UuN9MdBQg7bhlgsTm2q5C/D3FyHT0oteuzJBsPb2YBB+8AtQJowY6kXPgPJasJj74YAXfJWA7OJobkSbXY9YJSHLcghio/0x2NIgItcoPz+R4vp70Sd5nQtYTnOvu96A8fXCih51xQOdaO3shV3zRX2F7Yvn0XGbIlncbBV+9hn2FjRiSNyAxMV//v4NzroeO12BWgy33nojlkUrM1y6u9ArByJ1yWKkJ8cgPNAXOpsF5h4zBp18ekxERFcuBuRZ4JWQghivPtTXGc/1HDCRqZa7EHc7YVnGmId6YlwS/9NMsNjxD/9c42OmOZrR2GaHf2wsQly9GgTFItYwhJaG9nNtkl1cy5dCsrFVCVjuYVOGiHcaUU4pdI64A1DdBEhSF0o/+xD7y3qUKVcfT4/blMiD6DYa0VZRguoeLaLTM2BwHcNJmKuP4TMRqD87VguLMu0cczkOHSqFSdzIZS1di01bb8ItN1+PlfOCoP2cZRIREc11DMgzTJa9kZQUDW13PWpMysQJTKWc0x1CRFgaHnWTvYIQn5yIMN/RgOL6spwrkY7JVGLcFb2c08gx55pZBMQiLlTk44RYGIZa0NA+9jG3a/lydyUOuwKWati79zDKu5RCNKmZPm5qktSL8vIWOILmYUGclzJ1mPq8sltMaG9vh7HL4u4CT517XeeBpeUMDn/6Ad564y28+/F+FHd6IX7xcqSxtwsiIrqCMSDPNP8kJEdI6KyrRZ/rCeFkplCuv88C+AUhSJVvvGKysGxZJiJ1ygTB3N8vygUiUKtMELwDA+ELCyzT7ADE3twIo92AmJhoxEQHYailEePyMSyWAVGRjMEOoztkuYOWeQiSVqSsiwh47uA4NjZeEjNd74WWNxvHTc1afxY1fd5ImD9vTL/ZI+dVoKr1hVdwIPSi3j6xSiN0hkjERAWJQyxDku2wdLWirLRBnK/+MEyzCQgREdFcwF4sZlhg+hLkhJtRerwC3Z/zq2RTKWcd1CAqNR0JUT4ibOkQEJ6E3Oxk6HvKcLKs81yXcNYBHWLT0hAfroNT9kZgZCoWZSXC21SKgsqucb1YDPfkcK53CkMcFiT6orOqCu1W1Xo4+6ENS0dqWAh8gzToKClAkyo8uVgsWsRlZCIuWAtZ8kFAaDQyFi1HboKMpspWWEZ6OXD3YhEIc205WqfypbegeMyLM0BntUMXIG4QgvSisj4Medju1TckGhEhBhgMBgRHxiHaIMPca4OXGDf4SRjsGxr7C3czVO85F1jeVI/bVI0/vhIG0CtHIC01GtrOKrT2D4fkkfMqMcpXnFdeo+dVbxkKzo6eVwjLxqZrchDl44BD44uAoEgkz09DnG8Pqorr0O1pryJERERzBAPyDHJ9mS1zaRaCTSU4UdMz6c8LT7UcrCa0dNoREJWApORkxIXpYW0vw4nj5ehRhTZ5SJQzOREUnYBkUS4mxAdDbaU4dqISZlU5TwKyJMnol0KRPi8CelsTigsm6NZrqEPUC4TEpyA1NQmx4YHQ9Nah4Ggx2tSHzMOAPNjVAzk4DsmpqUhOSkBcXDCG6sYF+CmIWbwFaxYmIzExEdFBXpC0AYgSr13jCZEyWspbMaDa9zNV74gLLW+qx22qJjq+tp4BBKSkIckwgNqRruPOnVfx4rxKQly4L6zGcpzIL0OP6mbNaW6DyW4Q+ywFKSkpSIwNQ4CjC5UnT6KsyybOEc/XkYiIaC7gD4XMICliMXZsSEL7wXdwrGXybimmWo6IiIiILj22QZ4hrj6No1MSoB9sRE3rxH3uuky1HBERERF9MfgEmYiIiIhIhU+QiYiIiIhUGJCJiIiIiFQYkImIiIiIVBiQiYiIiIhU+CU9mlWZ6UHKK7oclFX0KK+IiIhoMnyCTERERESkwoBMRERERKTCgExEREREpMKATERERESkwoBMRERERKTCgExEREREpMKATHOaLGshScoIXbVc54FWwxOBiIhmBvtBnmVyjA7PLpXw5h4r3rbMzgd4epYX/iFexpMf2HBmkrSYOt8LP0ofvR+S7Q78x3s25M9yupzNfpBlOQwZtz6GvIhulLz1JEo6prctYau+j2szyvHpc6+hfQr7IzB1KxJ9q1BWUgHbBOXllC/jrutzoRk3Tx48hr3P/hltHu7zidZP9lmO9ffcBUPpf+K9w7XinTy1ZV6J/SDLciTWfPuHuC7ehANPP4FPGzzbvyMSbv4FHlhaiuefeA61U9ifEYtvQW5AGQ7tL8XABOXlxX+NH9y7BNpx8+T+g3jxiT+ieorHbIRr/R5cH66MAY6hHvS0lqPw/VdwUBxX2cPlXQrD+yAS+375E+zvvPzW70JkKQIJt/89knSfouDVd2Fxjm6DnPYA1m1dJN56446v6WPkv/jOhOcEEc0dfIJ8lWhptONXx2zu4flGpzJ1rpPhsNrhsFthv4S3eUEpm5C1IAVeyvh5WvfgwO5nsf/9D9AqVmyg+h3x+o848Ml+mJQiF0OWNYhYej1iUIrigqmH4yuXE3ZxHthtNtgu4XkQmbsNa1akw1cZP0/Vbrz27K/x5z++jRqrjL7Tr4nXT+PVlz5Bq1LEU/JAMfaIZbiWs+vN3ah0ZGLj1/43NibolBI0k3yy7kRCZA9a9n44Jhy7abXiP61o/vC/UfLu6HDms+OwDpcgojmMAflKIYLB52WDgT4Z+W1O91DWr0yc4yTJhOr3f4Rdz/47yi6jp1PSQBNa6kvQVNeIAXEv4jDXoFmMNze2TPjE2WP+a7AwKxg9p3ejflCZdhWTpA4c/69H8Ysf/gwHGi+j88Bci/KSQpwtroVZnAe2LtdfHQpRVtYAy3TPA2cXGosL3Ms5e+JjvP+751A8GIPl6xcqBa48sjwfN/7kv/DNHYnKlEtD1i/FvJXpcJS/ibpmmzJ1lEZyfXz2o6/2NEw1xaNDcxscfHpMNOdpIyMjf6y8vix5e3vDap0b9+OyLCMxUYe/XabDffO1WBMqockiYW20hLM1DpTZhi+arnKhETo8vESHL2frcGuyBosMElpMTphUTymycrzwL7kalFQ5YFIuuHKUDr/bpIV3swOl1uFpYRFarDfIKO7X4L6VOtw/X4drwiWYTQ40KXWqBYVpsTkUOFbhRMsEF3LX+gUr6/egWL9bUjXI0gP1nU70yueX/zyRq/8Gd+xIQ3tRCfqlXKx++DvI86tCeUMX5NjbsfOupegtKIIZkqgX8InbjGXX3o3la29A1sIliAywobulEUPqP23G3IZb73kIi5dtRc6yLcjOCUZHYbFY/th1k2UvBGXsxJotX8KSFZuRHOuPPq+V2L5zE+xnj6BT2Td+8euQGtaJtt4MLN3+ZSxZvg5JMcEYaK2A2Tp82yEHXIstD3wTy0WdCaEaSH5pyBypf+l1MJg+RGP3+H0Tgfi8PPh3HENF4/lNG1xNJ27aHAVzT/qk9bqMrF9t0RnxceyN2LX3Y0FgGfI/PiCCl2q/TGF7O01DSukL0+h84eXtBa1u/CCCgcMubsjGb+/kvFb+Lb7/9Uw0fFqILs0y3PmLn2BLUDmOlHZCzrgf3/nfK9G55wQ63eeBhICMHbjp3odw4847sG79KrH9DrRW1aLfodretPvw+P/5Fq7fejM2bLkZ69eGofHTAnRNcB5ErrwPd375K9i2Ywfy0gNg8l2PR769Fc78fWgYGC4flHkdFsd2oNaUg+0Pfw3btl2H3LRQmGtK0TGgnAdhN+AbP/0ObhB1ZkWJ88CQiZUj9V9/IyLb38GZ1vH7JQoLrl2JoKaDOFbWpUwb5Wo68Xf3xKHblD1pvS4j63fq0yJ0j2yjoxdBC7Yj078O+Ucr3Tdgrv1nyNiOG+99ENtvuV3slzVIi9Wgs7oKvarrQfLt/4Jv3x6Bmr2n0KssT85+GN/7+53wOr0HtX3D06a6frLsjahV94r9/AC27tiG3GQvtJsCkJsVgLoDe1Gv7GfPhSFjwxoENe7FicpeZdrskmVfhG18GEnBlah4bzf67eevuyZiGRJSJJjyj6PPoYVGK+6CPuf6GBijwz+t0+H2eAm1DQ4YPbyWEtGlxSfIM8grTITjRVpEWJx4tciB3SZgR7IEhzJ/hNagw/9aoUWGw4n/OW3HC9VO6KK0eHypDmGulDgtGlyXAhRVOPD8WQf6AzX4hgjq8dNYnsagxWNi/TLF+r0l1u/5Sid8YnX4bp4WgR4uz9HTgUF9GAJc7RECImAY6oMUFAmtWI5XUDi8u9vQrSxSCr0WG8QHa5S9BMV7/4wTJyugm3cnNm1aCm91vZ0HccTdhOGPyK+avE2tFHE91mxcCUPfSRTtfRNnmgzIzElS5o4jpSEj2weNx3fh+PFi2COvwerrNiBgpN7B0yj66EUc+vAFnG11QDYX4oR47Ro/LKaXtw0X85ir3gXek9c7wvUlNC9f6MI2IkcEvK6iD867+fFoe6dgwT3/hu/97FfnDd/9x19i6zyl0BRZjUb0+UUgVNxoISQKIYPiligixn1c9eHh0He0wKi0/NHE7MA9D9+CJPsp7Nv1LN7fcxZeuffh/rtXw1+9X5r34C13E4an8eGp84PnCG3izbjrjrUI7TmKT3e9hP2VQVi9JlWZO14mVqz2Qrk4pu99WARr/Gbcdt8WhI7Uaz6Jj1/8b+x64Xc4XCvOA9Nx7BavXeNviOlHaoaLeS4Ty1fplHoLz693MpooBAUB9t5uWEYmRW/HXz18KxJtp3Dwzefw/r5SaBfchXvu2+zx+3fUhddPl3ob7rp9LYK7jmDPrldwqC4Ka1bFYzoNumRtLOblJMBXci3fjAGxcZaB4fe6JiAZCzKi3a9niyZ2B1Iz9Og68qa4CZgkyGpcTSw08F/0dSz7+r9g7Td+ieW33YXwINf08/n4SggUs3x8AAOzMdFljwF5BqVGaxBhd+KF43Z83OzE3koHXhPBaXxb1cR4DZKcotwxOz5sdGJ/tQNPlcnwDtdghStATIevjOMFdrzfIJZX48D/LRMfSyIkL/FX5ntgXqIWSSIcq9fv3846oRfbt1pc3D1iMqIXITAEi9chEfBuLEVnYBQCxWhQUBjs3cZzH+yh81cgxH4a+bvfQmVlAeqL38S+Y+XQJa9Bgp9SSJCsbWhzNVkQQ6f5/D99jghKzkag4ywK3v8LqqoKUFf4MgqqBiZ+7ultQd2eP6PcXe8uHCiohyZyAaKUBqaS3QhjTSEaxGDqEx/aQ21oqS5wjzfUFME03S9geveh9tNXVfXWjal3hOS3HBse/jnuuHOr2JuVqCg5P5F7tL1TUPPB/8OfnnnqvOH53/4GRxqVQlPV0oZOhLlOASAqCr4Vp9ESEgPXV84iwiNgbW9Ft7sgELdiLaJtBXj/9y/h6ImjOLX3Rbyy+wy8szcgx3XiKCRLM6pcTRbEUGea/DyIyM5FqL0YH//+FRzLP4qij3+P3UUDE1/89P0ofvlZHDruqvdPePXTGmgTcpEWMDxbsraguvAYSsTQ3CvOg8EWVBQcdY+XFB5HY88097bejJKXn1PqfV7UWz2m3lFaeOn94O2rhz4oETk334slYX04W1By7kt6UctWI0bsv91ie4+eOObefy9/UAqv9NXInu53ZqewfrG5ixEyJOr9wys4ruznT8R1bTqto7WZ23DbV36Iv/vu3+HahUBXhxmmriAsuvVxfPsH38cdX7oWidMO+59P1sQjceMa+LR/jOozne5p3nmP4pq/+SrCVXUON7FIRmRyL5o+/gNK9x3CQNAqZG7ZDP0E62astuLRT2x4XAyHJ3giTUSXFwbkGRSiFxe9ARn1dmWC0Gh2ntc2OFIp16AqZxblXH88jFAFQY9YZTSq/npuNsvu5QVP+g2iyYX5DK9fi/gA0Osk92AXobBHRK3I8z6wL8DaCrMlGP6BYjlBERg0lcAsh8Og1cE/KBhmU4tIHcMfFno/kX5628R6+0Kr83EPzh4jBiQRsFXBaKr0fmJlLe0wq/ZzT5dReTWOWM+ekaQuDPR0wgF/iBwyu4bEDcSA8loY6DFNWK88eAb5bz+DPQdOY0iThLjk8+98PNreKbC0laG28uwEQwVMgx5+wA80obMvFMFhWgRGRqKvpRAdcgQivHQIDQ9FV2vjuYBncD0S7WxBp2Y4CLoGu7ENfVIYgl0B20OGQNd51Yp21fvD2NYycZt9sZ5G1R8leoztsInj4e/pee+pgRYYVa0HeowdE9Yr+a/B3cqT/O/88Ie4bXUA6nb/FrtPjfb0ExISCnS3oF3VMs3S0oo+hCJotBMMz0xh/dz7uasZRlW97a2T7OcLcFS8jV1v7EaZKRBZdz6GDYkOpN3yGK7P8UNH4bt4+8X30aSUnWn63NsQF9yBxs/2iMvg5Oe5s/0kGk7uRvkHr6K1Rtysl7yD0qPl4gK/EGETXK9cvV30ietqB8Mx0ZzAgDyD3Jc98Wmg/kBwTvD8TuPa66LQmD89uv+ddBEdEkhj6r2Y5bkejEhBOvx8uzeeGRnWiiAjlud5V7Ot6O3RICAwDIEhAejtKhfj4eK1GAIdYnw0wGlc6xuxBTtcT0pHhpvXiY9h7fA+85hrZcfsFWW/TEAedyMjy+7x2W8mOMV65V70NFfAWLwblZ1eiFu0YYI/l3uwvVPgaoM8ElDHDt7Quv/07YkmmDo0CA4PR0RkIDpbz6CzMxLh0VEIC3Ogo220XwfXkzkp/kY8omrW8b1HNiMIOmincx643wTnr+/EWyCPaxJwqc6DqdUrW07hQ/eT/H/Fs//+A/zfH3wfr3xSNqZLMY3rzSLO57HXF9eYZprvI5cLr99wd2fD00e4/s3E+/nzSbYOVB9+A2/918/w7Esn0ddnQ3/XHrzyrz/Bi6/8BUXV4kZy+hfLSbnaHgcnpkBjzIex3w9efobhwfv8upxth1F3+GOYzKNbaBfXM6s4U71n+4aKiGbdtC+XdD73ZVJcR9WXUs0EHw9O16eGKDRm57v/nfhwURV3uj99xn8Vanh87IeVy7hy7uUp6+Qh12epbLbj14es+GfV8ORhO3Z72I2uJA3A3G2Bf2ACDEED6DFZ0ScCsyE4Bv6GDvSaRtfQFRVl02EccD0pVQ2fvvMsyjuUQh4Ysg4APgHwVe0YX7+AcftzbpGkNpQXnYEtdDUWJI9t7zLT2zuTbZAlqR/txn4EhyUjPHwAnW1DIiBrEBoVj5CQdnS0jJ7RTtfNSts+vDYTTTsEi8UC+AUiQPWGcz3tnJMXP7kHrRWlqK0sQ31DG/on6N/Q6brAiJuMsdcX15gIzaoLh+wU/1aEzDHnhxhxXbPcedpDri/3uhagXp6r1umefy5eyTtxz1dWofuTZ1CMG/BXX7keYR7fnHlOirkByx76R6xShiXLp96DxsVsLxFdPubkZ8Tlqsv1jW69hERVo7t4g+u56FhGpVy86rscAQbJ3S7XqPpNlDZXH2HeEhK8lQlCbKAGXmJy+/iu2kS5eFVeMriXJ6Nb9ef7EVb3B+PkB79zSMwX29BlcuJMp+weSsyAVjM2wE9VT7cR3oHzEao3wiy2r6enC4a4DARKRvSq/mw7YBEj3k4MtlSgvaXSPRhN/dDoJBGalEIe6Gmpg9VnIbJXLkSg3gB91CrkZsZM66ZBzenaCeLm5Yt681gr96DGrEdC3toxbR1nentntA2yYGxvhT40BzEBLWjvFOew+E9YWhZCpFa0q26AzD3iLszHif4qVxAcbtZR09oPrZcr1CmFPGCsrsaAPg/rb8hDhAjGQSkbsXlp7AQ3mZ5xB1HxRrrcAlGXSezc4GhEqL784BcdjQB0ortdmSCYXOUCYsY0mwqPiYXO2QHXLE+ZXW/mkFhEqq5XEdEx094/svd8bLl7G8LaPsBnRfU4+t5nGJx3O27bkgLNdC5ECil0DTLv+A4Wbsob++VfNys6Dz+DU3/5zZjhbMn5PVf75TyAhTdchwBVYPcKjYaX2M/K9wnHcDUhyk7QYF28hIhLEPKJ6OIwIM+g6lYnOnQa3Ltch+tiNVifpsXdseLCqMwfUd/oRJ1muEu262IlrEvV4bFMDawdThxTtZM0NYuA6tRg5wodtsa7lqfDt+ZJ6G52IH/8p7tNwtolOmwX5dalaN3LQ68TJyfo87i9W3yYaSRsXqDDsigNlrqGUOnch0VVvQP13lo8vFSHzTEarErQ4msrvfDYIg1Cp3FdH+jugC04AzEOI1yfG9aednglZsK/R4yrlmc6ewxd+hVYfv02pKQuQkLGRiy/4ZvYsH4x/FRdgXiHL0BsYrZ7CDOIFKAJQmhSzvC02CjolO1w1L6L46WdCFz0FWy//0e4cdsymBtrLzrQ9IqUIYugl5m1BAkpi8UwHwbd6IbI+jjEiHWJS4qHXhwGrSFleN3iY+B1ER/sIyTU42xRFRB5DRbEjd6NzfT2zmgbZKG3zQhr5AKkWkUgFuMWYzu8M7IQ2jnag4VL07GDaA1Yi5vu34mli5cje8U23PzVx3H37SsQqDoP/BNykZm92D0khYrzQBeC+Jy84WkZsfBV9rWteBfePdaOiA3fxCNPPIVvPbASpvKqiz4POoxGyJGLsXrtKmQvXiGGHET4qs4DQzIyxLrMz0mGuE+GV8i84XXLTIDfDJwHk2nLP4wWryXY9vCXsHzpCuRuuAdf2rYAtorDKFHdkPYWHEKNNQMbHrwPq5atwKJrH8IdGxPQW7gfZap27FPVfLoI3T552PrQcL2LrnsYWxb6Tv9GxGFCTckBfPzK++gQN6T2ql14+4PDqKj18M9Y4+jT1yEyOg5BWesQNq4pvyQ5YWsvQ0/DuKH7/O4RB8T5rEvciswt2xGVlofIRXcgy9Vvcu1RdEzU13ywBl9dpMODSWJbLvbujIhmHftBnkEOixPlQxIyROBcE6dBgkbGGw3A6qix/SA7h5wo6pYQF6nBNYla5AUB3SIh/O6UHU2qfm0lu4yiTpGDIobLLQ4EWpsc+O0ZB0yqxn/ufpADndhVLuoSoXeDWK6j14EXC+04M64rMBdnvywiloQVSRpsFstdFa/FiiAZ++uc7r6EZbF+BWL9kkU43pikxdIwCRqzEy+edOKUh4ciPMxX7JhIJCzNgb7pEE7VtInEEoHEZbnwazmMwupW8aE0vI7yQA0axeyQ1BVIy16KeBF2pc4TOLnnf9Cm+nyKXf04rlm5FEnpeYgN9YWkDUeUeO0aT4xzovnUWXebTEkaQm/dYZSXFqGp6ghKjn0igsMi5KT6ovX0+f0gu/oZPvcDDkELkZUWiI4zB9E+LgwOtTfDEZaN1OxVSElfhPjUOAxVqsol3IrtW7ciOT0NAeJGxCskc3jdEnUwFrr6g/as3onK2Tp74T9/DZKDe1Fd3uBujzmV7fWkH+QZ54zBgmsXw1C9F5+caoZsi0LOlqUw1OzFR0VNrnTiLiabK1Em3jcxC6/B0tWrkJkaC404V3a//DqqxLk7IuPWH+PObauQk7cC86L0kHQRSBavXePZ84CKfafd/ftK0iDaS/bh6JETOHtqP/a//y4q9MuwcaEeNQfO7wd5TD/DkUtwzeJgNB3+9Fy/wCP6m5ogxy7G4lXrsChvGRYsTMJAgapc1l/hkftvxsK8+QjRihvQqOzhdZuvQ42rP2iljqnWO2G5Cch9VagUN7nhmcuxeLnYf/EG9JW9i7df+2TMF8SkoXpUVA8gJFOEWVEuI8YbnQWv462/HB/Tv/ZU189pKkddXzASspZj4eJcxGgq8OkJK3IW+E+rH2RJ7kd72Sk0K8fcFV57aopQ2znofho7XQ45FCHJcZDaj6LhdDVsU7hV0sasRlyCFR3HTp57D8r9lTB1aOEvrlfRWUvFddgPQ/UfoOyzgxhU7b8RkfE63Bwuobjchj29019/Iro0pOzs7Nl7lDEDAgIC0NenandAc0pm+nT7lZodUsZDuHOjHief+09UipuZK9347S2ruLinb1cK7Ypv4/t3+uHDn/wSR8cFX6KZ5mqfvXGlDx4MdeLpj2w4rvrBGyK6PLGJBV3RpIDkc80xYpJXYUnOPMi99ei8Qn+i+Wrb3qnShqafa46RsWgjtq3JgNxZjXqzUoBoVmmQHgz0NDmQP43mK0R06fEJMs2qL/oJsm/Ot3DL2mT3a6fDAkvHWZQeeB3VHXOj2Y6nLrS9V+sTZMOG7+LRm9Lcr512C3qbT+PQmy/gRMNVfudAl4Rs0OLJDRoU7rfi5en+mAwRXVIMyDSrLrcmFlc7NrEgIiK6MDaxICIiIiJSYUAmIiIiIlJhQCYiIiIiUmFAJiIiIiJS4Zf0iIiIiIhU+ASZiIiIiEiFAZmIiIiISIUBmYiIiIhIhQGZiIiIiEiFAZmIiIiISIUBmYiIiIhIhQGZ5jRZ1kKrkZQxIiIioovHfpDngIQYLVb7OPFujRP9EsPgCFmOxJpv/xDXxZtw4Okn8GnD9PZNws2/wANLS/H8E8+hdgr7N2LxLcgNKMOh/aUYmKC8vPiv8YN7l0A7bp7cfxAvPvFHVHt4DCdaPzlgHe77P19GyNEn8eu/VMDp4TKJiIhocnyCPAfExWqxI1EDf2WcRjhht9pht9lgu4S3eZG527BmRTp8lfHzVO3Ga8/+Gn/+49uoscroO/2aeP00Xn3pE7QqRS6G66l58vU7kIrT2PcJwzEREdFMY0CmOUuSOnD8vx7FL374MxxovHxComSuRXlJIc4W18LsBGxdVSgT42VlDbDMRJgN3YRNK0PRvv9tnOaPTBIREc04NrGYQXKoDr9aI+HYSQcMaVrk+UsYsDix/4wDbxqd5570ybKM4Agd7p2vQY5Bgs4ho6rZgZdKHWhwKGX8NPjZZh0SJwhUrn9/In8I/9kyPC8rxwt/Hy3j5x/ZUDFSR5QOv1su4YPPrNjVp0yb4vqlZ3nhH+Jl/P4UsCFbg0RvGaYuJ14vcuLEgGeni9fKv8V3d3TjxSeeQ7VmGe78p28g/vhT+H9vlEHOuB/fecAX7/zDb1EmS2K7JARkbMfWbeswLzYYGmsHmk99hA/e2QujdXQ/yGn34fFvrIf/yLZO0nRBlr0QufJu7Ni8GNGBWvTX78fu4nB86ZYwfPaLn+Ggabj8SBOGv+yyY8mNqxDtb0Nv3XHsef01nDU53GXksBvwje/dgugJj4cTpS9+Ha8Xjq9/IXb+/NtIOPbP+I+3q5Spo6ZSr4u6iUUNvJF59z/hSwuq8fovfo3SwdE6p7q9IwJjdPjRYg0CBpz4j/02FCvnHhER0dWOT5BnnIRl6VoMNTrw7Gk7ipwSblqmxfWq9hEagxaPrdAi0+HEW6LM85VO+MTq8N08LQJF+HUbkvHnfDt+c8KGD0wyZIsDL4jXrvFnxPTdXcPFPHfh9Rsm4dpkGSfLxfqVOTEUpMUjyzSIGlm/KbIajejzi0CoXoyERCFk0AwpIgbeYjn68HDoO1ogsrmbJmYH7nn4FiTZT2Hfrmfx/p6z8Mq9D/ffvRr+6nqb9+AtdxOGp/Hhqcl3hDbxZtx1x1qE9hzFp7tewv7KIKxek6rMHS8TK1Z7ofyjF/Heh0Wwxm/GbfdtQehIveaT+PjF/8auF36Hw7UOyKbj2C1eu8bfENOP1AwX81wmlq/SKfUWnl/vOVp46f3gE7cNG/IMaNn/1phw7OLZ9gI+vhJEjoaPDyDu04iIiEjBgDwLjPVW/LHaicONTvzhqBOVGg1WRI/u6nmJWiSJcPzCMTs+FGX2Vzvwb2ed0Isyq0VYcZEcMopbnDgihupBMcEmo6jZ4R53DZXjwpEnLrR+bt4yjpy0472G4fX7VYUT2iANcr2V+VPV0oZOhCEkQryOioJvxWm0hMQgXIxGhEfA2t6KbndBIG7FWkTbCvD+71/C0RNHcWrvi3hl9xl4Z29ATqBSSJAszahyNVkQQ53Jpkw9X0R2LkLtxfj496/gWP5RFH38e+wuGpj4pNf3o/jlZ3HouKveP+HVT2ugTchFWsDwbMnagurCYygRQ3OvCK+DLagoOOoeLyk8jsaeaR4PvRklLz+n1Pu8qLd6TL0jJP81uPtnv8L3HrsZ0SjDiQPNypxRHm2vYKy24tFPbHhcDIftTMhEREQjGJBnQVOv8sJlyImSLhlDqvwR5iNGBmS0SBrodZJ7sPfJ6IGEyHHBaDZcaP3crDIahpTXQkefmCT+P1AJ8FM20ITOvlAEh2kRGBmJvpZCdMgRiPDSITQ8FF2tjZCVZguGoCCgswWdGj94++rdg93Yhj4pDMGugO0hQ6BI1b2taFdth7GtBRM+AxfraexRXgs9xnbY4A//2T4eAy0wqo5Hj7Fjwnplyyl8+MxTeP7tAlg0qZifa1DmjPJoewVJ7Pc+cR52MBwTERGNwYA840QcUSUSSZLx5iEbnqwanShyMaQgHX6+3RvPjAxrRWAUAXn2u/S98PoNk8YGq2mvVxNMHRoEh4cjIjIQna1n0NkZifDoKISFOdDRNtqvg0bsGCn+RjzielI6MjyyGUHQQTudM9UdvMdv10RTXGQoLT0UsrucfAmOx5TqlXvQWlGK6r1v4WSrN9LWX4+I8c0wPNpeIiIimgwD8hdAFolINtvx60NW/LNqePKwHbtVTzGnyulOU/K4DDs8PjZ8XXqS1I92Yz+Cw5IRHj6AzrYhEZA1CI2KR0hIOzpaRtfQKXaM3LYPrz3zFP6kGp7/7W9wpFEp5AGLxQL4BSJAdZa7nrLO5ZNekppxZO9p2KI24JqFrobdo67E7SUiIvoi8LPzC9A5JAM6oMvkxJlO2T2UmAGtRsZ5380SnK4MKdLu2AA8qm1AFPCWkKBqHxwbqIGXmNzer0z4AhnbW6EPzUFMQAvaO8U6if+EpWUhRGpFe4dSSDD3iLsDHyf6q0pRW3nWPdS09kPrNXxT4SljdTUG9HlYf0MeIkRQDErZiM1LYy/6psGpHJDJjsdss+S/h0KTH7I2bUKQ6oTxdHtdTVuyEzRYFy8hQuJzZiIiohEMyF+AqnoH6r21eHipDptjNFiVoMXXVnrhsUUahE6QU5r7xUR/DXYka7HKVT5GQrxutKCpWQRtpwY7V+iwNV6D9Wk6fGuehO5mB/IvNg3OgN42I6yRC5BqFYFYjFuM7fDOyEJo52gPFi5Nxw6iNWAtbrp/J5YuXo7sFdtw81cfx923r0DgaK9n8E/IRWb2YveQFCrSsy4E8Tl5w9MyYuGrhEZb8S68e6wdERu+iUeeeArfemAlTOVVFx1sO4xGyJGLsXrtKmQvXiGGHET4jh4P2ZCMDLEu83OSYRDvMK+QecPrlpkAv4nugDwkydU4tL8McuImrM0Qd1oKj7c3WIOvLtLhwSQJ9svgPCEiIrpcMCB/AZxmB5465kCDXoM783R4aIEGCQMO/PqQE2ed58eZhmo7dnUAS7J0eGSZF/5aBOuVqp9xkwad+PVRB06Jw3nDQh3uSZbQ02DHv552TPhTyJdcWys6A4Lg3aH0WNHSgr7AYGiNzTC5CwxztryHl/7wLtqCV+Pav3oIN96wCVFd+/H6M6+gTtVHb/KmR/ClB//GPWzJDYHkk4WNyvhdd23EyPf5JKkLZ179Rzz10x/hd7/6KX71819iv7hpuNg9Ytz3Ij4r12L+jQ/h9vu+htvuvQvZwcpMl3nbcOcD3xTrczNSvCUELLxzeN3uuRbRSpGL1Xv4fZzuC0bu5vUIUEK3p9sbGaZBiPj/EnHD1nU5nCdERESXCf5QCF1VtCu+je/f6YcPf/JLHFV+QOVKNtn2un5sZuNKHzwY6sTTH9lwnD8SQkREdA6fINMVTRuafq45Rsaijdi2JgNyZzXqzUqBK8zUt1eD9GCgp8mBfLsyiYiIiNz4BJmuaIYN38WjN6W5XzvtFvQ2n8ahN1/AiQbXr69ceaa6vbJBiyc3aFC434qXp/sjJ0RERFcoBmQiIiIiIhU2sSAiIiIiUmFAJiIiIiJSYUAmIiIiIlK57AMy2x8TERER0aXEJ8hERERERCoMyEREREREKgzIREREREQqDMhERERERCoMyEREREREKnMqIGt03tBKl/UP/xERERHRHHfZ/9S0Wvb9v8HObBt6Gwqwb9cLKGyxKXOIiIiIiGaGNjIy8sfK68tef2slaqvb4J91PdYs1KLsYCn6JUmZS0RERER08eZUEwtLWxmqTn2Ej47VQRMRj2itMoOIiIiIaIbMyS/p6bQiGctO2NkcmYiIiIhm2JwMyD6+emDIgiGnMoGIiIiIaIbMyYDspdMBNiv4FT0iIiIimmlzMiAbG+phDUhD5vwY+Ov18PZl929ERERENDPmVDdvI2Q5AJm3fQc718TAR5LEuBn5v30U71WyRwsiIiIiujhzMiBr592NR76eh46P3kR+fRdsTgd6G8thGmRAJiIiIqKLMyebWMRkL0SIpRiHPzqEivKzqK2sYDgmIiIiohkxJwOym0YCu0EmIiIiopk2JwPy4MAg4KuHjzJORERERDRT5mRAHrINiTX3hrdOmUBERERENEPmVEDW6PTQh6ZjSVYcYDahy67MICIiIiKaIXOqF4vs+3+D23N1cPTXI/+1f8fu4l5lDhERERHRzJhTAdkvKgNhXj0wtRrRb+cPgxARERHRzJuT/SATEREREc2WudvNGxERERHRLGBAJiIiIiJSYUAmIiIiIlJhQCYiIiIiUmFAJiIiIiJSYUAmIiIiIlJhQCYiIiIiUmFAJiIiIiJSYUAmIiIiIlJhQCYiIiIiUhkTkDU6b2gl/vI0EREREV29pOzs7HOJOPv+32Bntg29DQXYt+sFFLbYlDlERERERFcHbWRk5I+V1+hvrURtdRv8s67HmoValB0sRb8kKXOJiIiIiK58Y5pYWNrKUHXqI3x0rA6aiHhEa5UZRERERERXiQm/pKfTimQsO2Fnc2QiIiIiuspMGJB9fPXAkAVDTmUCEREREdFVYsKA7KXTATYr+BU9IiIiIrraTBiQjQ31sAakIXN+DPz1enj7svs3IiIiIro6jOnmbYQsByDztu9g55oY+EiSGDcj/7eP4r1K9mhBRERERFe2CQOydt7deOTreej46E3k13fB5nSgt7EcpkEGZCIiIiK6sk3YxCImeyFCLMU4/NEhVJSfRW1lBcMxEREREV0VJgzIbhoJ7AaZiIiIiK42EwbkwYFBwFcPH2WciIiIiOhqMWFAHrINiTne8NYpE4iIiIiIrhJjArJGp4c+NB1LsuIAswlddmUGEREREdFVYkwvFtn3/wa35+rg6K9H/mv/jt3FvcocIiIiIqKrw5iA7BeVgTCvHphajei384dBiIiIiOjqM2E/yEREREREV6vJu3kjIiIiIroKMSATEREREZ0D/H8BDjsYsA2lfAAAAABJRU5ErkJggg==;" parent="1" vertex="1">
                    <mxGeometry x="90" y="400" width="616.73" height="307.5" as="geometry"/>
                </mxCell>
            </root>
        </mxGraphModel>
    </diagram>
</mxfile>